{"glyphs":{"0":{"ha":1006,"x_min":0,"x_max":0,"o":"m 501 -17 b 197 127 376 -17 275 31 b 79 483 118 223 79 342 l 79 486 b 198 844 79 628 119 747 b 504 989 277 941 379 989 b 809 845 629 989 731 941 b 926 489 887 749 926 631 l 926 486 b 808 128 926 344 887 225 b 501 -17 728 32 626 -17 m 504 138 b 683 237 578 138 638 171 b 750 483 728 303 750 385 l 750 486 b 681 734 750 584 727 667 b 501 835 634 801 575 835 b 324 736 428 835 369 802 b 256 489 278 670 256 588 l 256 486 b 324 238 256 388 278 305 b 504 138 370 171 430 138 "},"1":{"ha":550,"x_min":0,"x_max":0,"o":"m 247 811 l 147 781 b 117 776 138 778 128 776 b 64 798 96 776 79 784 b 42 849 49 812 42 829 b 99 922 42 888 61 912 l 246 969 b 329 985 281 980 309 985 l 332 985 b 392 960 356 985 376 977 b 417 900 409 944 417 924 l 417 78 b 392 17 417 54 408 34 b 332 -7 375 1 355 -7 b 272 18 309 -7 289 1 b 247 78 256 35 247 55 "},"2":{"ha":851,"x_min":0,"x_max":0,"o":"m 60 81 b 104 165 60 113 75 141 l 403 419 b 545 562 471 477 519 524 b 585 682 572 599 585 639 b 540 792 585 728 570 765 b 428 833 511 820 473 833 b 236 725 359 833 295 797 b 176 699 220 707 200 699 b 122 722 155 699 137 706 b 99 776 106 737 99 755 b 118 829 99 796 105 813 b 256 947 161 882 207 921 b 440 986 306 973 367 986 b 672 906 536 986 613 959 b 761 696 731 853 761 783 l 761 693 b 706 508 761 621 743 559 b 508 317 669 457 603 394 l 308 150 l 703 150 b 756 128 723 150 741 143 b 778 75 770 113 778 95 b 756 22 778 55 770 37 b 703 0 741 7 723 0 l 151 0 b 85 22 125 0 103 7 b 60 81 68 36 60 56 "},"3":{"ha":858,"x_min":0,"x_max":0,"o":"m 432 -17 b 103 110 300 -17 190 25 b 75 171 84 125 75 145 b 99 228 75 193 83 212 b 157 253 116 245 135 253 b 214 231 178 253 197 245 b 435 138 276 169 350 138 b 555 178 483 138 523 151 b 603 285 587 206 603 241 l 603 288 b 542 398 603 335 583 372 b 379 438 502 424 448 438 l 344 438 b 292 459 324 438 307 445 b 271 511 278 473 271 491 b 307 581 271 533 283 556 l 535 824 l 182 824 b 129 845 162 824 144 831 b 107 897 114 859 107 877 b 128 950 107 918 114 935 b 182 972 143 965 161 972 l 679 972 b 740 951 704 972 725 965 b 764 897 756 938 764 919 b 715 804 764 868 748 837 l 486 567 b 691 485 569 556 637 529 b 772 294 745 441 772 378 l 772 292 b 678 70 772 202 741 128 b 432 -17 615 12 533 -17 "},"4":{"ha":947,"x_min":0,"x_max":0,"o":"m 572 218 l 138 218 b 78 241 114 218 95 226 b 54 299 62 256 54 275 b 92 389 54 329 67 359 l 549 931 b 596 973 565 950 581 964 b 653 986 611 982 630 986 b 712 963 676 986 696 978 b 736 904 728 947 736 927 l 736 358 l 811 358 b 862 338 831 358 848 351 b 882 288 875 324 882 307 b 862 238 882 268 875 252 b 811 218 848 225 831 218 l 736 218 l 736 74 b 713 16 736 50 728 31 b 654 -7 697 1 677 -7 b 596 16 631 -7 612 1 b 572 74 580 31 572 50 m 572 358 l 572 743 l 253 358 "},"5":{"ha":865,"x_min":0,"x_max":0,"o":"m 428 -17 b 117 89 311 -17 207 19 b 82 156 94 107 82 130 b 106 213 82 178 90 197 b 164 238 122 229 142 238 b 214 221 183 238 200 232 b 425 139 281 166 352 139 b 561 185 481 139 526 154 b 614 307 596 215 614 256 l 614 310 b 558 427 614 359 595 398 b 413 471 521 456 473 471 b 303 454 375 471 339 465 b 246 438 268 443 249 438 b 165 471 224 438 197 449 b 132 546 141 488 130 513 l 153 896 b 176 951 154 918 162 936 b 231 972 191 965 209 972 l 671 972 b 725 950 692 972 710 965 b 747 896 740 935 747 917 b 725 843 747 875 740 858 b 671 821 710 828 692 821 l 306 821 l 290 593 b 444 621 341 612 393 621 b 689 542 544 621 626 595 b 783 315 752 490 783 414 l 783 313 b 684 74 783 214 750 135 b 428 -17 618 14 532 -17 "},"6":{"ha":911,"x_min":0,"x_max":0,"o":"m 468 -17 b 197 86 356 -17 266 18 b 109 231 158 125 129 173 b 79 457 89 288 79 363 l 79 460 b 188 840 79 614 116 741 b 496 989 261 939 363 989 b 739 919 589 989 670 966 b 782 846 768 901 782 876 b 758 790 782 824 774 805 b 700 767 741 774 722 767 b 657 779 686 767 672 771 b 490 833 602 815 547 833 b 324 748 420 833 365 805 b 257 525 284 691 262 617 b 490 622 324 590 401 622 b 733 540 588 622 668 595 b 829 317 797 486 829 411 l 829 314 b 726 77 829 219 795 140 b 468 -17 657 15 571 -17 m 464 132 b 606 181 523 132 570 148 b 658 307 641 214 658 256 l 658 310 b 603 431 658 359 640 399 b 460 479 567 463 519 479 b 317 430 400 479 353 463 b 263 308 281 397 263 356 l 263 306 b 319 181 263 256 281 214 b 464 132 356 148 405 132 "},"7":{"ha":846,"x_min":0,"x_max":0,"o":"m 190 69 b 206 122 190 86 195 104 l 583 822 l 163 822 b 109 844 141 822 123 830 b 88 897 95 859 88 877 b 109 950 88 918 95 935 b 163 972 123 965 141 972 l 708 972 b 765 952 732 972 751 966 b 786 896 779 939 786 920 b 763 814 786 871 778 844 l 360 50 b 278 -7 339 12 312 -7 b 216 14 254 -7 233 0 b 190 69 199 28 190 46 "},"8":{"ha":875,"x_min":0,"x_max":0,"o":"m 438 -14 b 172 63 330 -14 241 12 b 67 265 102 115 67 182 l 67 268 b 242 504 67 376 125 455 b 100 721 147 554 100 626 l 100 724 b 196 911 100 799 132 861 b 438 986 260 961 340 986 b 679 911 535 986 615 961 b 775 724 743 861 775 799 l 775 721 b 633 504 775 626 728 554 b 808 271 750 451 808 374 l 808 268 b 704 63 808 183 774 115 b 438 -14 635 12 546 -14 m 438 561 b 562 601 488 561 529 575 b 611 704 595 628 611 663 l 611 707 b 563 803 611 745 595 777 b 438 843 530 830 488 843 b 313 804 387 843 345 830 b 264 708 280 778 264 746 l 264 706 b 313 601 264 663 280 628 b 438 561 346 575 388 561 m 438 129 b 586 171 500 129 549 143 b 642 275 623 199 642 233 l 642 278 b 583 384 642 321 622 357 b 438 425 544 411 496 425 b 292 384 379 425 331 411 b 235 278 254 357 235 321 l 235 275 b 290 172 235 234 253 200 b 438 129 326 143 375 129 "},"9":{"ha":911,"x_min":0,"x_max":0,"o":"m 415 -17 b 153 64 320 -17 232 10 b 114 135 127 81 114 104 b 138 190 114 157 122 175 b 194 213 153 205 172 213 b 242 199 210 213 226 208 b 419 139 298 159 357 139 b 588 223 490 139 546 167 b 654 444 629 279 651 353 b 426 342 597 376 521 342 b 176 426 323 342 239 370 b 82 650 113 482 82 556 l 82 653 b 183 893 82 749 116 829 b 444 989 251 957 338 989 b 715 886 555 989 645 955 b 832 515 793 806 832 683 l 832 513 b 721 129 832 354 795 226 b 415 -17 647 32 545 -17 m 451 485 b 595 535 512 485 559 502 b 649 660 631 569 649 611 l 649 663 b 593 791 649 714 630 757 b 446 842 556 825 507 842 b 305 790 387 842 340 825 b 253 661 270 756 253 713 l 253 658 b 307 533 253 607 271 566 b 451 485 343 501 391 485 "},"¤":{"ha":694,"x_min":0,"x_max":0,"o":"m 0 1111 l 694 1111 l 694 -278 l 0 -278 m 347 500 l 596 1042 l 99 1042 m 308 417 l 69 939 l 69 -106 m 386 417 l 625 -106 l 625 939 m 99 -208 l 596 -208 l 347 333 "},"²":{"ha":694,"x_min":0,"x_max":0,"o":"m 0 -278 l 694 -278 l 694 1111 l 0 1111 m 99 1042 l 596 1042 l 347 500 m 69 -106 l 69 939 l 308 417 m 625 939 l 625 -106 l 386 417 m 347 333 l 596 -208 l 99 -208 "},"³":{"ha":694,"x_min":0,"x_max":0,"o":"m 0 1111 l 694 1111 l 694 -278 l 0 -278 m 347 500 l 596 1042 l 99 1042 m 308 417 l 69 939 l 69 -106 m 386 417 l 625 -106 l 625 939 m 99 -208 l 596 -208 l 347 333 "},"µ":{"ha":694,"x_min":0,"x_max":0,"o":"m 0 -278 l 694 -278 l 694 1111 l 0 1111 m 99 1042 l 596 1042 l 347 500 m 69 -106 l 69 939 l 308 417 m 625 939 l 625 -106 l 386 417 m 347 333 l 596 -208 l 99 -208 "},"¹":{"ha":694,"x_min":0,"x_max":0,"o":"m 0 1111 l 694 1111 l 694 -278 l 0 -278 m 347 500 l 596 1042 l 99 1042 m 308 417 l 69 939 l 69 -106 m 386 417 l 625 -106 l 625 939 m 99 -208 l 596 -208 l 347 333 "}," ":{"ha":694,"x_min":0,"x_max":0,"o":"m 0 -278 l 694 -278 l 694 1111 l 0 1111 m 99 1042 l 596 1042 l 347 500 m 69 -106 l 69 939 l 308 417 m 625 939 l 625 -106 l 386 417 m 347 333 l 596 -208 l 99 -208 "}," ":{"ha":694,"x_min":0,"x_max":0,"o":"m 0 1111 l 694 1111 l 694 -278 l 0 -278 m 347 500 l 596 1042 l 99 1042 m 308 417 l 69 939 l 69 -106 m 386 417 l 625 -106 l 625 939 m 99 -208 l 596 -208 l 347 333 "}," ":{"ha":694,"x_min":0,"x_max":0,"o":"m 0 -278 l 694 -278 l 694 1111 l 0 1111 m 99 1042 l 596 1042 l 347 500 m 69 -106 l 69 939 l 308 417 m 625 939 l 625 -106 l 386 417 m 347 333 l 596 -208 l 99 -208 "},"―":{"ha":694,"x_min":0,"x_max":0,"o":"m 0 1111 l 694 1111 l 694 -278 l 0 -278 m 347 500 l 596 1042 l 99 1042 m 308 417 l 69 939 l 69 -106 m 386 417 l 625 -106 l 625 939 m 99 -208 l 596 -208 l 347 333 "},"‖":{"ha":694,"x_min":0,"x_max":0,"o":"m 0 -278 l 694 -278 l 694 1111 l 0 1111 m 99 1042 l 596 1042 l 347 500 m 69 -106 l 69 939 l 308 417 m 625 939 l 625 -106 l 386 417 m 347 333 l 596 -208 l 99 -208 "},"‗":{"ha":694,"x_min":0,"x_max":0,"o":"m 0 1111 l 694 1111 l 694 -278 l 0 -278 m 347 500 l 596 1042 l 99 1042 m 308 417 l 69 939 l 69 -106 m 386 417 l 625 -106 l 625 939 m 99 -208 l 596 -208 l 347 333 "},"‛":{"ha":694,"x_min":0,"x_max":0,"o":"m 0 -278 l 694 -278 l 694 1111 l 0 1111 m 99 1042 l 596 1042 l 347 500 m 69 -106 l 69 939 l 308 417 m 625 939 l 625 -106 l 386 417 m 347 333 l 596 -208 l 99 -208 "},"‟":{"ha":694,"x_min":0,"x_max":0,"o":"m 0 1111 l 694 1111 l 694 -278 l 0 -278 m 347 500 l 596 1042 l 99 1042 m 308 417 l 69 939 l 69 -106 m 386 417 l 625 -106 l 625 939 m 99 -208 l 596 -208 l 347 333 "},"‣":{"ha":694,"x_min":0,"x_max":0,"o":"m 0 -278 l 694 -278 l 694 1111 l 0 1111 m 99 1042 l 596 1042 l 347 500 m 69 -106 l 69 939 l 308 417 m 625 939 l 625 -106 l 386 417 m 347 333 l 596 -208 l 99 -208 "},"․":{"ha":694,"x_min":0,"x_max":0,"o":"m 0 1111 l 694 1111 l 694 -278 l 0 -278 m 347 500 l 596 1042 l 99 1042 m 308 417 l 69 939 l 69 -106 m 386 417 l 625 -106 l 625 939 m 99 -208 l 596 -208 l 347 333 "},"‥":{"ha":694,"x_min":0,"x_max":0,"o":"m 0 -278 l 694 -278 l 694 1111 l 0 1111 m 99 1042 l 596 1042 l 347 500 m 69 -106 l 69 939 l 308 417 m 625 939 l 625 -106 l 386 417 m 347 333 l 596 -208 l 99 -208 "},"℡":{"ha":694,"x_min":0,"x_max":0,"o":"m 0 1111 l 694 1111 l 694 -278 l 0 -278 m 347 500 l 596 1042 l 99 1042 m 308 417 l 69 939 l 69 -106 m 386 417 l 625 -106 l 625 939 m 99 -208 l 596 -208 l 347 333 "}," ":{"ha":417,"x_min":0,"x_max":0,"o":""},"!":{"ha":419,"x_min":0,"x_max":0,"o":"m 111 917 b 122 959 109 933 113 947 b 160 976 131 971 144 976 l 260 976 b 298 959 275 976 288 971 b 310 917 308 947 312 933 l 261 350 b 245 314 260 335 255 323 b 210 300 235 305 224 300 b 175 314 196 300 184 305 b 160 350 166 323 161 335 m 111 103 b 140 171 111 130 121 152 b 210 199 159 189 182 199 b 281 171 238 199 262 189 b 308 103 299 152 308 130 l 308 89 b 281 21 308 62 299 39 b 210 -7 262 2 238 -7 b 140 21 182 -7 159 2 b 111 89 121 39 111 62 l 111 103 "},"\"":{"ha":676,"x_min":0,"x_max":0,"o":"m 415 899 b 440 954 417 921 425 939 b 494 976 454 969 472 976 l 550 976 b 582 964 563 976 574 972 b 594 931 590 956 594 944 b 589 900 594 925 593 915 l 488 592 b 438 549 477 563 461 549 b 403 563 424 549 412 553 b 392 601 395 573 391 586 m 111 899 b 135 954 113 921 121 939 b 190 976 150 969 168 976 l 244 976 b 278 964 258 976 269 972 b 290 931 286 956 290 944 b 285 900 290 925 288 915 l 183 592 b 133 549 173 563 156 549 b 99 563 119 549 108 553 b 86 601 89 573 85 586 "},"#":{"ha":972,"x_min":0,"x_max":0,"o":"m 183 224 l 119 224 b 68 244 99 224 82 231 b 47 296 54 258 47 275 b 68 347 47 315 54 332 b 119 368 82 361 99 368 l 208 368 l 250 610 l 169 610 b 119 631 150 610 133 617 b 97 682 104 646 97 663 b 119 733 97 701 104 718 b 169 754 133 747 150 754 l 275 754 l 303 919 b 327 963 306 937 314 951 b 375 979 341 974 356 979 b 430 953 397 979 416 971 b 447 894 444 936 450 917 l 422 754 l 640 754 l 668 919 b 693 963 671 937 679 951 b 742 979 707 974 723 979 b 797 953 764 979 782 970 b 813 894 811 935 816 916 l 789 754 l 853 754 b 903 733 872 754 889 747 b 925 682 918 719 925 702 b 903 631 925 663 918 646 b 853 610 889 617 872 610 l 764 610 l 722 368 l 801 368 b 853 347 822 368 839 361 b 874 296 867 333 874 316 b 853 245 874 276 867 259 b 801 224 839 231 822 224 l 697 224 l 668 53 b 644 10 665 35 657 21 b 596 -7 630 -1 614 -7 b 540 19 574 -7 555 2 b 524 78 525 36 520 56 l 550 224 l 332 224 l 303 53 b 278 10 300 36 292 22 b 229 -7 265 -1 249 -7 b 174 18 207 -7 189 1 b 158 78 160 35 155 55 m 574 368 l 615 610 l 399 610 l 357 368 "},"$":{"ha":892,"x_min":0,"x_max":0,"o":"m 396 1000 b 414 1042 396 1017 402 1031 b 457 1060 426 1054 440 1060 b 499 1042 474 1060 488 1054 b 517 1000 511 1031 517 1017 l 517 969 b 732 893 594 960 665 935 b 774 826 760 877 774 855 b 751 772 774 805 766 787 b 696 750 735 757 717 750 b 654 763 682 750 668 754 b 511 824 604 793 556 813 l 511 557 b 741 449 617 530 693 494 b 813 271 789 404 813 345 b 732 85 813 196 786 134 b 517 0 678 37 606 8 l 517 -83 b 499 -126 517 -100 511 -114 b 457 -143 488 -137 474 -143 b 414 -126 440 -143 426 -137 b 396 -83 402 -114 396 -100 l 396 3 b 111 111 293 14 198 50 b 74 178 86 127 74 149 b 96 232 74 199 81 217 b 150 254 111 247 129 254 b 196 239 168 254 183 249 b 401 146 264 189 333 158 l 401 419 b 175 525 298 446 222 481 b 104 706 128 569 104 629 b 185 888 104 780 131 841 b 396 971 238 936 309 963 l 396 1000 m 649 261 b 619 339 649 293 639 319 b 511 393 599 359 563 377 l 511 140 b 613 179 556 145 590 158 b 649 261 637 200 649 228 m 268 715 b 296 640 268 685 277 660 b 401 586 314 621 350 603 l 401 832 b 302 794 358 828 325 816 b 268 715 279 773 268 747 "},"%":{"ha":1179,"x_min":0,"x_max":0,"o":"m 294 486 b 131 558 228 486 173 510 b 67 732 88 605 67 663 l 67 735 b 131 911 67 804 88 863 b 297 983 174 959 230 983 b 462 912 365 983 420 959 b 525 738 504 864 525 806 l 525 735 b 460 558 525 665 503 606 b 294 486 417 510 362 486 m 214 47 b 226 83 214 59 218 71 l 864 954 b 911 979 873 971 889 979 b 951 963 927 979 940 974 b 967 925 961 953 967 940 b 954 889 967 913 963 901 l 317 18 b 268 -7 306 1 289 -7 b 229 9 252 -7 239 -2 b 214 47 219 20 214 32 m 882 -11 b 718 60 815 -11 761 13 b 654 235 675 108 654 166 l 654 238 b 719 414 654 307 676 366 b 885 486 762 462 817 486 b 1049 415 951 486 1006 462 b 1113 240 1091 367 1113 309 l 1113 238 b 1048 62 1113 169 1091 110 b 882 -11 1005 13 950 -11 m 297 593 b 373 633 329 593 354 606 b 401 732 392 660 401 693 l 401 735 b 371 835 401 775 391 808 b 294 876 350 863 325 876 b 219 836 263 876 238 863 b 190 738 200 809 190 776 l 190 735 b 221 634 190 695 200 661 b 297 593 241 607 267 593 m 885 96 b 960 136 916 96 941 109 b 989 235 979 163 989 196 l 989 238 b 958 338 989 277 979 311 b 882 379 938 366 913 379 b 806 339 850 379 825 366 b 778 240 787 312 778 279 l 778 238 b 808 137 778 198 788 164 b 885 96 829 109 854 96 "},"&":{"ha":967,"x_min":0,"x_max":0,"o":"m 833 -14 b 774 13 811 -14 791 -5 l 672 115 b 372 -14 583 29 483 -14 b 144 63 280 -14 203 12 b 54 264 84 113 54 181 l 54 267 b 261 539 54 389 123 480 b 181 742 207 607 181 675 l 181 744 b 257 917 181 812 206 870 b 460 989 308 965 375 989 b 646 922 536 989 598 966 b 718 754 694 877 718 821 l 718 751 b 506 499 718 637 647 552 l 671 331 b 751 469 697 368 724 414 b 815 510 763 496 785 510 b 867 488 836 510 853 503 b 889 438 882 474 889 457 b 879 400 889 425 886 413 b 774 229 847 340 812 283 l 882 121 b 908 63 900 103 908 84 b 887 8 908 41 901 23 b 833 -14 872 -6 855 -14 m 414 590 b 529 654 466 609 504 630 b 567 742 554 678 567 707 l 567 744 b 536 824 567 777 556 803 b 457 854 516 844 489 854 b 373 822 423 854 395 843 b 340 738 351 800 340 772 l 340 735 b 414 590 340 692 365 644 m 389 128 b 574 214 452 128 513 156 l 357 435 b 226 272 270 397 226 343 l 226 269 b 272 168 226 229 242 195 b 389 128 303 141 342 128 "},"'":{"ha":374,"x_min":0,"x_max":0,"o":"m 111 899 b 135 954 113 921 121 939 b 190 976 150 969 168 976 l 244 976 b 278 964 258 976 270 972 b 292 931 287 956 292 944 b 286 900 292 925 290 915 l 185 592 b 133 549 175 563 157 549 b 99 563 119 549 108 553 b 86 601 89 573 85 586 "},"(":{"ha":613,"x_min":0,"x_max":0,"o":"m 481 -187 b 440 -178 462 -187 449 -184 b 88 399 205 -37 88 155 b 440 975 88 642 205 834 b 481 985 449 981 462 985 b 525 964 497 985 512 978 b 544 917 538 950 544 934 b 517 860 544 893 535 874 b 319 655 428 797 362 728 b 256 399 277 581 256 496 b 319 142 256 301 277 216 b 517 -62 362 69 428 0 b 544 -119 535 -76 544 -95 b 525 -167 544 -137 538 -153 b 481 -187 512 -181 497 -187 "},")":{"ha":613,"x_min":0,"x_max":0,"o":"m 131 -187 b 86 -167 114 -187 99 -181 b 67 -119 73 -153 67 -137 b 96 -62 67 -96 76 -77 b 293 142 185 0 250 69 b 357 399 336 216 357 301 b 293 655 357 496 336 581 b 96 860 250 728 185 797 b 67 917 76 875 67 894 b 86 964 67 934 73 950 b 131 985 99 978 114 985 b 171 975 149 985 163 981 b 525 399 407 834 525 642 b 171 -178 525 155 407 -37 b 131 -187 163 -184 149 -187 "},"*":{"ha":597,"x_min":0,"x_max":0,"o":"m 269 700 l 165 624 b 131 610 151 614 140 610 b 99 624 119 610 108 614 b 85 657 89 633 85 644 b 117 700 85 676 95 691 l 239 753 l 117 807 b 85 850 95 816 85 831 b 99 882 85 862 89 873 b 132 896 108 891 119 896 b 165 882 142 896 153 891 l 269 806 l 256 929 b 265 967 254 944 257 956 b 299 982 274 977 285 982 b 332 967 313 982 324 977 b 342 931 340 958 344 945 l 328 806 l 432 882 b 467 896 444 891 456 896 b 499 883 480 896 491 891 b 513 850 508 874 513 863 b 481 807 513 831 502 816 l 358 753 l 481 700 b 513 656 502 691 513 676 b 499 624 513 644 508 633 b 465 610 489 614 478 610 b 432 624 457 610 446 614 l 328 700 l 342 576 b 332 539 344 562 340 549 b 299 524 324 529 313 524 b 265 538 285 524 274 528 b 256 575 257 548 254 560 "},"+":{"ha":881,"x_min":0,"x_max":0,"o":"m 361 413 l 164 413 b 110 435 143 413 125 420 b 88 489 95 450 88 468 b 110 542 88 509 95 527 b 164 565 126 558 144 565 l 361 565 l 361 758 b 384 815 361 781 369 799 b 440 838 399 830 418 838 b 496 815 462 838 480 830 b 519 758 512 799 519 781 l 519 565 l 717 565 b 770 542 737 565 755 558 b 793 489 785 527 793 509 b 771 435 793 468 786 450 b 717 413 756 420 738 413 l 519 413 l 519 219 b 496 163 519 197 512 178 b 440 140 480 148 462 140 b 384 163 418 140 399 148 b 361 219 369 178 361 197 "},",":{"ha":374,"x_min":0,"x_max":0,"o":"m 42 -162 b 74 -125 42 -142 52 -130 b 168 0 139 -104 171 -62 b 112 35 146 6 127 18 b 89 94 97 51 89 71 l 89 106 b 115 172 89 132 98 155 b 183 199 133 190 156 199 b 257 166 215 199 239 188 b 283 76 275 144 283 114 l 283 61 b 215 -142 283 -27 261 -94 b 85 -201 174 -181 130 -201 b 42 -162 56 -201 42 -188 "},"-":{"ha":567,"x_min":0,"x_max":0,"o":"m 153 343 b 95 367 131 343 111 351 b 71 425 79 384 71 403 b 95 484 71 448 79 468 b 153 508 111 500 131 508 l 414 508 b 472 484 436 508 455 500 b 496 425 488 468 496 448 b 472 367 496 403 488 384 b 414 343 455 351 436 343 l 153 343 "},".":{"ha":374,"x_min":0,"x_max":0,"o":"m 89 103 b 117 171 89 130 98 152 b 188 199 135 189 159 199 b 257 171 215 199 238 189 b 285 103 275 152 285 130 l 285 89 b 257 21 285 62 275 39 b 188 -7 238 2 215 -7 b 117 21 159 -7 135 2 b 89 89 98 39 89 62 l 89 103 "},"/":{"ha":724,"x_min":0,"x_max":0,"o":"m 0 -121 b 8 -87 0 -110 3 -99 l 576 1076 b 638 1115 589 1102 610 1115 b 683 1097 655 1115 670 1109 b 703 1051 696 1084 703 1069 b 696 1018 703 1043 700 1032 l 126 -146 b 67 -185 113 -172 94 -185 b 19 -166 48 -185 32 -178 b 0 -121 6 -153 0 -138 "},":":{"ha":388,"x_min":0,"x_max":0,"o":"m 96 644 b 124 714 96 672 105 695 b 194 742 142 732 166 742 b 264 714 222 742 245 732 b 292 644 282 695 292 672 l 292 632 b 264 563 292 604 282 581 b 194 535 245 544 222 535 b 124 563 166 535 142 544 b 96 632 105 581 96 604 l 96 644 m 96 103 b 124 171 96 130 105 152 b 194 199 142 189 166 199 b 264 171 222 199 245 189 b 292 103 282 152 292 130 l 292 89 b 264 21 292 62 282 39 b 194 -7 245 2 222 -7 b 124 21 166 -7 142 2 b 96 89 105 39 96 62 l 96 103 "},";":{"ha":388,"x_min":0,"x_max":0,"o":"m 96 644 b 124 714 96 672 105 695 b 194 742 142 732 166 742 b 264 714 222 742 245 732 b 292 644 282 695 292 672 l 292 632 b 264 563 292 604 282 581 b 194 535 245 544 222 535 b 124 563 166 535 142 544 b 96 632 105 581 96 604 l 96 644 m 49 -162 b 81 -125 49 -142 59 -130 b 175 0 146 -104 178 -62 b 119 35 153 6 134 18 b 96 94 103 51 96 71 l 96 106 b 122 172 96 132 105 155 b 190 199 140 190 163 199 b 264 166 222 199 246 188 b 290 76 281 144 290 114 l 290 61 b 222 -142 290 -27 268 -94 b 92 -201 181 -181 137 -201 b 49 -162 63 -201 49 -188 "},"<":{"ha":881,"x_min":0,"x_max":0,"o":"m 690 133 b 653 144 680 133 668 137 l 151 390 b 85 483 107 411 85 442 l 85 494 b 151 588 85 536 107 567 l 653 833 b 696 844 668 841 682 844 b 744 825 714 845 730 839 b 764 774 757 811 764 794 b 717 704 764 742 748 719 l 260 490 l 717 275 b 764 204 748 260 764 237 b 743 153 764 184 757 167 b 690 133 729 140 712 133 "},"=":{"ha":881,"x_min":0,"x_max":0,"o":"m 176 585 b 122 608 155 585 137 592 b 99 663 106 623 99 641 b 122 717 99 684 106 702 b 176 740 137 733 155 740 l 704 740 b 759 717 725 740 744 733 b 782 663 774 702 782 684 b 759 608 782 641 774 623 b 704 585 744 592 725 585 l 176 585 m 176 238 b 122 260 155 238 137 245 b 99 315 106 276 99 294 b 122 370 99 337 106 355 b 176 393 137 385 155 393 l 704 393 b 759 370 725 393 744 385 b 782 315 774 355 782 337 b 759 260 782 294 774 276 b 704 238 744 245 725 238 l 176 238 "},">":{"ha":881,"x_min":0,"x_max":0,"o":"m 190 844 b 228 833 200 844 213 841 l 728 588 b 796 494 773 567 796 536 l 796 483 b 728 390 796 442 773 411 l 228 144 b 185 133 213 137 199 133 b 137 153 166 132 150 139 b 117 204 123 167 117 184 b 164 272 117 236 132 258 l 621 488 l 164 703 b 117 774 132 718 117 741 b 138 824 117 794 124 811 b 190 844 151 838 169 844 "},"?":{"ha":751,"x_min":0,"x_max":0,"o":"m 340 300 b 300 316 325 300 311 305 b 281 356 289 327 282 340 l 267 475 b 278 522 264 494 268 509 b 321 544 288 535 302 543 b 524 694 456 557 524 607 l 524 697 b 481 793 524 737 509 769 b 364 829 452 817 413 829 b 175 753 294 829 231 804 b 124 733 159 740 142 733 b 69 756 102 733 84 741 b 46 810 53 770 46 788 b 74 869 46 834 55 854 b 368 985 155 946 253 985 b 605 908 466 985 545 959 b 694 703 665 857 694 789 l 694 700 b 414 419 694 545 601 452 l 408 356 b 388 316 406 340 399 327 b 349 300 378 305 364 300 m 242 103 b 269 171 242 130 251 152 b 340 199 288 189 312 199 b 411 171 369 199 393 189 b 439 103 430 152 439 130 l 439 89 b 411 21 439 62 430 39 b 340 -7 393 2 369 -7 b 269 21 312 -7 288 2 b 242 89 251 39 242 62 l 242 103 "},"@":{"ha":1361,"x_min":0,"x_max":0,"o":"m 693 -225 b 251 -48 517 -225 370 -166 b 74 381 133 70 74 213 b 251 810 74 547 133 690 b 682 989 369 929 513 989 b 920 943 765 989 845 974 b 1113 822 996 913 1060 872 b 1240 646 1166 771 1209 713 b 1288 439 1272 579 1288 510 b 1210 183 1288 328 1262 242 b 1018 93 1159 123 1095 93 b 813 190 922 93 853 125 b 597 93 750 125 678 93 b 418 166 526 93 466 117 b 346 356 370 215 346 278 b 442 601 346 452 378 534 b 661 703 506 669 579 703 b 857 600 747 703 813 669 l 861 625 b 933 694 869 671 894 694 b 985 670 955 694 972 686 b 1000 610 999 654 1004 634 l 947 313 b 940 253 943 285 940 265 b 969 181 940 222 950 198 b 1049 154 989 163 1015 154 b 1179 228 1100 154 1144 179 b 1232 439 1214 278 1232 348 b 1072 786 1232 570 1179 686 b 682 936 966 886 836 936 b 288 774 525 936 394 882 b 129 381 182 665 129 534 b 289 -12 129 225 182 94 b 693 -172 395 -119 530 -172 b 1024 -86 813 -172 923 -144 b 1039 -82 1027 -83 1032 -82 b 1055 -90 1045 -82 1051 -84 b 1061 -107 1059 -95 1061 -100 b 1049 -128 1061 -117 1057 -124 b 693 -225 939 -193 821 -225 m 635 214 b 769 279 686 214 730 236 b 826 433 807 323 826 374 b 785 542 826 478 813 514 b 681 583 757 569 722 583 b 546 519 629 583 584 562 b 489 364 508 477 489 425 b 529 253 489 317 502 280 b 635 214 556 227 591 214 "},"A":{"ha":1074,"x_min":0,"x_max":0,"o":"m 58 72 b 69 111 58 83 62 96 l 431 917 b 533 986 452 963 486 986 l 542 986 b 643 917 588 986 622 963 l 1004 111 b 1014 75 1011 99 1014 87 b 991 17 1014 52 1006 32 b 933 -7 976 1 956 -7 b 850 53 894 -7 867 13 l 771 235 l 299 235 l 217 47 b 138 -7 202 11 175 -7 b 81 16 115 -7 97 1 b 58 72 66 31 58 50 m 706 386 l 535 779 l 364 386 "},"B":{"ha":1003,"x_min":0,"x_max":0,"o":"m 125 886 b 150 947 125 910 133 931 b 211 972 167 964 187 972 l 561 972 b 815 886 673 972 758 944 b 881 725 859 843 881 789 l 881 722 b 742 506 881 626 834 554 b 935 269 870 462 935 383 l 935 267 b 838 69 935 181 902 116 b 575 0 773 23 685 0 l 211 0 b 150 25 187 0 167 8 b 125 86 133 42 125 62 m 526 563 b 660 596 583 563 628 574 b 710 694 693 618 710 651 l 710 697 b 665 788 710 736 695 766 b 539 821 636 810 594 821 l 293 821 l 293 563 m 576 151 b 715 185 636 151 682 163 b 764 285 747 208 764 241 l 764 288 b 564 418 764 375 697 418 l 293 418 l 293 151 "},"C":{"ha":1025,"x_min":0,"x_max":0,"o":"m 576 -17 b 224 128 436 -17 318 31 b 82 483 129 224 82 343 l 82 486 b 224 843 82 627 129 746 b 583 989 318 940 438 989 b 917 879 710 989 821 952 b 950 811 939 863 950 840 b 926 752 950 788 942 768 b 865 728 909 736 889 728 b 814 744 846 728 829 733 b 582 832 742 803 664 832 b 353 733 490 832 414 799 b 261 489 292 666 261 585 l 261 486 b 353 242 261 390 292 308 b 582 142 414 175 490 142 b 825 235 671 142 752 173 b 876 254 840 248 857 254 b 933 231 898 254 916 246 b 957 175 949 215 957 196 b 929 114 957 151 948 131 b 576 -17 830 27 713 -17 "},"D":{"ha":1086,"x_min":0,"x_max":0,"o":"m 125 886 b 150 947 125 910 133 931 b 211 972 167 964 187 972 l 488 972 b 859 834 638 972 762 926 b 1004 489 956 742 1004 627 l 1004 486 b 859 139 1004 347 956 231 b 488 0 762 46 638 0 l 211 0 b 150 25 187 0 167 8 b 125 86 133 42 125 62 m 488 156 b 732 247 588 156 670 186 b 825 483 794 308 825 387 l 825 486 b 732 724 825 582 794 662 b 488 817 670 786 588 817 l 296 817 l 296 156 "},"E":{"ha":931,"x_min":0,"x_max":0,"o":"m 211 0 b 150 25 187 0 167 8 b 125 86 133 42 125 62 l 125 886 b 150 947 125 910 133 931 b 211 972 167 964 187 972 l 776 972 b 831 950 798 972 816 965 b 853 896 845 935 853 917 b 831 842 853 875 845 856 b 776 819 816 827 798 819 l 296 819 l 296 567 l 714 567 b 768 544 735 567 753 559 b 790 489 783 528 790 510 b 768 436 790 469 783 451 b 714 414 753 421 735 414 l 296 414 l 296 153 l 783 153 b 837 131 804 153 822 145 b 860 76 852 116 860 98 b 838 22 860 55 852 37 b 783 0 823 7 805 0 l 211 0 "},"F":{"ha":911,"x_min":0,"x_max":0,"o":"m 125 886 b 150 947 125 910 133 931 b 211 972 167 964 187 972 l 778 972 b 833 949 799 972 817 965 b 856 894 848 934 856 916 b 833 840 856 873 848 855 b 778 817 817 824 799 817 l 296 817 l 296 551 l 715 551 b 770 528 737 551 755 544 b 793 474 785 513 793 495 b 770 419 793 452 785 434 b 715 396 755 403 737 396 l 296 396 l 296 78 b 272 17 296 54 288 34 b 211 -7 255 1 235 -7 b 150 17 187 -7 167 1 b 125 78 133 34 125 54 "},"G":{"ha":1089,"x_min":0,"x_max":0,"o":"m 586 -17 b 222 126 436 -17 315 31 b 82 483 128 221 82 340 l 82 486 b 224 842 82 625 129 744 b 583 989 319 940 439 989 b 915 890 713 989 824 956 b 950 821 938 873 950 850 b 925 761 950 798 942 778 b 865 736 908 744 888 736 b 813 756 849 736 831 743 b 576 832 743 806 664 832 b 352 731 488 832 413 798 b 261 489 291 664 261 583 l 261 486 b 353 237 261 385 292 302 b 592 139 414 172 494 139 b 826 213 682 139 761 163 l 826 394 l 635 394 b 581 416 613 394 595 402 b 558 468 566 430 558 448 b 581 521 558 488 566 506 b 635 543 595 536 613 543 l 906 543 b 967 518 930 543 950 535 b 992 457 983 501 992 481 l 992 197 b 932 89 992 150 972 114 b 586 -17 826 19 711 -17 "},"H":{"ha":1056,"x_min":0,"x_max":0,"o":"m 125 894 b 150 955 125 919 133 939 b 211 979 167 971 187 979 b 272 955 235 979 255 971 b 296 894 288 939 296 919 l 296 568 l 760 568 l 760 894 b 784 955 760 919 768 939 b 844 979 800 971 820 979 b 906 955 869 979 889 971 b 931 894 922 939 931 919 l 931 78 b 906 17 931 54 922 34 b 844 -7 889 1 869 -7 b 784 17 820 -7 800 1 b 760 78 768 34 760 54 l 760 410 l 296 410 l 296 78 b 272 17 296 54 288 34 b 211 -7 255 1 235 -7 b 150 17 187 -7 167 1 b 125 78 133 34 125 54 "},"I":{"ha":440,"x_min":0,"x_max":0,"o":"m 135 894 b 160 955 135 919 143 939 b 221 979 176 971 197 979 b 281 955 244 979 264 971 b 306 894 297 939 306 919 l 306 78 b 281 17 306 54 297 34 b 221 -7 264 1 244 -7 b 160 17 197 -7 176 1 b 135 78 143 34 135 54 "},"J":{"ha":778,"x_min":0,"x_max":0,"o":"m 340 -14 b 75 93 235 -14 146 22 b 46 157 56 111 46 132 b 69 215 46 180 54 200 b 128 239 85 231 105 239 b 181 219 147 239 165 232 b 339 144 229 169 281 144 b 454 192 388 144 426 160 b 496 336 482 224 496 272 l 496 894 b 521 954 496 918 504 938 b 582 979 538 971 558 979 b 643 954 606 979 626 971 b 668 894 660 938 668 918 l 668 331 b 576 72 668 219 638 133 b 340 -14 519 15 440 -14 "},"K":{"ha":990,"x_min":0,"x_max":0,"o":"m 125 894 b 150 955 125 919 133 939 b 211 979 167 971 187 979 b 272 955 235 979 255 971 b 296 894 288 939 296 919 l 296 483 l 757 947 b 828 979 776 969 800 979 b 885 956 851 979 870 971 b 907 900 900 940 907 921 b 876 836 907 876 897 855 l 574 544 l 901 138 b 925 76 917 117 925 97 b 900 17 925 53 917 34 b 839 -7 883 1 863 -7 b 767 33 811 -7 787 6 l 454 432 l 296 279 l 296 78 b 272 17 296 54 288 34 b 211 -7 255 1 235 -7 b 150 17 187 -7 167 1 b 125 78 133 34 125 54 "},"L":{"ha":860,"x_min":0,"x_max":0,"o":"m 125 894 b 150 955 125 919 133 939 b 211 979 167 971 187 979 b 272 955 235 979 255 971 b 296 894 288 939 296 919 l 296 156 l 736 156 b 791 133 757 156 776 148 b 814 78 806 117 814 99 b 791 23 814 56 806 38 b 736 0 776 8 757 0 l 211 0 b 150 25 187 0 167 8 b 125 86 133 42 125 62 "},"M":{"ha":1206,"x_min":0,"x_max":0,"o":"m 125 892 b 150 953 125 916 133 936 b 211 978 167 969 187 978 l 229 978 b 308 932 263 978 289 963 l 603 471 l 899 933 b 976 978 917 963 943 978 l 994 978 b 1056 953 1019 978 1039 969 b 1081 892 1072 936 1081 916 l 1081 78 b 1056 17 1081 54 1072 34 b 994 -7 1039 1 1019 -7 b 935 18 971 -7 951 1 b 910 78 918 35 910 55 l 910 661 l 672 304 b 600 260 653 275 629 260 b 529 304 572 260 549 275 l 293 658 l 293 76 b 269 17 293 53 285 34 b 208 -7 253 1 232 -7 b 149 17 184 -7 164 1 b 125 76 133 34 125 53 "},"N":{"ha":1097,"x_min":0,"x_max":0,"o":"m 125 892 b 150 953 125 916 133 936 b 211 978 167 969 187 978 l 229 978 b 318 928 262 978 291 961 l 804 299 l 804 896 b 828 955 804 919 812 939 b 888 979 845 971 864 979 b 947 955 911 979 931 971 b 972 896 964 939 972 919 l 972 79 b 948 19 972 55 964 35 b 889 -6 932 3 912 -6 l 882 -6 b 793 46 850 -6 820 12 l 293 693 l 293 76 b 269 17 293 53 285 34 b 210 -7 253 1 233 -7 b 150 17 187 -7 167 1 b 125 76 133 34 125 53 "},"O":{"ha":1181,"x_min":0,"x_max":0,"o":"m 589 -17 b 225 129 442 -17 320 32 b 82 483 130 226 82 344 l 82 486 b 226 842 82 625 130 744 b 592 989 323 940 444 989 b 956 843 739 989 860 940 b 1099 489 1051 746 1099 628 l 1099 486 b 954 131 1099 347 1050 229 b 589 -17 858 32 736 -17 m 592 142 b 827 240 687 142 766 175 b 919 483 889 306 919 387 l 919 486 b 826 731 919 582 888 664 b 589 832 763 798 684 832 b 353 733 494 832 415 799 b 261 489 292 666 261 585 l 261 486 b 355 242 261 390 292 308 b 592 142 417 175 496 142 "},"P":{"ha":928,"x_min":0,"x_max":0,"o":"m 125 886 b 150 947 125 910 133 931 b 211 972 167 964 187 972 l 508 972 b 778 883 621 972 711 943 b 878 647 844 824 878 745 l 878 644 b 767 400 878 540 841 458 b 489 313 694 342 601 313 l 296 313 l 296 78 b 272 17 296 54 288 34 b 211 -7 255 1 235 -7 b 150 17 187 -7 167 1 b 125 78 133 34 125 54 m 494 467 b 647 515 558 467 609 483 b 704 640 685 548 704 589 l 704 643 b 648 772 704 699 685 741 b 494 817 610 802 559 817 l 296 817 l 296 467 "},"Q":{"ha":1181,"x_min":0,"x_max":0,"o":"m 589 -17 b 225 129 442 -17 320 32 b 82 483 130 226 82 344 l 82 486 b 226 842 82 625 130 744 b 592 989 323 940 444 989 b 956 843 739 989 860 940 b 1099 489 1051 746 1099 628 l 1099 486 b 1000 188 1099 376 1066 276 l 1063 136 b 1094 69 1084 118 1094 95 b 1071 12 1094 47 1087 28 b 1014 -12 1055 -4 1036 -12 b 954 13 991 -12 971 -4 l 885 75 b 589 -17 799 14 700 -17 m 639 289 b 607 356 618 307 607 330 b 631 413 607 378 615 397 b 688 438 646 429 665 438 b 747 413 708 438 728 429 l 872 299 b 919 483 904 353 919 415 l 919 486 b 826 731 919 582 888 664 b 589 832 763 798 684 832 b 353 733 494 832 415 799 b 261 489 292 666 261 585 l 261 486 b 355 242 261 390 292 308 b 592 142 417 175 496 142 b 760 186 654 142 710 156 l 639 289 "},"R":{"ha":1004,"x_min":0,"x_max":0,"o":"m 125 886 b 150 947 125 910 133 931 b 211 972 167 964 187 972 l 558 972 b 839 875 679 972 772 940 b 919 665 893 819 919 750 l 919 663 b 860 477 919 588 900 526 b 699 372 821 428 767 394 l 885 138 b 913 72 903 114 913 93 b 888 15 913 49 904 30 b 831 -7 871 0 852 -7 b 747 38 797 -7 769 8 l 511 339 l 296 339 l 296 78 b 272 17 296 54 288 34 b 211 -7 255 1 235 -7 b 150 17 187 -7 167 1 b 125 78 133 34 125 54 m 546 490 b 692 535 607 490 656 505 b 746 653 728 564 746 604 l 746 656 b 693 775 746 707 728 747 b 544 817 658 803 608 817 l 296 817 l 296 490 "},"S":{"ha":889,"x_min":0,"x_max":0,"o":"m 465 -14 b 100 108 331 -14 209 27 b 67 174 78 124 67 146 b 90 230 67 196 75 215 b 147 253 106 245 125 253 b 197 238 167 253 183 248 b 469 138 281 171 372 138 b 595 172 522 138 564 149 b 642 260 626 194 642 224 l 642 263 b 597 349 642 299 627 327 b 422 411 568 370 509 391 b 283 453 367 425 320 439 b 183 507 246 467 213 485 b 119 588 154 529 132 556 b 99 701 105 620 99 658 l 99 704 b 192 908 99 788 130 855 b 431 986 254 960 333 986 b 739 896 545 986 648 956 b 776 828 764 882 776 859 b 753 772 776 806 769 787 b 696 749 737 756 718 749 b 651 761 680 749 665 753 b 428 835 575 810 501 835 b 313 802 380 835 341 824 b 269 719 284 780 269 753 l 269 717 b 316 628 269 679 285 649 b 501 564 347 608 409 586 b 738 460 609 538 688 503 b 813 279 788 417 813 357 l 813 276 b 717 64 813 187 781 116 b 465 -14 653 12 569 -14 "},"T":{"ha":900,"x_min":0,"x_max":0,"o":"m 364 814 l 128 814 b 72 838 106 814 87 822 b 49 893 56 853 49 872 b 72 949 49 914 56 933 b 128 972 87 964 106 972 l 774 972 b 828 949 795 972 813 964 b 851 893 844 933 851 914 b 828 838 851 872 844 853 b 774 814 813 822 795 814 l 536 814 l 536 78 b 511 18 536 55 528 35 b 450 -7 494 1 474 -7 b 389 18 426 -7 406 1 b 364 78 372 35 364 55 "},"U":{"ha":1051,"x_min":0,"x_max":0,"o":"m 524 -15 b 220 94 395 -15 294 21 b 110 413 147 168 110 274 l 110 894 b 135 955 110 919 118 939 b 196 979 151 971 172 979 b 256 955 219 979 239 971 b 281 894 272 939 281 919 l 281 419 b 345 215 281 331 302 262 b 526 143 388 167 449 143 b 706 212 603 143 663 166 b 771 413 749 258 771 325 l 771 894 b 796 955 771 919 779 939 b 857 979 813 971 833 979 b 917 955 880 979 900 971 b 942 894 933 939 942 919 l 942 421 b 831 97 942 279 905 171 b 524 -15 756 22 654 -15 "},"V":{"ha":1018,"x_min":0,"x_max":0,"o":"m 504 -14 b 407 56 459 -14 426 9 l 67 856 b 57 896 60 870 57 884 b 82 955 57 919 65 939 b 143 979 99 971 119 979 b 231 918 186 979 215 959 l 511 217 l 796 924 b 826 963 801 939 812 953 b 878 979 841 974 858 979 b 938 956 902 979 922 971 b 963 897 954 940 963 920 b 954 861 963 886 960 874 l 613 56 b 514 -14 593 9 560 -14 l 504 -14 "},"W":{"ha":1526,"x_min":0,"x_max":0,"o":"m 65 863 b 58 896 61 874 58 885 b 84 955 58 919 67 939 b 146 979 101 971 122 979 b 199 962 166 979 184 973 b 231 917 215 950 225 935 l 454 249 l 674 914 b 760 982 689 959 718 982 l 772 982 b 858 914 816 982 844 959 l 1078 249 l 1301 918 b 1385 979 1316 959 1344 979 b 1444 956 1408 979 1428 971 b 1469 897 1461 940 1469 920 b 1461 863 1469 887 1467 875 l 1174 57 b 1085 -14 1157 10 1127 -14 l 1068 -14 b 981 57 1026 -14 997 10 l 764 692 l 547 57 b 458 -14 531 10 501 -14 l 442 -14 b 353 57 400 -14 370 10 "},"X":{"ha":992,"x_min":0,"x_max":0,"o":"m 75 72 b 100 136 75 92 83 113 l 389 494 l 117 832 b 90 896 99 855 90 876 b 115 956 90 920 98 940 b 175 979 131 971 151 979 b 253 938 206 979 232 965 l 499 614 l 742 932 b 825 979 765 963 793 979 b 879 957 845 979 863 972 b 903 901 895 942 903 924 b 876 836 903 880 894 858 l 604 497 l 890 140 b 917 76 908 117 917 96 b 892 17 917 52 909 32 b 832 -7 876 1 856 -7 b 754 35 801 -7 775 7 l 493 375 l 236 40 b 153 -7 212 9 184 -7 b 99 15 132 -7 114 0 b 75 72 83 30 75 49 "},"Y":{"ha":967,"x_min":0,"x_max":0,"o":"m 399 378 l 64 838 b 44 897 51 857 44 877 b 69 956 44 920 53 940 b 131 979 86 971 106 979 b 214 928 163 979 191 962 l 485 538 l 760 929 b 842 981 783 963 810 981 b 901 956 866 981 886 972 b 925 897 917 940 925 920 b 901 836 925 878 917 857 l 569 382 l 569 78 b 544 17 569 54 561 34 b 483 -7 528 1 507 -7 b 423 17 459 -7 439 1 b 399 78 407 34 399 54 "},"Z":{"ha":975,"x_min":0,"x_max":0,"o":"m 161 0 b 108 22 141 0 123 7 b 85 75 92 37 85 55 l 85 79 b 117 158 85 108 95 134 l 664 821 l 176 821 b 124 843 156 821 138 828 b 101 896 109 858 101 875 b 124 949 101 916 109 934 b 176 972 138 965 156 972 l 815 972 b 869 950 836 972 853 965 b 892 897 884 935 892 918 l 892 893 b 861 814 892 866 881 840 l 313 151 l 818 151 b 872 128 839 151 857 144 b 894 75 887 113 894 95 b 872 22 894 55 887 37 b 818 0 857 7 839 0 l 161 0 "},"[":{"ha":632,"x_min":0,"x_max":0,"o":"m 122 889 b 146 948 122 912 130 932 b 204 972 162 964 181 972 l 490 972 b 537 953 508 972 523 966 b 557 906 550 940 557 924 b 538 860 557 888 550 873 b 490 840 525 847 509 840 l 283 840 l 283 -49 l 490 -49 b 538 -68 509 -49 525 -55 b 557 -114 550 -81 557 -96 b 537 -161 557 -132 550 -148 b 490 -181 523 -174 508 -181 l 204 -181 b 146 -156 181 -181 162 -172 b 122 -97 130 -140 122 -120 "},"\\":{"ha":724,"x_min":0,"x_max":0,"o":"m 724 -121 b 704 -166 724 -138 717 -153 b 657 -185 691 -178 675 -185 b 597 -146 630 -185 610 -172 l 28 1018 b 21 1051 23 1032 21 1043 b 40 1097 21 1069 27 1084 b 86 1115 53 1109 69 1115 b 147 1076 114 1115 134 1102 l 715 -87 b 724 -121 721 -99 724 -110 "},"]":{"ha":632,"x_min":0,"x_max":0,"o":"m 510 -97 b 485 -156 510 -120 502 -140 b 426 -181 469 -172 450 -181 l 140 -181 b 94 -161 123 -181 107 -174 b 75 -114 81 -148 75 -132 b 94 -67 75 -95 81 -80 b 140 -49 107 -55 123 -49 l 349 -49 l 349 840 l 140 840 b 94 859 123 840 107 847 b 75 906 81 872 75 887 b 94 953 75 924 81 940 b 140 972 107 966 123 972 l 426 972 b 485 948 450 972 469 964 b 510 889 502 932 510 912 "},"^":{"ha":694,"x_min":0,"x_max":0,"o":"m 246 739 b 197 690 227 715 211 699 b 146 678 183 682 166 678 b 107 706 120 678 107 687 b 124 747 107 719 113 732 l 256 928 b 340 978 279 961 307 978 l 353 978 b 439 928 385 978 414 961 l 571 747 b 586 706 581 731 586 718 b 547 678 586 687 573 678 b 494 690 526 678 508 682 b 446 739 481 699 464 715 l 346 868 "},"_":{"ha":833,"x_min":0,"x_max":0,"o":"m -3 -222 b -49 -203 -21 -222 -37 -216 b -68 -157 -62 -190 -68 -175 b -49 -111 -68 -139 -62 -124 b -3 -92 -37 -98 -21 -92 l 836 -92 b 883 -111 855 -92 870 -98 b 901 -157 895 -124 901 -139 b 883 -203 901 -175 895 -190 b 836 -222 870 -216 855 -222 l -3 -222 "},"`":{"ha":694,"x_min":0,"x_max":0,"o":"m 407 819 b 310 857 368 819 336 832 l 215 946 b 192 988 200 960 192 974 b 224 1024 192 1000 203 1013 b 292 1042 246 1036 269 1042 b 358 1001 319 1042 342 1028 l 438 879 b 450 849 446 867 450 857 b 407 819 450 829 436 819 "},"a":{"ha":815,"x_min":0,"x_max":0,"o":"m 317 -15 b 133 45 244 -15 183 5 b 57 211 82 85 57 141 l 57 214 b 139 390 57 291 84 349 b 360 450 194 430 267 450 b 557 419 427 450 493 440 l 557 438 b 510 556 557 489 541 529 b 375 597 479 584 434 597 b 213 568 316 597 262 588 b 186 564 203 565 194 564 b 136 584 167 564 150 571 b 115 633 122 597 115 614 b 161 700 115 666 131 688 b 397 743 237 729 316 743 b 640 661 506 743 588 716 b 719 435 693 609 719 534 l 719 74 b 696 16 719 50 712 31 b 638 -7 680 1 661 -7 b 578 14 613 -7 594 0 b 556 64 563 28 556 44 l 556 92 b 317 -15 496 20 417 -15 m 364 107 b 504 151 420 107 467 122 b 560 264 541 180 560 218 l 560 314 b 393 343 510 333 454 343 b 267 310 339 343 297 332 b 221 221 236 289 221 259 l 221 218 b 261 137 221 184 234 157 b 364 107 288 117 322 107 "},"b":{"ha":932,"x_min":0,"x_max":0,"o":"m 106 938 b 129 997 106 961 113 980 b 189 1021 145 1013 165 1021 b 249 997 213 1021 233 1013 b 274 938 266 980 274 961 l 274 611 b 524 749 338 703 422 749 b 763 646 615 749 695 714 b 864 368 830 577 864 485 l 864 365 b 763 88 864 250 830 157 b 524 -15 696 19 616 -15 b 274 114 422 -15 338 28 l 274 76 b 249 17 274 53 265 34 b 189 -7 232 1 212 -7 b 130 17 166 -7 146 1 b 106 76 114 34 106 53 m 483 131 b 633 195 543 131 592 152 b 693 365 673 238 693 295 l 693 368 b 632 538 693 438 673 494 b 483 603 591 581 542 603 b 333 537 425 603 375 581 b 269 368 291 493 269 437 l 269 365 b 333 197 269 297 291 241 b 483 131 375 153 425 131 "},"c":{"ha":793,"x_min":0,"x_max":0,"o":"m 444 -17 b 174 94 336 -17 246 20 b 65 363 101 167 65 257 l 65 365 b 174 636 65 471 102 561 b 447 749 247 711 338 749 b 704 657 548 749 634 718 b 731 599 722 641 731 622 b 708 544 731 577 723 559 b 653 522 692 530 674 522 b 603 539 634 522 618 528 b 446 601 553 581 500 601 b 294 533 386 601 335 579 b 233 368 254 488 233 433 l 233 365 b 295 199 233 300 254 244 b 453 131 336 153 389 131 b 617 196 511 131 566 152 b 663 214 631 208 646 214 b 714 192 683 214 700 207 b 735 140 728 178 735 161 b 711 88 735 118 727 100 b 444 -17 639 18 550 -17 "},"d":{"ha":932,"x_min":0,"x_max":0,"o":"m 826 76 b 802 17 826 53 818 34 b 743 -7 786 1 766 -7 b 683 17 719 -7 699 1 b 658 76 666 34 658 53 l 658 122 b 408 -15 594 31 510 -15 b 169 88 317 -15 237 19 b 68 365 102 157 68 250 l 68 368 b 169 646 68 485 102 577 b 408 749 236 714 316 749 b 658 619 509 749 593 706 l 658 938 b 683 997 658 961 666 980 b 742 1021 699 1013 719 1021 b 802 997 766 1021 786 1013 b 826 938 818 980 826 961 m 449 603 b 299 539 389 603 339 581 b 238 368 258 496 238 439 l 238 365 b 299 196 238 296 258 239 b 449 131 341 152 390 131 b 599 197 507 131 557 153 b 661 365 640 241 661 297 l 661 368 b 599 537 661 437 640 493 b 449 603 557 581 507 603 "},"e":{"ha":839,"x_min":0,"x_max":0,"o":"m 608 418 b 551 557 603 475 584 521 b 422 611 519 593 476 611 b 294 558 371 611 329 593 b 232 418 260 522 239 475 m 706 81 b 442 -17 633 16 545 -17 b 173 90 334 -17 245 19 b 65 364 101 160 65 252 l 65 367 b 167 638 65 473 99 563 b 424 749 234 712 320 749 b 617 692 498 749 562 730 b 735 556 671 655 711 609 b 772 388 760 503 772 447 b 749 330 772 364 765 345 b 693 307 734 315 715 307 l 233 307 b 304 170 243 249 266 203 b 444 121 342 137 389 121 b 618 185 508 121 566 142 b 661 200 631 195 645 200 b 708 181 680 200 695 194 b 728 132 721 168 728 151 b 706 81 728 113 720 95 "},"f":{"ha":522,"x_min":0,"x_max":0,"o":"m 143 589 l 114 589 b 64 609 94 589 78 596 b 43 658 50 622 43 639 b 64 708 43 678 50 694 b 114 729 78 722 94 729 l 143 729 l 143 783 b 203 964 143 864 163 924 b 368 1022 242 1003 297 1022 b 453 1015 399 1022 427 1020 b 494 993 469 1013 482 1006 b 511 946 505 980 511 964 b 490 896 511 926 504 910 b 440 876 476 882 460 875 b 406 879 427 878 416 879 b 308 768 341 879 308 842 l 308 728 l 439 728 b 490 708 459 728 476 721 b 510 658 503 694 510 678 b 489 609 510 639 503 622 b 439 589 475 596 458 589 l 311 589 l 311 76 b 286 17 311 53 303 34 b 226 -7 269 1 250 -7 b 167 17 203 -7 184 1 b 143 76 151 34 143 53 "},"g":{"ha":932,"x_min":0,"x_max":0,"o":"m 432 -225 b 149 -160 333 -225 238 -203 b 101 -93 117 -148 101 -125 b 122 -44 101 -75 108 -58 b 172 -24 136 -31 153 -24 b 203 -31 183 -24 194 -26 b 428 -89 272 -69 347 -89 b 600 -31 503 -89 560 -70 b 660 136 640 7 660 63 l 660 193 b 401 58 590 103 504 58 b 167 152 311 58 232 90 b 68 401 101 215 68 298 l 68 404 b 167 654 68 508 101 591 b 401 749 234 717 312 749 b 658 624 503 749 589 707 l 658 658 b 683 717 658 681 666 701 b 742 742 699 734 719 742 b 802 717 766 742 786 733 b 826 657 818 700 826 680 l 826 150 b 733 -126 826 28 795 -64 b 432 -225 668 -192 567 -225 m 446 201 b 598 258 505 201 556 220 b 661 403 640 296 661 344 l 661 406 b 598 550 661 464 640 512 b 446 607 556 588 505 607 b 297 551 387 607 337 588 b 238 406 257 513 238 465 l 238 403 b 298 258 238 344 258 295 b 446 201 338 220 388 201 "},"h":{"ha":861,"x_min":0,"x_max":0,"o":"m 106 938 b 130 997 106 961 114 980 b 189 1021 146 1013 166 1021 b 249 997 212 1021 232 1013 b 274 938 265 980 274 961 l 274 621 b 503 749 333 706 409 749 b 694 673 584 749 648 723 b 764 468 741 622 764 554 l 764 76 b 740 17 764 53 756 34 b 681 -7 725 1 705 -7 b 620 17 656 -7 636 1 b 596 76 604 34 596 53 l 596 417 b 555 549 596 474 582 518 b 439 596 528 580 489 596 b 319 547 390 596 350 580 b 274 414 289 515 274 470 l 274 76 b 249 17 274 53 266 34 b 189 -7 233 1 213 -7 b 130 17 166 -7 146 1 b 106 76 114 34 106 53 "},"i":{"ha":397,"x_min":0,"x_max":0,"o":"m 103 931 b 130 990 103 956 112 975 b 199 1013 148 1005 171 1013 b 267 990 226 1013 249 1005 b 294 931 285 975 294 956 l 294 922 b 267 862 294 897 285 877 b 199 839 249 847 226 839 b 130 862 171 839 148 847 b 103 922 112 877 103 897 m 115 657 b 140 717 115 681 123 701 b 199 742 156 734 175 742 b 258 717 222 742 242 733 b 283 657 275 700 283 680 l 283 76 b 259 17 283 53 275 34 b 199 -7 243 1 223 -7 b 140 17 175 -7 156 1 b 115 76 123 34 115 53 "},"j":{"ha":397,"x_min":0,"x_max":0,"o":"m 68 -226 b -24 -157 7 -225 -24 -201 b -4 -107 -24 -137 -17 -120 b 43 -87 9 -94 25 -87 b 49 -89 44 -87 46 -88 l 53 -89 b 115 -10 94 -89 115 -62 l 115 657 b 140 717 115 681 123 701 b 199 742 156 734 175 742 b 258 717 222 742 242 733 b 283 657 275 700 283 680 l 283 -10 b 230 -172 283 -82 266 -136 b 81 -226 194 -208 144 -226 m 103 931 b 130 990 103 956 112 975 b 199 1013 148 1005 171 1013 b 267 990 226 1013 249 1005 b 294 931 285 975 294 956 l 294 922 b 267 862 294 897 285 877 b 199 839 249 847 226 839 b 130 862 171 839 148 847 b 103 922 112 877 103 897 "},"k":{"ha":806,"x_min":0,"x_max":0,"o":"m 106 938 b 130 997 106 961 114 980 b 189 1021 146 1013 166 1021 b 249 997 212 1021 232 1013 b 274 938 265 980 274 961 l 274 396 l 589 706 b 661 742 613 730 637 742 b 714 719 682 742 700 734 b 735 665 728 705 735 687 b 697 594 735 641 722 618 l 503 415 l 725 125 b 747 69 740 105 747 86 b 724 15 747 47 740 29 b 668 -7 709 0 690 -7 b 594 31 638 -7 614 6 l 385 310 l 274 204 l 274 76 b 249 17 274 53 266 34 b 189 -7 233 1 213 -7 b 130 17 166 -7 146 1 b 106 76 114 34 106 53 "},"l":{"ha":397,"x_min":0,"x_max":0,"o":"m 115 938 b 140 997 115 961 123 980 b 199 1021 156 1013 175 1021 b 258 997 222 1021 242 1013 b 283 938 275 980 283 961 l 283 76 b 259 17 283 53 275 34 b 199 -7 243 1 223 -7 b 140 17 175 -7 156 1 b 115 76 123 34 115 53 "},"m":{"ha":1319,"x_min":0,"x_max":0,"o":"m 106 657 b 130 717 106 681 114 701 b 189 742 146 734 166 742 b 249 717 213 742 233 733 b 274 657 266 700 274 680 l 274 622 b 497 749 335 706 409 749 b 717 619 601 749 674 706 b 964 749 781 706 864 749 b 1153 675 1044 749 1107 724 b 1221 468 1198 626 1221 557 l 1221 76 b 1197 17 1221 53 1213 34 b 1138 -7 1180 1 1161 -7 b 1077 17 1113 -7 1093 1 b 1053 76 1061 34 1053 53 l 1053 417 b 1014 550 1053 475 1040 519 b 904 596 988 581 951 596 b 790 548 857 596 819 580 b 747 414 762 516 747 471 l 747 76 b 723 17 747 53 739 34 b 664 -7 707 1 687 -7 b 603 17 640 -7 620 1 b 579 76 587 34 579 53 l 579 418 b 540 549 579 475 566 518 b 431 596 514 580 478 596 b 317 547 383 596 345 579 b 274 414 288 514 274 469 l 274 76 b 249 17 274 53 266 34 b 189 -7 233 1 213 -7 b 130 17 166 -7 146 1 b 106 76 114 34 106 53 "},"n":{"ha":861,"x_min":0,"x_max":0,"o":"m 106 657 b 130 717 106 681 114 701 b 189 742 146 734 166 742 b 249 717 213 742 233 733 b 274 657 266 700 274 680 l 274 621 b 503 749 333 706 409 749 b 694 673 584 749 648 723 b 764 468 741 622 764 554 l 764 76 b 740 17 764 53 756 34 b 681 -7 725 1 705 -7 b 620 17 656 -7 636 1 b 596 76 604 34 596 53 l 596 417 b 555 549 596 474 582 518 b 439 596 528 580 489 596 b 319 547 390 596 350 580 b 274 414 289 515 274 470 l 274 76 b 249 17 274 53 266 34 b 189 -7 233 1 213 -7 b 130 17 166 -7 146 1 b 106 76 114 34 106 53 "},"o":{"ha":913,"x_min":0,"x_max":0,"o":"m 454 -17 b 176 94 343 -17 250 20 b 65 363 102 167 65 257 l 65 365 b 178 637 65 472 103 562 b 457 749 253 711 346 749 b 735 638 568 749 661 712 b 847 368 810 563 847 474 l 847 365 b 735 95 847 260 810 170 b 454 -17 660 21 566 -17 m 457 131 b 618 198 524 131 577 153 b 679 363 659 243 679 298 l 679 365 b 615 533 679 431 658 487 b 454 601 573 578 519 601 b 294 534 388 601 335 579 b 233 368 254 489 233 434 l 233 365 b 297 199 233 300 255 245 b 457 131 340 153 393 131 "},"p":{"ha":932,"x_min":0,"x_max":0,"o":"m 106 657 b 130 717 106 681 114 701 b 189 742 146 734 166 742 b 249 717 213 742 233 733 b 274 657 266 700 274 680 l 274 611 b 524 749 338 703 422 749 b 763 646 615 749 695 714 b 864 368 830 577 864 485 l 864 365 b 763 88 864 250 830 157 b 524 -15 696 19 616 -15 b 274 114 422 -15 338 28 l 274 -146 b 249 -205 274 -169 266 -189 b 189 -229 233 -221 213 -229 b 130 -205 166 -229 146 -221 b 106 -146 114 -189 106 -169 m 483 131 b 633 195 543 131 592 152 b 693 365 673 238 693 295 l 693 368 b 632 538 693 438 673 494 b 483 603 591 581 542 603 b 333 537 425 603 375 581 b 269 368 291 493 269 437 l 269 365 b 333 197 269 297 291 241 b 483 131 375 153 425 131 "},"q":{"ha":932,"x_min":0,"x_max":0,"o":"m 826 -146 b 802 -205 826 -169 818 -189 b 743 -229 786 -221 766 -229 b 683 -205 719 -229 699 -221 b 658 -146 666 -189 658 -169 l 658 122 b 408 -15 594 31 510 -15 b 169 88 317 -15 237 19 b 68 365 102 157 68 250 l 68 368 b 169 646 68 485 102 577 b 408 749 236 714 316 749 b 658 619 509 749 593 706 l 658 658 b 683 717 658 681 666 701 b 742 742 699 734 719 742 b 802 717 766 742 786 733 b 826 657 818 700 826 680 m 449 603 b 299 539 389 603 339 581 b 238 368 258 496 238 439 l 238 365 b 299 196 238 296 258 239 b 449 131 341 152 390 131 b 599 197 507 131 557 153 b 661 365 640 241 661 297 l 661 368 b 599 537 661 437 640 493 b 449 603 557 581 507 603 "},"r":{"ha":574,"x_min":0,"x_max":0,"o":"m 106 657 b 130 717 106 681 114 701 b 189 742 146 734 166 742 b 249 717 213 742 233 733 b 274 657 266 700 274 680 l 274 582 b 354 698 294 629 321 668 b 458 743 388 728 422 743 b 519 720 484 743 505 735 b 542 660 534 705 542 685 b 523 606 542 638 535 621 b 475 579 510 592 494 583 b 328 491 413 568 364 539 b 274 293 292 443 274 377 l 274 76 b 249 17 274 53 265 34 b 189 -7 232 1 212 -7 b 130 17 166 -7 146 1 b 106 76 114 34 106 53 "},"s":{"ha":696,"x_min":0,"x_max":0,"o":"m 357 -14 b 78 74 256 -14 163 15 b 46 132 56 85 46 104 b 65 180 46 150 52 166 b 114 200 78 193 94 200 b 150 190 127 200 139 197 b 361 119 220 143 291 119 b 445 141 397 119 425 127 b 475 199 465 155 475 175 l 475 201 b 328 299 475 237 426 269 b 311 304 320 301 315 303 b 228 332 278 313 250 323 b 157 370 206 341 182 354 b 101 432 132 386 113 407 b 82 519 88 457 82 486 l 82 522 b 156 685 82 590 107 644 b 343 746 206 725 268 746 b 574 686 422 746 499 726 b 614 622 600 672 614 651 b 594 574 614 603 607 587 b 544 554 580 561 564 554 b 511 563 533 554 522 557 b 339 613 446 596 389 613 b 264 592 307 613 282 606 b 236 540 245 579 236 562 l 236 538 b 274 483 236 514 249 496 b 388 438 299 469 337 454 b 401 433 394 436 399 434 b 483 403 434 423 461 413 b 553 364 506 394 529 381 b 610 303 578 347 597 327 b 629 219 623 279 629 251 l 629 217 b 553 46 629 143 604 86 b 357 -14 502 6 437 -14 "},"t":{"ha":571,"x_min":0,"x_max":0,"o":"m 351 -12 b 140 203 211 -12 140 59 l 140 589 l 113 589 b 61 610 92 589 75 596 b 40 661 47 624 40 641 b 61 713 40 681 47 699 b 113 733 75 726 92 733 l 140 733 l 140 858 b 165 917 140 881 149 901 b 225 942 182 934 202 942 b 284 917 248 942 268 934 b 308 858 300 901 308 881 l 308 733 l 440 733 b 492 713 461 733 478 726 b 514 661 507 699 514 681 b 492 610 514 641 507 624 b 440 589 478 596 461 589 l 308 589 l 308 229 b 399 138 308 168 338 138 b 424 140 406 138 415 138 b 440 142 434 141 439 142 b 490 122 460 142 476 135 b 511 72 504 108 511 92 b 467 7 511 41 496 19 b 351 -12 430 -6 391 -12 "},"u":{"ha":861,"x_min":0,"x_max":0,"o":"m 757 76 b 732 17 757 53 749 34 b 672 -7 715 1 695 -7 b 613 17 649 -7 629 1 b 588 76 596 34 588 53 l 588 114 b 358 -15 529 28 453 -15 b 167 61 277 -15 213 10 b 97 267 120 112 97 181 l 97 657 b 122 717 97 680 105 700 b 181 742 138 733 157 742 b 241 717 205 742 225 733 b 265 657 257 700 265 680 l 265 317 b 306 185 265 260 279 216 b 422 139 334 154 372 139 b 542 187 471 139 511 155 b 588 319 572 219 588 263 l 588 657 b 612 717 588 680 596 700 b 672 742 628 733 648 742 b 732 717 695 742 715 733 b 757 657 749 700 757 680 "},"v":{"ha":814,"x_min":0,"x_max":0,"o":"m 507 60 b 411 -14 485 11 453 -14 l 403 -14 b 307 60 360 -14 328 11 l 63 619 b 53 661 56 639 53 653 b 78 717 53 682 61 701 b 136 742 94 734 114 742 b 219 681 175 742 203 721 l 408 194 l 600 683 b 679 742 617 722 643 742 b 738 719 702 742 722 734 b 761 661 753 703 761 684 b 751 621 761 647 758 634 l 507 60 "},"w":{"ha":1185,"x_min":0,"x_max":0,"o":"m 351 -12 b 258 63 306 -12 275 13 l 61 621 b 53 664 56 636 53 650 b 76 719 53 685 60 703 b 135 742 91 734 111 742 b 217 675 175 742 203 719 l 358 231 l 501 675 b 588 742 515 719 544 742 l 597 742 b 683 675 641 742 669 719 l 828 231 l 971 676 b 1053 742 984 720 1011 742 b 1109 719 1075 742 1094 734 b 1132 664 1124 703 1132 685 b 1125 626 1132 653 1130 640 l 925 63 b 832 -12 907 13 876 -12 l 826 -12 b 735 60 780 -12 750 12 l 592 496 l 447 60 b 357 -12 432 12 402 -12 l 351 -12 "},"x":{"ha":796,"x_min":0,"x_max":0,"o":"m 67 64 b 90 122 67 85 75 105 l 299 372 l 106 601 b 78 665 87 625 78 646 b 101 722 78 688 85 707 b 156 743 116 736 134 743 b 233 701 185 743 211 729 l 399 485 l 567 700 b 639 743 589 729 613 743 b 695 722 661 743 680 736 b 718 669 710 707 718 690 b 694 613 718 650 710 631 l 496 375 l 701 132 b 729 68 720 109 729 88 b 706 12 729 45 722 26 b 651 -10 691 -3 673 -10 b 574 33 621 -10 595 5 l 396 263 l 218 33 b 144 -10 194 5 169 -10 b 90 12 123 -10 105 -3 b 67 64 74 26 67 44 "},"y":{"ha":815,"x_min":0,"x_max":0,"o":"m 239 -226 b 122 -206 196 -226 157 -219 b 69 -136 87 -194 69 -170 b 90 -86 69 -116 76 -99 b 138 -67 103 -73 119 -67 b 168 -72 147 -67 157 -69 b 226 -82 191 -79 211 -82 b 287 -65 251 -82 272 -76 b 331 -4 302 -53 317 -33 l 336 11 l 64 619 b 54 660 57 634 54 648 b 78 718 54 683 62 702 b 138 742 94 734 113 742 b 219 678 175 742 203 720 l 417 190 l 600 678 b 681 742 617 720 644 742 b 738 719 703 742 722 734 b 761 663 753 703 761 685 b 754 622 761 650 759 636 l 486 -21 b 383 -180 455 -96 420 -149 b 239 -226 346 -211 298 -226 "},"z":{"ha":778,"x_min":0,"x_max":0,"o":"m 150 0 b 92 19 127 0 107 6 b 68 68 76 32 68 49 l 68 71 b 106 151 68 99 81 125 l 496 596 l 150 596 b 101 616 131 596 114 603 b 81 664 87 629 81 645 b 101 713 81 683 87 700 b 150 733 114 727 131 733 l 633 733 b 691 715 656 733 676 727 b 714 667 706 702 714 686 l 714 663 b 678 582 714 636 702 609 l 286 138 l 647 138 b 697 117 667 138 683 131 b 717 68 710 104 717 88 b 697 20 717 50 710 34 b 647 0 683 7 667 0 l 150 0 "},"{":{"ha":676,"x_min":0,"x_max":0,"o":"m 535 -187 b 322 -90 432 -165 361 -133 b 263 82 282 -48 263 10 b 264 131 263 88 263 105 b 265 182 265 156 265 174 b 235 294 265 233 255 270 b 135 332 214 319 181 331 b 83 352 113 333 95 340 b 64 399 70 365 64 380 b 83 445 64 417 70 433 b 135 465 95 458 113 464 b 235 503 182 467 216 480 b 265 617 255 527 265 565 b 264 668 265 625 265 642 b 263 717 263 694 263 710 b 322 888 263 788 282 845 b 535 985 361 930 432 963 b 589 975 556 989 574 986 b 611 928 604 964 611 948 b 572 871 611 898 598 879 b 447 804 508 851 467 829 b 418 692 428 779 418 742 b 419 641 418 682 419 666 b 421 589 420 616 421 599 b 385 467 421 537 409 496 b 276 399 361 437 325 414 b 385 331 325 383 362 360 b 421 208 409 301 421 260 b 419 156 421 198 420 181 b 418 106 419 132 418 115 b 447 -7 418 56 428 18 b 572 -74 467 -32 508 -54 b 611 -131 598 -82 611 -101 b 589 -178 611 -151 604 -167 b 535 -187 574 -189 556 -192 "},"|":{"ha":460,"x_min":0,"x_max":0,"o":"m 163 1049 b 182 1096 163 1067 169 1083 b 229 1115 195 1109 211 1115 b 277 1096 248 1115 264 1109 b 297 1049 291 1083 297 1067 l 297 -118 b 277 -165 297 -137 291 -152 b 229 -185 264 -178 248 -185 b 182 -165 211 -185 195 -178 b 163 -118 169 -152 163 -137 "},"}":{"ha":676,"x_min":0,"x_max":0,"o":"m 142 985 b 355 888 244 963 316 930 b 414 717 394 845 414 788 b 413 668 414 710 413 694 b 411 617 412 642 411 625 b 442 503 411 565 421 527 b 543 465 462 480 496 467 b 594 445 564 464 581 458 b 613 399 606 433 613 417 b 594 352 613 380 606 365 b 543 332 581 340 564 333 b 442 294 496 331 462 319 b 411 182 421 270 411 233 b 413 131 411 174 412 156 b 414 82 413 105 414 88 b 355 -90 414 10 394 -48 b 142 -187 316 -133 244 -165 b 88 -178 120 -192 102 -189 b 65 -131 73 -167 65 -151 b 106 -74 65 -101 79 -82 b 230 -7 169 -54 211 -32 b 258 106 249 18 258 56 b 257 156 258 115 258 132 b 256 208 256 181 256 198 b 292 331 256 260 268 301 b 400 399 316 360 352 383 b 291 467 351 414 315 437 b 256 589 267 496 256 537 b 257 641 256 599 256 616 b 258 692 258 666 258 682 b 230 804 258 742 249 779 b 106 871 211 829 169 851 b 65 928 79 879 65 898 b 88 975 65 948 73 964 b 142 985 102 986 120 989 "},"~":{"ha":688,"x_min":0,"x_max":0,"o":"m 186 343 b 142 315 176 325 161 315 b 106 329 128 315 116 320 b 90 363 95 338 90 350 b 96 393 90 375 92 386 b 151 488 112 436 130 467 b 238 519 173 509 201 519 b 347 492 265 519 302 510 b 436 465 393 474 422 465 b 501 508 464 465 486 480 b 546 538 512 528 526 538 b 582 523 560 538 572 533 b 597 490 592 513 597 502 b 592 458 597 477 595 467 b 536 363 576 416 557 384 b 450 332 515 342 486 332 b 340 360 422 332 386 341 b 251 388 295 378 265 388 b 186 343 224 388 202 373 "}," ":{"ha":417,"x_min":0,"x_max":0,"o":""},"¡":{"ha":419,"x_min":0,"x_max":0,"o":"m 310 56 b 298 13 312 39 308 25 b 260 -4 288 2 275 -4 l 160 -4 b 122 13 144 -4 131 2 b 111 56 113 25 109 39 l 160 622 b 175 658 161 637 166 649 b 210 672 184 668 196 672 b 245 658 224 672 235 668 b 261 622 255 649 260 637 m 308 871 b 281 801 308 843 299 820 b 210 774 262 783 238 774 b 140 801 182 774 159 783 b 111 871 121 820 111 843 l 111 883 b 140 951 111 910 121 933 b 210 979 159 970 182 979 b 281 951 238 979 262 970 b 308 883 299 933 308 910 l 308 871 "},"¢":{"ha":807,"x_min":0,"x_max":0,"o":"m 319 133 b 141 270 246 159 187 205 b 72 490 95 335 72 409 l 72 493 b 181 764 72 600 109 690 b 453 875 254 838 344 875 l 464 875 l 476 939 b 536 988 483 971 503 988 b 582 966 555 988 570 980 b 593 915 594 952 598 935 l 582 857 b 714 781 627 842 671 817 b 739 724 731 766 739 747 b 717 670 739 702 731 684 b 664 649 702 656 684 649 b 617 665 645 649 630 654 b 547 710 592 686 569 700 l 458 257 b 622 324 519 258 573 280 b 669 340 637 335 653 340 b 717 319 688 340 704 333 b 738 269 731 306 738 289 b 715 218 738 248 730 231 b 446 111 641 147 551 111 l 436 111 l 421 33 b 363 -15 414 1 395 -15 b 316 6 343 -15 328 -8 b 304 57 304 21 300 38 m 236 493 b 267 366 236 446 247 403 b 354 281 288 328 317 300 l 442 729 b 295 659 383 727 334 704 b 236 496 256 614 236 560 l 236 493 "},"£":{"ha":894,"x_min":0,"x_max":0,"o":"m 81 60 b 126 121 81 90 96 111 l 197 142 l 197 386 l 153 386 b 101 407 132 386 115 393 b 81 458 88 421 81 438 b 101 509 81 478 88 495 b 153 531 115 523 132 531 l 197 531 l 197 658 b 283 900 197 762 226 843 b 517 986 339 957 417 986 b 788 874 627 986 717 949 b 814 813 805 856 814 836 b 790 753 814 789 806 770 b 729 729 773 737 753 729 b 668 756 704 729 684 738 b 519 828 623 804 573 828 b 417 789 479 828 444 815 b 371 654 386 756 371 712 l 371 531 l 651 531 b 702 509 671 531 688 523 b 724 458 716 495 724 478 b 702 407 724 438 716 421 b 651 386 688 393 671 386 l 371 386 l 371 149 l 754 149 b 808 127 775 149 793 141 b 829 74 822 113 829 95 b 808 22 829 53 822 36 b 754 0 793 7 775 0 l 146 0 b 99 17 126 0 111 6 b 81 60 87 29 81 43 "},"¥":{"ha":953,"x_min":0,"x_max":0,"o":"m 558 265 l 772 265 b 815 247 789 265 803 259 b 833 203 827 235 833 220 b 815 160 833 186 827 172 b 772 142 803 148 789 142 l 558 142 l 558 75 b 535 17 558 52 550 32 b 476 -7 519 1 500 -7 b 418 17 453 -7 434 1 b 394 75 402 32 394 52 l 394 142 l 181 142 b 138 160 164 142 150 148 b 119 203 125 172 119 186 b 138 247 119 220 125 235 b 181 265 150 259 164 265 l 394 265 l 394 367 l 181 367 b 138 385 164 367 150 373 b 119 428 125 397 119 411 b 138 472 119 445 125 460 b 181 490 150 484 164 490 l 346 490 l 90 840 b 69 899 76 860 69 879 b 94 956 69 921 78 940 b 154 979 110 971 130 979 b 235 932 187 979 213 963 l 478 569 l 724 931 b 801 979 745 963 771 979 b 860 958 825 979 844 972 b 883 900 875 943 883 924 b 863 840 883 879 876 859 l 604 490 l 772 490 b 815 472 789 490 803 484 b 833 428 827 460 833 445 b 815 385 833 411 827 397 b 772 367 803 373 789 367 l 558 367 "},"§":{"ha":878,"x_min":0,"x_max":0,"o":"m 453 -14 b 164 86 340 -14 244 19 b 139 139 147 101 139 119 b 159 188 139 158 146 175 b 208 208 172 202 189 208 b 251 192 224 208 238 203 b 451 114 313 140 380 114 b 535 133 488 114 515 120 b 564 182 554 145 564 162 l 564 185 b 525 237 564 205 551 222 b 381 282 499 251 451 266 b 149 364 272 306 195 333 b 81 485 103 394 81 435 l 81 488 b 229 649 81 569 130 623 b 153 781 178 681 153 725 l 153 783 b 226 931 153 845 177 895 b 425 986 274 968 341 986 b 714 886 538 986 634 953 b 739 833 731 871 739 854 b 719 785 739 814 732 798 b 669 765 705 772 689 765 b 626 781 653 765 638 770 b 426 858 564 832 498 858 b 343 840 390 858 363 852 b 314 790 324 827 314 811 l 314 788 b 351 737 314 768 326 751 b 497 690 376 722 425 707 b 729 608 606 665 684 638 b 797 488 775 578 797 538 l 797 485 b 649 324 797 403 748 350 b 726 192 700 292 726 248 l 726 189 b 653 42 726 128 702 79 b 453 -14 604 5 537 -14 m 539 386 b 616 408 570 386 596 393 b 646 461 636 422 646 440 l 646 464 b 608 517 646 484 633 502 b 483 561 583 531 542 546 b 339 586 418 578 369 586 b 262 565 307 586 282 579 b 232 511 242 550 232 532 l 232 508 b 269 456 232 488 244 470 b 396 411 294 441 337 426 b 539 386 460 394 507 386 "},"¨":{"ha":694,"x_min":0,"x_max":0,"o":"m 486 1000 b 550 976 511 1000 532 992 b 576 914 568 959 576 939 l 576 904 b 550 843 576 879 568 859 b 486 819 532 827 511 819 b 421 843 460 819 438 827 b 394 904 403 859 394 879 l 394 914 b 421 976 394 939 403 959 b 486 1000 438 992 460 1000 m 210 1000 b 274 976 235 1000 256 992 b 300 914 291 959 300 939 l 300 904 b 274 843 300 879 291 859 b 210 819 256 827 235 819 b 144 843 184 819 162 827 b 118 904 127 859 118 879 l 118 914 b 144 976 118 939 127 959 b 210 1000 162 992 184 1000 "},"©":{"ha":1153,"x_min":0,"x_max":0,"o":"m 575 -17 b 219 130 435 -17 317 32 b 74 483 122 228 74 345 l 74 486 b 221 841 74 624 123 742 b 578 989 319 940 438 989 b 933 842 718 989 836 940 b 1079 489 1031 745 1079 627 l 1079 486 b 932 131 1079 348 1030 230 b 575 -17 834 33 715 -17 m 575 33 b 897 166 703 33 810 78 b 1026 486 983 254 1026 361 l 1026 489 b 897 808 1026 614 983 720 b 578 939 811 895 705 939 b 256 806 450 939 343 895 b 126 486 170 718 126 611 l 126 483 b 256 165 126 358 169 252 b 575 33 342 77 448 33 m 582 221 b 392 299 506 221 443 247 b 315 490 341 350 315 414 l 315 493 b 392 686 315 569 341 633 b 585 765 443 739 507 765 b 765 706 656 765 716 745 b 788 664 780 695 788 681 b 773 627 788 649 783 637 b 738 613 763 617 751 613 b 704 626 727 613 716 617 b 585 671 666 656 626 671 b 468 619 538 671 500 654 b 421 494 437 585 421 544 l 421 492 b 468 367 421 444 437 402 b 585 315 500 333 538 315 b 713 365 631 315 674 332 b 743 378 723 374 733 378 b 777 363 756 378 767 373 b 792 329 787 353 792 342 b 776 294 792 314 787 303 b 582 221 720 245 655 221 "},"ª":{"ha":542,"x_min":0,"x_max":0,"o":"m 221 560 b 119 593 180 560 146 571 b 78 685 91 615 78 646 l 78 688 b 124 783 78 729 93 761 b 244 817 154 806 194 817 b 350 801 278 817 313 812 l 350 808 b 253 893 350 865 318 893 b 172 878 226 893 199 888 b 151 874 164 875 157 874 b 122 885 139 874 129 878 b 110 914 114 893 110 903 b 136 953 110 933 119 946 b 265 976 176 969 219 976 b 400 931 325 976 370 961 b 443 807 429 903 443 862 l 443 607 b 428 575 443 595 438 584 b 394 561 419 566 407 561 b 363 574 382 561 372 565 b 349 604 353 582 349 592 l 349 615 b 221 560 316 578 274 560 m 107 392 b 78 403 96 392 86 396 b 67 432 71 411 67 421 b 78 460 67 443 71 453 b 107 472 86 468 96 472 l 415 472 b 444 460 426 472 436 468 b 457 432 453 453 457 443 b 444 403 457 421 453 411 b 415 392 436 396 426 392 l 107 392 m 246 631 b 320 654 275 631 300 638 b 350 714 340 670 350 690 l 350 739 b 263 754 321 749 292 754 b 197 738 235 754 213 749 b 174 692 181 726 174 711 l 174 689 b 194 647 174 671 180 657 b 246 631 207 636 225 631 "},"«":{"ha":842,"x_min":0,"x_max":0,"o":"m 679 58 b 621 88 655 58 636 68 l 442 318 b 421 367 428 337 421 353 b 442 415 421 382 428 399 l 617 642 b 679 675 632 664 653 675 b 728 655 699 675 715 668 b 747 606 741 641 747 625 b 728 558 747 589 741 573 l 582 368 l 731 174 b 749 128 743 159 749 144 b 728 78 748 108 741 92 b 679 58 715 65 699 58 m 329 58 b 271 88 305 58 286 68 l 92 318 b 72 367 79 336 72 352 b 92 415 72 383 79 400 l 267 642 b 331 675 284 664 306 675 b 378 654 349 675 365 668 b 397 606 391 640 397 624 b 379 558 397 590 391 574 l 232 368 l 382 174 b 399 128 393 160 399 144 b 378 78 399 108 392 92 b 329 58 365 65 349 58 "},"®":{"ha":531,"x_min":0,"x_max":0,"o":"m 265 500 b 94 571 198 500 141 524 b 24 742 47 618 24 675 l 24 743 b 94 915 24 810 47 867 b 265 986 142 962 199 986 b 437 915 333 986 390 963 b 507 744 484 868 507 811 l 507 743 b 436 572 507 676 483 619 b 265 500 389 524 332 500 m 265 526 b 417 590 325 526 376 548 b 479 743 459 633 479 684 l 479 744 b 417 897 479 804 459 854 b 265 960 376 939 325 960 b 113 896 205 960 154 938 b 51 743 72 853 51 802 l 51 742 b 113 590 51 682 72 632 b 265 526 154 547 205 526 m 165 842 b 174 865 165 851 168 859 b 196 874 180 871 188 874 l 283 874 b 357 852 314 874 338 866 b 385 790 375 838 385 817 b 335 714 385 753 368 728 l 372 668 b 381 646 378 663 381 655 b 372 625 381 638 378 631 b 350 617 367 619 359 617 b 325 629 342 617 333 621 l 267 701 l 226 701 l 226 647 b 217 626 226 639 223 632 b 196 617 211 620 204 617 b 174 626 188 617 180 620 b 165 647 168 632 165 639 m 279 751 b 322 786 308 751 322 763 b 279 821 322 809 308 821 l 226 821 l 226 751 "},"¯":{"ha":694,"x_min":0,"x_max":0,"o":"m 163 842 b 119 860 146 842 131 848 b 101 903 107 872 101 886 b 119 946 101 919 107 934 b 163 964 131 958 146 964 l 532 964 b 575 946 549 964 563 958 b 593 903 587 934 593 919 b 575 860 593 886 587 872 b 532 842 563 848 549 842 "},"°":{"ha":654,"x_min":0,"x_max":0,"o":"m 328 529 b 166 597 267 529 213 552 b 96 754 119 641 96 694 l 96 757 b 166 914 96 817 119 869 b 328 981 213 958 267 981 b 489 914 389 981 443 958 b 558 757 535 869 558 817 l 558 754 b 489 597 558 694 535 641 b 328 529 443 552 389 529 m 328 621 b 421 660 365 621 396 634 b 458 754 446 687 458 718 l 458 757 b 421 850 458 793 446 824 b 328 889 396 876 365 889 b 233 850 290 889 258 876 b 196 757 208 824 196 793 l 196 754 b 234 660 196 718 209 687 b 328 621 259 634 291 621 "},"±":{"ha":881,"x_min":0,"x_max":0,"o":"m 365 518 l 169 518 b 117 540 149 518 132 525 b 96 592 103 554 96 571 b 117 644 96 612 103 629 b 169 665 132 658 149 665 l 365 665 l 364 853 b 386 907 364 874 371 892 b 440 929 401 922 419 929 b 494 907 462 929 480 922 b 517 853 509 892 517 874 l 515 665 l 710 665 b 763 644 730 665 748 658 b 785 592 777 629 785 612 b 763 540 785 571 777 554 b 710 518 748 525 730 518 l 515 518 l 517 331 b 494 276 517 309 509 291 b 440 254 480 262 462 254 b 386 276 419 254 401 262 b 364 331 371 291 364 309 m 167 0 b 117 21 147 0 131 7 b 96 71 103 35 96 51 b 117 122 96 91 103 108 b 167 143 131 136 147 143 l 714 143 b 764 122 733 143 750 136 b 785 71 778 108 785 91 b 764 21 785 51 778 35 b 714 0 750 7 733 0 l 167 0 "},"´":{"ha":694,"x_min":0,"x_max":0,"o":"m 288 819 b 246 849 260 819 246 829 b 257 879 246 858 250 868 l 336 1001 b 403 1042 353 1028 375 1042 b 470 1024 426 1042 448 1036 b 503 988 492 1013 503 1000 b 479 946 503 974 495 960 l 386 857 b 288 819 359 832 326 819 "},"¶":{"ha":774,"x_min":0,"x_max":0,"o":"m 481 339 l 456 339 b 167 422 337 339 241 366 b 56 654 93 477 56 554 l 56 657 b 159 888 56 754 90 831 b 432 972 228 944 319 972 l 567 972 b 628 947 591 972 611 964 b 653 886 644 931 653 910 l 653 78 b 628 17 653 54 644 34 b 567 -7 611 1 591 -7 b 506 18 543 -7 522 1 b 481 78 489 35 481 55 "},"·":{"ha":374,"x_min":0,"x_max":0,"o":"m 89 432 b 117 500 89 459 98 481 b 188 528 136 519 160 528 b 256 500 214 528 237 519 b 285 432 275 481 285 459 l 285 419 b 256 350 285 392 275 369 b 188 322 237 331 214 322 b 117 350 160 322 136 331 b 89 419 98 369 89 392 l 89 432 "},"¸":{"ha":694,"x_min":0,"x_max":0,"o":"m 349 -182 b 294 -222 338 -209 319 -222 b 232 -202 276 -222 255 -216 b 197 -161 209 -189 197 -175 b 208 -129 197 -150 201 -139 l 307 14 l 433 14 "},"º":{"ha":542,"x_min":0,"x_max":0,"o":"m 269 558 b 121 619 210 558 161 578 b 61 767 81 659 61 708 l 61 769 b 122 918 61 828 81 877 b 272 979 162 959 212 979 b 422 919 332 979 382 959 b 481 771 461 878 481 829 l 481 768 b 420 619 481 710 460 660 b 269 558 380 579 330 558 m 104 392 b 76 403 93 392 84 396 b 64 432 68 411 64 421 b 76 460 64 443 68 453 b 104 472 84 468 93 472 l 438 472 b 466 460 449 472 458 468 b 478 432 474 453 478 443 b 466 403 478 421 474 411 b 438 392 458 396 449 392 l 104 392 m 272 644 b 353 680 306 644 332 656 b 383 767 373 703 383 732 l 383 769 b 351 857 383 804 372 833 b 269 893 329 881 302 893 b 190 858 237 893 210 881 b 158 771 169 834 158 805 l 158 768 b 191 681 158 734 169 705 b 272 644 213 656 240 644 "},"»":{"ha":842,"x_min":0,"x_max":0,"o":"m 513 675 b 571 644 536 675 555 665 l 750 415 b 771 365 764 397 771 380 b 750 317 771 351 764 335 l 575 92 b 511 58 557 69 536 58 b 464 79 493 58 477 65 b 444 128 451 93 444 109 b 463 175 444 144 450 159 l 610 364 l 460 558 b 443 606 449 573 443 589 b 463 655 443 625 450 641 b 513 675 477 668 493 675 m 163 675 b 221 644 186 675 205 665 l 400 415 b 421 365 414 397 421 380 b 400 317 421 351 414 335 l 225 92 b 163 58 209 69 188 58 b 114 78 143 58 127 65 b 94 128 101 92 94 108 b 114 175 94 144 101 160 l 260 364 l 111 558 b 93 606 99 573 93 589 b 114 655 94 625 101 641 b 163 675 127 668 143 675 "},"¿":{"ha":751,"x_min":0,"x_max":0,"o":"m 411 672 b 451 656 427 672 440 667 b 471 617 463 646 469 632 l 485 497 b 474 451 488 479 484 463 b 431 428 463 438 449 431 b 229 278 296 415 229 365 l 229 275 b 272 179 229 235 243 203 b 388 143 300 155 338 143 b 576 219 457 143 520 169 b 628 239 592 232 609 239 b 683 217 649 239 667 231 b 706 163 698 202 706 184 b 678 103 706 138 696 119 b 383 -12 596 26 498 -12 b 147 64 285 -12 206 13 b 58 269 88 115 58 183 l 58 272 b 338 553 58 428 151 521 l 344 617 b 363 656 346 632 353 646 b 403 672 374 667 387 672 m 510 871 b 482 801 510 843 500 820 b 411 774 463 783 440 774 b 340 801 382 774 359 783 b 313 871 322 820 313 843 l 313 883 b 340 951 313 910 322 933 b 411 979 359 970 382 979 b 482 951 440 979 463 970 b 510 883 500 933 510 910 l 510 871 "},"À":{"ha":1074,"x_min":0,"x_max":0,"o":"m 58 72 b 69 111 58 83 62 96 l 431 917 b 533 986 452 963 486 986 l 542 986 b 643 917 588 986 622 963 l 1004 111 b 1014 75 1011 99 1014 87 b 991 17 1014 52 1006 32 b 933 -7 976 1 956 -7 b 850 53 894 -7 867 13 l 771 235 l 299 235 l 217 47 b 138 -7 202 11 175 -7 b 81 16 115 -7 97 1 b 58 72 66 31 58 50 m 706 386 l 535 779 l 364 386 m 540 1060 b 443 1097 501 1060 469 1072 l 349 1186 b 325 1228 333 1200 325 1214 b 358 1265 325 1241 336 1253 b 425 1282 379 1276 402 1282 b 492 1242 453 1282 475 1269 l 571 1119 b 583 1089 579 1106 583 1096 b 540 1060 583 1069 569 1060 "},"Á":{"ha":1074,"x_min":0,"x_max":0,"o":"m 58 72 b 69 111 58 83 62 96 l 431 917 b 533 986 452 963 486 986 l 542 986 b 643 917 588 986 622 963 l 1004 111 b 1014 75 1011 99 1014 87 b 991 17 1014 52 1006 32 b 933 -7 976 1 956 -7 b 850 53 894 -7 867 13 l 771 235 l 299 235 l 217 47 b 138 -7 202 11 175 -7 b 81 16 115 -7 97 1 b 58 72 66 31 58 50 m 706 386 l 535 779 l 364 386 m 531 1060 b 489 1089 503 1060 489 1069 b 500 1119 489 1098 493 1108 l 579 1242 b 646 1282 596 1269 618 1282 b 713 1265 669 1282 691 1276 b 746 1228 735 1253 746 1241 b 722 1186 746 1214 738 1200 l 629 1097 b 531 1060 602 1072 569 1060 "},"Â":{"ha":1074,"x_min":0,"x_max":0,"o":"m 58 72 b 69 111 58 83 62 96 l 431 917 b 533 986 452 963 486 986 l 542 986 b 643 917 588 986 622 963 l 1004 111 b 1014 75 1011 99 1014 87 b 991 17 1014 52 1006 32 b 933 -7 976 1 956 -7 b 850 53 894 -7 867 13 l 771 235 l 299 235 l 217 47 b 138 -7 202 11 175 -7 b 81 16 115 -7 97 1 b 58 72 66 31 58 50 m 706 386 l 535 779 l 364 386 m 461 1097 b 358 1060 431 1072 397 1060 b 321 1088 333 1060 321 1069 b 338 1121 321 1095 326 1106 l 429 1236 b 510 1276 451 1263 478 1276 l 560 1276 b 640 1236 592 1276 619 1263 l 732 1121 b 749 1088 743 1106 749 1095 b 708 1060 749 1069 735 1060 b 606 1097 670 1060 636 1072 l 533 1160 "},"Ã":{"ha":1074,"x_min":0,"x_max":0,"o":"m 58 72 b 69 111 58 83 62 96 l 431 917 b 533 986 452 963 486 986 l 542 986 b 643 917 588 986 622 963 l 1004 111 b 1014 75 1011 99 1014 87 b 991 17 1014 52 1006 32 b 933 -7 976 1 956 -7 b 850 53 894 -7 867 13 l 771 235 l 299 235 l 217 47 b 138 -7 202 11 175 -7 b 81 16 115 -7 97 1 b 58 72 66 31 58 50 m 706 386 l 535 779 l 364 386 m 385 1078 b 339 1050 373 1059 357 1050 b 303 1064 325 1050 313 1055 b 288 1096 293 1073 288 1084 b 293 1128 288 1104 289 1115 b 349 1223 309 1170 328 1202 b 435 1254 371 1244 400 1254 b 544 1226 463 1254 499 1245 b 635 1199 590 1208 620 1199 b 699 1243 662 1199 683 1213 b 744 1271 711 1262 726 1271 b 781 1257 758 1271 770 1266 b 796 1225 791 1248 796 1237 b 790 1193 796 1217 794 1206 b 734 1098 775 1150 756 1119 b 649 1067 712 1077 684 1067 b 539 1094 621 1067 584 1076 b 449 1122 494 1113 463 1122 b 385 1078 422 1122 400 1107 "},"Ä":{"ha":1074,"x_min":0,"x_max":0,"o":"m 58 72 b 69 111 58 83 62 96 l 431 917 b 533 986 452 963 486 986 l 542 986 b 643 917 588 986 622 963 l 1004 111 b 1014 75 1011 99 1014 87 b 991 17 1014 52 1006 32 b 933 -7 976 1 956 -7 b 850 53 894 -7 867 13 l 771 235 l 299 235 l 217 47 b 138 -7 202 11 175 -7 b 81 16 115 -7 97 1 b 58 72 66 31 58 50 m 706 386 l 535 779 l 364 386 m 674 1240 b 738 1216 699 1240 720 1232 b 764 1154 755 1200 764 1179 l 764 1144 b 738 1083 764 1119 755 1099 b 674 1060 720 1068 699 1060 b 608 1083 648 1060 626 1068 b 582 1144 591 1099 582 1119 l 582 1154 b 608 1216 582 1179 591 1200 b 674 1240 626 1232 648 1240 m 397 1240 b 461 1216 422 1240 444 1232 b 488 1154 479 1200 488 1179 l 488 1144 b 461 1083 488 1119 479 1099 b 397 1060 444 1068 422 1060 b 332 1083 371 1060 350 1068 b 306 1144 314 1099 306 1119 l 306 1154 b 332 1216 306 1179 314 1200 b 397 1240 350 1232 371 1240 "},"Å":{"ha":1097,"x_min":0,"x_max":0,"o":"m 1017 110 b 1026 75 1023 98 1026 86 b 1003 17 1026 53 1019 34 b 944 -7 987 1 968 -7 b 861 53 907 -7 880 13 l 782 235 l 310 235 l 229 47 b 150 -7 213 11 186 -7 b 93 16 128 -7 109 1 b 69 72 77 31 69 50 b 79 108 69 79 73 91 l 457 950 b 390 1071 413 981 390 1021 l 390 1074 b 438 1180 390 1114 406 1150 b 549 1225 470 1210 507 1225 b 659 1180 590 1225 627 1210 b 707 1074 691 1150 707 1114 l 707 1071 b 640 950 707 1019 685 979 m 549 986 b 609 1011 572 986 592 994 b 635 1071 626 1028 635 1048 l 635 1074 b 609 1133 635 1097 626 1117 b 549 1158 592 1150 572 1158 b 488 1133 525 1158 505 1150 b 463 1074 471 1117 463 1097 l 463 1071 b 488 1011 463 1048 471 1028 b 549 986 505 994 525 986 m 717 386 l 546 779 l 375 386 "},"Æ":{"ha":1451,"x_min":0,"x_max":0,"o":"m 47 63 b 61 111 47 81 52 97 l 529 913 b 629 972 551 952 585 972 l 1297 972 b 1351 950 1318 972 1335 965 b 1374 896 1366 935 1374 917 b 1351 842 1374 875 1366 856 b 1297 819 1337 827 1319 819 l 847 819 l 847 567 l 1235 567 b 1289 544 1256 567 1274 559 b 1311 489 1304 528 1311 510 b 1289 436 1311 469 1304 451 b 1235 414 1274 421 1256 414 l 847 414 l 847 153 l 1304 153 b 1358 131 1325 153 1344 145 b 1381 76 1373 116 1381 98 b 1358 22 1381 55 1373 37 b 1304 0 1344 7 1325 0 l 763 0 b 701 25 738 0 718 8 b 676 86 685 42 676 62 l 676 235 l 310 235 l 197 39 b 122 -8 179 7 154 -8 b 69 12 101 -8 83 -2 b 47 63 54 25 47 42 m 676 386 l 676 824 l 649 824 l 397 386 "},"Ç":{"ha":1025,"x_min":0,"x_max":0,"o":"m 929 114 b 606 -15 838 32 730 -11 l 535 -182 b 481 -222 524 -209 506 -222 b 418 -202 462 -222 441 -216 b 383 -161 395 -189 383 -175 b 394 -129 383 -150 387 -139 l 478 -7 b 193 162 362 14 267 71 b 82 483 119 253 82 360 l 82 486 b 224 843 82 627 129 746 b 583 989 318 940 438 989 b 917 879 710 989 821 952 b 950 811 939 863 950 840 b 926 752 950 788 942 768 b 865 728 909 736 889 728 b 814 744 846 728 829 733 b 582 832 742 803 664 832 b 353 733 490 832 414 799 b 261 489 292 666 261 585 l 261 486 b 353 242 261 390 292 308 b 582 142 414 175 490 142 b 825 235 671 142 752 173 b 876 254 840 248 857 254 b 933 231 898 254 916 246 b 957 175 949 215 957 196 b 929 114 957 151 948 131 "},"È":{"ha":931,"x_min":0,"x_max":0,"o":"m 211 0 b 150 25 187 0 167 8 b 125 86 133 42 125 62 l 125 886 b 150 947 125 910 133 931 b 211 972 167 964 187 972 l 776 972 b 831 950 798 972 816 965 b 853 896 845 935 853 917 b 831 842 853 875 845 856 b 776 819 816 827 798 819 l 296 819 l 296 567 l 714 567 b 768 544 735 567 753 559 b 790 489 783 528 790 510 b 768 436 790 469 783 451 b 714 414 753 421 735 414 l 296 414 l 296 153 l 783 153 b 837 131 804 153 822 145 b 860 76 852 116 860 98 b 838 22 860 55 852 37 b 783 0 823 7 805 0 l 211 0 m 492 1046 b 394 1083 453 1046 420 1058 l 300 1172 b 276 1214 284 1186 276 1200 b 309 1251 276 1227 287 1239 b 376 1268 331 1262 353 1268 b 443 1228 404 1268 426 1255 l 522 1106 b 535 1075 531 1093 535 1082 b 492 1046 535 1056 520 1046 "},"É":{"ha":931,"x_min":0,"x_max":0,"o":"m 483 1046 b 442 1075 456 1046 442 1056 b 453 1106 442 1084 445 1094 l 532 1228 b 599 1268 549 1255 571 1268 b 666 1251 622 1268 644 1262 b 699 1214 688 1239 699 1227 b 675 1172 699 1200 691 1186 l 582 1083 b 483 1046 555 1058 522 1046 m 211 0 b 150 25 187 0 167 8 b 125 86 133 42 125 62 l 125 886 b 150 947 125 910 133 931 b 211 972 167 964 187 972 l 776 972 b 831 950 798 972 816 965 b 853 896 845 935 853 917 b 831 842 853 875 845 856 b 776 819 816 827 798 819 l 296 819 l 296 567 l 714 567 b 768 544 735 567 753 559 b 790 489 783 528 790 510 b 768 436 790 469 783 451 b 714 414 753 421 735 414 l 296 414 l 296 153 l 783 153 b 837 131 804 153 822 145 b 860 76 852 116 860 98 b 838 22 860 55 852 37 b 783 0 823 7 805 0 l 211 0 "},"Ê":{"ha":931,"x_min":0,"x_max":0,"o":"m 414 1083 b 311 1046 384 1058 350 1046 b 274 1074 286 1046 274 1055 b 290 1107 274 1081 279 1092 l 382 1222 b 463 1263 404 1249 431 1263 l 513 1263 b 593 1222 545 1263 572 1249 l 685 1107 b 701 1074 696 1092 701 1081 b 661 1046 701 1055 688 1046 b 558 1083 623 1046 589 1058 l 486 1146 m 211 0 b 150 25 187 0 167 8 b 125 86 133 42 125 62 l 125 886 b 150 947 125 910 133 931 b 211 972 167 964 187 972 l 776 972 b 831 950 798 972 816 965 b 853 896 845 935 853 917 b 831 842 853 875 845 856 b 776 819 816 827 798 819 l 296 819 l 296 567 l 714 567 b 768 544 735 567 753 559 b 790 489 783 528 790 510 b 768 436 790 469 783 451 b 714 414 753 421 735 414 l 296 414 l 296 153 l 783 153 b 837 131 804 153 822 145 b 860 76 852 116 860 98 b 838 22 860 55 852 37 b 783 0 823 7 805 0 l 211 0 "},"Ë":{"ha":931,"x_min":0,"x_max":0,"o":"m 626 1226 b 690 1202 651 1226 673 1218 b 717 1140 708 1186 717 1165 l 717 1131 b 690 1069 717 1106 708 1085 b 626 1046 673 1054 651 1046 b 561 1069 600 1046 579 1054 b 535 1131 544 1085 535 1106 l 535 1140 b 561 1202 535 1165 544 1186 b 626 1226 579 1218 600 1226 m 350 1226 b 414 1202 375 1226 396 1218 b 440 1140 431 1186 440 1165 l 440 1131 b 414 1069 440 1106 431 1085 b 350 1046 396 1054 375 1046 b 285 1069 324 1046 302 1054 b 258 1131 267 1085 258 1106 l 258 1140 b 285 1202 258 1165 267 1186 b 350 1226 302 1218 324 1226 m 211 0 b 150 25 187 0 167 8 b 125 86 133 42 125 62 l 125 886 b 150 947 125 910 133 931 b 211 972 167 964 187 972 l 776 972 b 831 950 798 972 816 965 b 853 896 845 935 853 917 b 831 842 853 875 845 856 b 776 819 816 827 798 819 l 296 819 l 296 567 l 714 567 b 768 544 735 567 753 559 b 790 489 783 528 790 510 b 768 436 790 469 783 451 b 714 414 753 421 735 414 l 296 414 l 296 153 l 783 153 b 837 131 804 153 822 145 b 860 76 852 116 860 98 b 838 22 860 55 852 37 b 783 0 823 7 805 0 l 211 0 "},"Ì":{"ha":440,"x_min":0,"x_max":0,"o":"m 135 894 b 160 955 135 919 143 939 b 221 979 176 971 197 979 b 281 955 244 979 264 971 b 306 894 297 939 306 919 l 306 78 b 281 17 306 54 297 34 b 221 -7 264 1 244 -7 b 160 17 197 -7 176 1 b 135 78 143 34 135 54 m 225 1046 b 128 1083 186 1046 154 1058 l 33 1172 b 10 1214 18 1186 10 1200 b 42 1251 10 1227 21 1239 b 110 1268 64 1262 87 1268 b 176 1228 138 1268 160 1255 l 256 1106 b 268 1075 264 1093 268 1082 b 225 1046 268 1056 254 1046 "},"Í":{"ha":440,"x_min":0,"x_max":0,"o":"m 135 894 b 160 955 135 919 143 939 b 221 979 176 971 197 979 b 281 955 244 979 264 971 b 306 894 297 939 306 919 l 306 78 b 281 17 306 54 297 34 b 221 -7 264 1 244 -7 b 160 17 197 -7 176 1 b 135 78 143 34 135 54 m 217 1046 b 175 1075 189 1046 175 1056 b 186 1106 175 1084 179 1094 l 265 1228 b 332 1268 282 1255 304 1268 b 399 1251 355 1268 378 1262 b 432 1214 421 1239 432 1227 b 408 1172 432 1200 424 1186 l 315 1083 b 217 1046 288 1058 256 1046 "},"Î":{"ha":440,"x_min":0,"x_max":0,"o":"m 135 894 b 160 955 135 919 143 939 b 221 979 176 971 197 979 b 281 955 244 979 264 971 b 306 894 297 939 306 919 l 306 78 b 281 17 306 54 297 34 b 221 -7 264 1 244 -7 b 160 17 197 -7 176 1 b 135 78 143 34 135 54 m 147 1083 b 44 1046 118 1058 83 1046 b 7 1074 19 1046 7 1055 b 24 1107 7 1081 13 1092 l 115 1222 b 196 1263 138 1249 164 1263 l 246 1263 b 326 1222 278 1263 305 1249 l 418 1107 b 435 1074 429 1092 435 1081 b 394 1046 435 1055 421 1046 b 292 1083 356 1046 322 1058 l 219 1146 "},"Ï":{"ha":440,"x_min":0,"x_max":0,"o":"m 135 894 b 160 955 135 919 143 939 b 221 979 176 971 197 979 b 281 955 244 979 264 971 b 306 894 297 939 306 919 l 306 78 b 281 17 306 54 297 34 b 221 -7 264 1 244 -7 b 160 17 197 -7 176 1 b 135 78 143 34 135 54 m 360 1226 b 424 1202 385 1226 406 1218 b 450 1140 441 1186 450 1165 l 450 1131 b 424 1069 450 1106 441 1085 b 360 1046 406 1054 385 1046 b 294 1069 334 1046 312 1054 b 268 1131 277 1085 268 1106 l 268 1140 b 294 1202 268 1165 277 1186 b 360 1226 312 1218 334 1226 m 83 1226 b 147 1202 108 1226 130 1218 b 174 1140 165 1186 174 1165 l 174 1131 b 147 1069 174 1106 165 1085 b 83 1046 130 1054 108 1046 b 18 1069 57 1046 36 1054 b -8 1131 0 1085 -8 1106 l -8 1140 b 18 1202 -8 1165 0 1186 b 83 1226 36 1218 57 1226 "},"Ð":{"ha":1128,"x_min":0,"x_max":0,"o":"m 167 565 l 167 886 b 192 947 167 910 175 931 b 253 972 208 964 229 972 l 529 972 b 901 834 680 972 804 926 b 1046 489 997 742 1046 627 l 1046 486 b 901 139 1046 347 997 231 b 529 0 804 46 680 0 l 253 0 b 192 25 229 0 208 8 b 167 86 175 42 167 62 l 167 413 l 131 413 b 78 435 110 413 93 420 b 56 489 63 450 56 468 b 77 543 56 510 63 528 b 131 565 91 558 109 565 m 336 565 l 513 565 b 566 543 534 565 552 558 b 588 489 580 528 588 510 b 565 435 588 468 580 450 b 513 413 550 420 533 413 l 336 413 l 336 156 l 529 156 b 774 247 630 156 712 186 b 867 483 836 308 867 387 l 867 486 b 774 724 867 582 836 662 b 529 817 712 786 630 817 l 336 817 "},"Ñ":{"ha":1097,"x_min":0,"x_max":0,"o":"m 125 892 b 150 953 125 916 133 936 b 211 978 167 969 187 978 l 229 978 b 318 928 262 978 291 961 l 804 299 l 804 896 b 828 955 804 919 812 939 b 888 979 845 971 864 979 b 947 955 911 979 931 971 b 972 896 964 939 972 919 l 972 79 b 948 19 972 55 964 35 b 889 -6 932 3 912 -6 l 882 -6 b 793 46 850 -6 820 12 l 293 693 l 293 76 b 269 17 293 53 285 34 b 210 -7 253 1 233 -7 b 150 17 187 -7 167 1 b 125 76 133 34 125 53 m 397 1064 b 351 1036 385 1045 370 1036 b 315 1050 338 1036 325 1041 b 300 1082 305 1059 300 1070 b 306 1114 300 1090 302 1101 b 362 1209 321 1156 340 1188 b 447 1240 384 1230 412 1240 b 557 1213 475 1240 512 1231 b 647 1185 602 1194 632 1185 b 711 1229 674 1185 695 1200 b 757 1257 723 1248 738 1257 b 793 1243 771 1257 783 1252 b 808 1211 803 1234 808 1223 b 803 1179 808 1203 806 1192 b 747 1084 787 1137 768 1105 b 661 1053 725 1063 696 1053 b 551 1081 633 1053 597 1062 b 461 1108 506 1099 476 1108 b 397 1064 434 1108 413 1094 "},"Ò":{"ha":1181,"x_min":0,"x_max":0,"o":"m 589 -17 b 225 129 442 -17 320 32 b 82 483 130 226 82 344 l 82 486 b 226 842 82 625 130 744 b 592 989 323 940 444 989 b 956 843 739 989 860 940 b 1099 489 1051 746 1099 628 l 1099 486 b 954 131 1099 347 1050 229 b 589 -17 858 32 736 -17 m 592 142 b 827 240 687 142 766 175 b 919 483 889 306 919 387 l 919 486 b 826 731 919 582 888 664 b 589 832 763 798 684 832 b 353 733 494 832 415 799 b 261 489 292 666 261 585 l 261 486 b 355 242 261 390 292 308 b 592 142 417 175 496 142 m 594 1060 b 497 1097 556 1060 523 1072 l 403 1186 b 379 1228 387 1200 379 1214 b 412 1265 379 1241 390 1253 b 479 1282 434 1276 456 1282 b 546 1242 507 1282 529 1269 l 625 1119 b 638 1089 633 1106 638 1096 b 594 1060 638 1069 623 1060 "},"Ó":{"ha":1181,"x_min":0,"x_max":0,"o":"m 585 1060 b 543 1089 557 1060 543 1069 b 554 1119 543 1098 547 1108 l 633 1242 b 700 1282 650 1269 672 1282 b 767 1265 723 1282 746 1276 b 800 1228 789 1253 800 1241 b 776 1186 800 1214 792 1200 l 683 1097 b 585 1060 656 1072 624 1060 m 589 -17 b 225 129 442 -17 320 32 b 82 483 130 226 82 344 l 82 486 b 226 842 82 625 130 744 b 592 989 323 940 444 989 b 956 843 739 989 860 940 b 1099 489 1051 746 1099 628 l 1099 486 b 954 131 1099 347 1050 229 b 589 -17 858 32 736 -17 m 592 142 b 827 240 687 142 766 175 b 919 483 889 306 919 387 l 919 486 b 826 731 919 582 888 664 b 589 832 763 798 684 832 b 353 733 494 832 415 799 b 261 489 292 666 261 585 l 261 486 b 355 242 261 390 292 308 b 592 142 417 175 496 142 "},"Ô":{"ha":1181,"x_min":0,"x_max":0,"o":"m 517 1097 b 414 1060 487 1072 453 1060 b 376 1088 389 1060 376 1069 b 393 1121 376 1095 382 1106 l 485 1236 b 565 1276 507 1263 534 1276 l 615 1276 b 696 1236 648 1276 675 1263 l 788 1121 b 804 1088 799 1106 804 1095 b 764 1060 804 1069 791 1060 b 661 1097 726 1060 692 1072 l 589 1160 m 589 -17 b 225 129 442 -17 320 32 b 82 483 130 226 82 344 l 82 486 b 226 842 82 625 130 744 b 592 989 323 940 444 989 b 956 843 739 989 860 940 b 1099 489 1051 746 1099 628 l 1099 486 b 954 131 1099 347 1050 229 b 589 -17 858 32 736 -17 m 592 142 b 827 240 687 142 766 175 b 919 483 889 306 919 387 l 919 486 b 826 731 919 582 888 664 b 589 832 763 798 684 832 b 353 733 494 832 415 799 b 261 489 292 666 261 585 l 261 486 b 355 242 261 390 292 308 b 592 142 417 175 496 142 "},"Õ":{"ha":1181,"x_min":0,"x_max":0,"o":"m 589 -17 b 225 129 442 -17 320 32 b 82 483 130 226 82 344 l 82 486 b 226 842 82 625 130 744 b 592 989 323 940 444 989 b 956 843 739 989 860 940 b 1099 489 1051 746 1099 628 l 1099 486 b 954 131 1099 347 1050 229 b 589 -17 858 32 736 -17 m 592 142 b 827 240 687 142 766 175 b 919 483 889 306 919 387 l 919 486 b 826 731 919 582 888 664 b 589 832 763 798 684 832 b 353 733 494 832 415 799 b 261 489 292 666 261 585 l 261 486 b 355 242 261 390 292 308 b 592 142 417 175 496 142 m 439 1078 b 393 1050 427 1059 412 1050 b 357 1064 379 1050 367 1055 b 342 1096 347 1073 342 1084 b 347 1128 342 1104 344 1115 b 403 1223 363 1170 382 1202 b 489 1254 425 1244 454 1254 b 599 1226 517 1254 553 1245 b 689 1199 644 1208 674 1199 b 753 1243 716 1199 737 1213 b 799 1271 765 1262 780 1271 b 835 1257 813 1271 825 1266 b 850 1225 845 1248 850 1237 b 844 1193 850 1217 848 1206 b 788 1098 829 1150 810 1119 b 703 1067 766 1077 738 1067 b 593 1094 675 1067 638 1076 b 503 1122 548 1113 518 1122 b 439 1078 476 1122 455 1107 "},"Ö":{"ha":1181,"x_min":0,"x_max":0,"o":"m 729 1240 b 793 1216 754 1240 775 1232 b 819 1154 811 1200 819 1179 l 819 1144 b 793 1083 819 1119 811 1099 b 729 1060 775 1068 754 1060 b 664 1083 703 1060 681 1068 b 638 1144 646 1099 638 1119 l 638 1154 b 664 1216 638 1179 646 1200 b 729 1240 681 1232 703 1240 m 453 1240 b 517 1216 478 1240 499 1232 b 543 1154 534 1200 543 1179 l 543 1144 b 517 1083 543 1119 534 1099 b 453 1060 499 1068 478 1060 b 388 1083 427 1060 405 1068 b 361 1144 370 1099 361 1119 l 361 1154 b 388 1216 361 1179 370 1200 b 453 1240 405 1232 427 1240 m 589 -17 b 225 129 442 -17 320 32 b 82 483 130 226 82 344 l 82 486 b 226 842 82 625 130 744 b 592 989 323 940 444 989 b 956 843 739 989 860 940 b 1099 489 1051 746 1099 628 l 1099 486 b 954 131 1099 347 1050 229 b 589 -17 858 32 736 -17 m 592 142 b 827 240 687 142 766 175 b 919 483 889 306 919 387 l 919 486 b 826 731 919 582 888 664 b 589 832 763 798 684 832 b 353 733 494 832 415 799 b 261 489 292 666 261 585 l 261 486 b 355 242 261 390 292 308 b 592 142 417 175 496 142 "},"×":{"ha":881,"x_min":0,"x_max":0,"o":"m 542 490 l 724 313 b 747 257 739 297 747 278 b 725 203 747 236 740 218 b 672 182 710 189 693 182 b 617 204 652 182 633 189 l 439 388 l 260 206 b 206 182 246 190 228 182 b 154 203 185 182 168 189 b 133 254 140 217 133 234 b 158 310 133 276 142 295 l 339 488 l 156 665 b 133 721 141 682 133 700 b 156 774 133 742 141 760 b 208 796 170 789 188 796 b 264 772 230 796 248 788 l 442 590 l 621 772 b 674 796 635 788 652 796 b 726 774 695 796 713 789 b 747 722 740 760 747 743 b 722 668 747 701 739 683 "},"Ø":{"ha":1181,"x_min":0,"x_max":0,"o":"m 589 -17 b 286 76 474 -17 373 14 l 219 10 b 167 -14 206 -6 188 -14 b 124 2 149 -14 135 -9 b 107 42 113 13 107 26 b 131 93 107 60 115 77 l 196 161 b 82 483 120 253 82 360 l 82 486 b 226 842 82 625 130 744 b 592 989 323 940 444 989 b 894 894 707 989 808 957 l 961 963 b 1014 986 977 978 994 986 b 1056 970 1031 986 1045 981 b 1074 932 1068 959 1074 947 b 1050 879 1074 913 1066 895 l 985 811 b 1099 489 1061 719 1099 612 l 1099 486 b 954 131 1099 347 1050 229 b 589 -17 858 32 736 -17 m 258 486 b 317 288 258 413 278 347 l 781 772 b 589 835 724 814 660 835 b 352 734 494 835 415 801 b 258 489 290 667 258 585 l 258 486 m 592 138 b 828 238 687 138 766 171 b 922 483 891 305 922 387 l 922 486 b 864 685 922 557 903 624 l 399 199 b 592 138 455 158 519 138 "},"Ù":{"ha":1051,"x_min":0,"x_max":0,"o":"m 524 -15 b 220 94 395 -15 294 21 b 110 413 147 168 110 274 l 110 894 b 135 955 110 919 118 939 b 196 979 151 971 172 979 b 256 955 219 979 239 971 b 281 894 272 939 281 919 l 281 419 b 345 215 281 331 302 262 b 526 143 388 167 449 143 b 706 212 603 143 663 166 b 771 413 749 258 771 325 l 771 894 b 796 955 771 919 779 939 b 857 979 813 971 833 979 b 917 955 880 979 900 971 b 942 894 933 939 942 919 l 942 421 b 831 97 942 279 905 171 b 524 -15 756 22 654 -15 m 529 1046 b 432 1083 490 1046 458 1058 l 338 1172 b 314 1214 322 1186 314 1200 b 347 1251 314 1227 325 1239 b 414 1268 368 1262 391 1268 b 481 1228 442 1268 464 1255 l 560 1106 b 572 1075 568 1093 572 1082 b 529 1046 572 1056 558 1046 "},"Ú":{"ha":1051,"x_min":0,"x_max":0,"o":"m 521 1046 b 479 1075 493 1046 479 1056 b 490 1106 479 1084 483 1094 l 569 1228 b 636 1268 586 1255 608 1268 b 703 1251 659 1268 682 1262 b 736 1214 725 1239 736 1227 b 713 1172 736 1200 728 1186 l 619 1083 b 521 1046 593 1058 560 1046 m 524 -15 b 220 94 395 -15 294 21 b 110 413 147 168 110 274 l 110 894 b 135 955 110 919 118 939 b 196 979 151 971 172 979 b 256 955 219 979 239 971 b 281 894 272 939 281 919 l 281 419 b 345 215 281 331 302 262 b 526 143 388 167 449 143 b 706 212 603 143 663 166 b 771 413 749 258 771 325 l 771 894 b 796 955 771 919 779 939 b 857 979 813 971 833 979 b 917 955 880 979 900 971 b 942 894 933 939 942 919 l 942 421 b 831 97 942 279 905 171 b 524 -15 756 22 654 -15 "},"Û":{"ha":1051,"x_min":0,"x_max":0,"o":"m 451 1083 b 349 1046 422 1058 388 1046 b 311 1074 324 1046 311 1055 b 328 1107 311 1081 317 1092 l 419 1222 b 500 1263 442 1249 469 1263 l 550 1263 b 631 1222 582 1263 609 1249 l 722 1107 b 739 1074 733 1092 739 1081 b 699 1046 739 1055 725 1046 b 596 1083 661 1046 626 1058 l 524 1146 m 524 -15 b 220 94 395 -15 294 21 b 110 413 147 168 110 274 l 110 894 b 135 955 110 919 118 939 b 196 979 151 971 172 979 b 256 955 219 979 239 971 b 281 894 272 939 281 919 l 281 419 b 345 215 281 331 302 262 b 526 143 388 167 449 143 b 706 212 603 143 663 166 b 771 413 749 258 771 325 l 771 894 b 796 955 771 919 779 939 b 857 979 813 971 833 979 b 917 955 880 979 900 971 b 942 894 933 939 942 919 l 942 421 b 831 97 942 279 905 171 b 524 -15 756 22 654 -15 "},"Ü":{"ha":1051,"x_min":0,"x_max":0,"o":"m 664 1226 b 728 1202 689 1226 710 1218 b 754 1140 745 1186 754 1165 l 754 1131 b 728 1069 754 1106 745 1085 b 664 1046 710 1054 689 1046 b 599 1069 638 1046 616 1054 b 572 1131 581 1085 572 1106 l 572 1140 b 599 1202 572 1165 581 1186 b 664 1226 616 1218 638 1226 m 388 1226 b 451 1202 413 1226 434 1218 b 478 1140 469 1186 478 1165 l 478 1131 b 451 1069 478 1106 469 1085 b 388 1046 434 1054 413 1046 b 322 1069 362 1046 340 1054 b 296 1131 305 1085 296 1106 l 296 1140 b 322 1202 296 1165 305 1186 b 388 1226 340 1218 362 1226 m 524 -15 b 220 94 395 -15 294 21 b 110 413 147 168 110 274 l 110 894 b 135 955 110 919 118 939 b 196 979 151 971 172 979 b 256 955 219 979 239 971 b 281 894 272 939 281 919 l 281 419 b 345 215 281 331 302 262 b 526 143 388 167 449 143 b 706 212 603 143 663 166 b 771 413 749 258 771 325 l 771 894 b 796 955 771 919 779 939 b 857 979 813 971 833 979 b 917 955 880 979 900 971 b 942 894 933 939 942 919 l 942 421 b 831 97 942 279 905 171 b 524 -15 756 22 654 -15 "},"Ý":{"ha":967,"x_min":0,"x_max":0,"o":"m 399 378 l 64 838 b 44 897 51 857 44 877 b 69 956 44 920 53 940 b 131 979 86 971 106 979 b 214 928 163 979 191 962 l 485 538 l 760 929 b 842 981 783 963 810 981 b 901 956 866 981 886 972 b 925 897 917 940 925 920 b 901 836 925 878 917 857 l 569 382 l 569 78 b 544 17 569 54 561 34 b 483 -7 528 1 507 -7 b 423 17 459 -7 439 1 b 399 78 407 34 399 54 m 479 1046 b 438 1075 451 1046 438 1056 b 449 1106 438 1084 441 1094 l 528 1228 b 594 1268 544 1255 567 1268 b 662 1251 618 1268 640 1262 b 694 1214 684 1239 694 1227 b 671 1172 694 1200 687 1186 l 578 1083 b 479 1046 551 1058 518 1046 "},"Þ":{"ha":935,"x_min":0,"x_max":0,"o":"m 125 894 b 150 955 125 919 133 939 b 211 979 167 971 187 979 b 272 955 235 979 255 971 b 296 894 288 939 296 919 l 296 821 l 508 821 b 778 732 621 821 711 791 b 878 496 844 673 878 594 l 878 493 b 767 248 878 388 841 306 b 489 161 694 190 601 161 l 296 161 l 296 78 b 272 17 296 54 288 34 b 211 -7 255 1 235 -7 b 150 17 187 -7 167 1 b 125 78 133 34 125 54 m 494 314 b 647 363 558 314 609 330 b 704 489 685 395 704 437 l 704 492 b 648 620 704 547 685 590 b 494 665 610 650 559 665 l 296 665 l 296 314 "},"ß":{"ha":861,"x_min":0,"x_max":0,"o":"m 404 65 b 464 132 404 100 424 123 b 625 276 571 149 625 197 l 625 279 b 465 426 625 350 572 400 b 404 500 425 438 404 463 b 440 569 404 531 416 554 b 568 744 525 617 568 675 l 568 747 b 530 844 568 787 555 819 b 428 881 504 868 470 881 b 315 832 381 881 344 864 b 272 703 287 800 272 756 l 272 75 b 248 17 272 52 264 32 b 188 -7 232 1 212 -7 b 129 17 164 -7 145 1 b 106 75 113 32 106 52 l 106 697 b 194 936 106 798 135 878 b 436 1024 254 994 334 1024 b 655 949 528 1024 601 999 b 736 763 709 900 736 838 l 736 760 b 582 522 736 658 685 579 b 793 275 723 475 793 393 l 793 272 b 701 72 793 187 762 120 b 481 -4 639 23 566 -2 b 425 15 457 -4 439 2 b 404 65 411 28 404 45 "},"à":{"ha":815,"x_min":0,"x_max":0,"o":"m 317 -15 b 133 45 244 -15 183 5 b 57 211 82 85 57 141 l 57 214 b 139 390 57 291 84 349 b 360 450 194 430 267 450 b 557 419 427 450 493 440 l 557 438 b 510 556 557 489 541 529 b 375 597 479 584 434 597 b 213 568 316 597 262 588 b 186 564 203 565 194 564 b 136 584 167 564 150 571 b 115 633 122 597 115 614 b 161 700 115 666 131 688 b 397 743 237 729 316 743 b 640 661 506 743 588 716 b 719 435 693 609 719 534 l 719 74 b 696 16 719 50 712 31 b 638 -7 680 1 661 -7 b 578 14 613 -7 594 0 b 556 64 563 28 556 44 l 556 92 b 317 -15 496 20 417 -15 m 364 107 b 504 151 420 107 467 122 b 560 264 541 180 560 218 l 560 314 b 393 343 510 333 454 343 b 267 310 339 343 297 332 b 221 221 236 289 221 259 l 221 218 b 261 137 221 184 234 157 b 364 107 288 117 322 107 m 413 819 b 315 857 374 819 341 832 l 221 946 b 197 988 205 960 197 974 b 230 1024 197 1000 208 1013 b 297 1042 252 1036 274 1042 b 364 1001 325 1042 347 1028 l 443 879 b 456 849 451 867 456 857 b 413 819 456 829 441 819 "},"á":{"ha":815,"x_min":0,"x_max":0,"o":"m 317 -15 b 133 45 244 -15 183 5 b 57 211 82 85 57 141 l 57 214 b 139 390 57 291 84 349 b 360 450 194 430 267 450 b 557 419 427 450 493 440 l 557 438 b 510 556 557 489 541 529 b 375 597 479 584 434 597 b 213 568 316 597 262 588 b 186 564 203 565 194 564 b 136 584 167 564 150 571 b 115 633 122 597 115 614 b 161 700 115 666 131 688 b 397 743 237 729 316 743 b 640 661 506 743 588 716 b 719 435 693 609 719 534 l 719 74 b 696 16 719 50 712 31 b 638 -7 680 1 661 -7 b 578 14 613 -7 594 0 b 556 64 563 28 556 44 l 556 92 b 317 -15 496 20 417 -15 m 364 107 b 504 151 420 107 467 122 b 560 264 541 180 560 218 l 560 314 b 393 343 510 333 454 343 b 267 310 339 343 297 332 b 221 221 236 289 221 259 l 221 218 b 261 137 221 184 234 157 b 364 107 288 117 322 107 m 404 819 b 363 849 376 819 363 829 b 374 879 363 858 366 868 l 453 1001 b 519 1042 469 1028 492 1042 b 587 1024 543 1042 565 1036 b 619 988 609 1013 619 1000 b 596 946 619 974 612 960 l 503 857 b 404 819 476 832 443 819 "},"â":{"ha":815,"x_min":0,"x_max":0,"o":"m 317 -15 b 133 45 244 -15 183 5 b 57 211 82 85 57 141 l 57 214 b 139 390 57 291 84 349 b 360 450 194 430 267 450 b 557 419 427 450 493 440 l 557 438 b 510 556 557 489 541 529 b 375 597 479 584 434 597 b 213 568 316 597 262 588 b 186 564 203 565 194 564 b 136 584 167 564 150 571 b 115 633 122 597 115 614 b 161 700 115 666 131 688 b 397 743 237 729 316 743 b 640 661 506 743 588 716 b 719 435 693 609 719 534 l 719 74 b 696 16 719 50 712 31 b 638 -7 680 1 661 -7 b 578 14 613 -7 594 0 b 556 64 563 28 556 44 l 556 92 b 317 -15 496 20 417 -15 m 364 107 b 504 151 420 107 467 122 b 560 264 541 180 560 218 l 560 314 b 393 343 510 333 454 343 b 267 310 339 343 297 332 b 221 221 236 289 221 259 l 221 218 b 261 137 221 184 234 157 b 364 107 288 117 322 107 m 335 857 b 232 819 305 832 271 819 b 194 847 207 819 194 829 b 211 881 194 855 200 866 l 303 996 b 383 1036 325 1023 352 1036 l 433 1036 b 514 996 466 1036 493 1023 l 606 881 b 622 847 617 866 622 855 b 582 819 622 829 609 819 b 479 857 544 819 510 832 l 407 919 "},"ã":{"ha":815,"x_min":0,"x_max":0,"o":"m 317 -15 b 133 45 244 -15 183 5 b 57 211 82 85 57 141 l 57 214 b 139 390 57 291 84 349 b 360 450 194 430 267 450 b 557 419 427 450 493 440 l 557 438 b 510 556 557 489 541 529 b 375 597 479 584 434 597 b 213 568 316 597 262 588 b 186 564 203 565 194 564 b 136 584 167 564 150 571 b 115 633 122 597 115 614 b 161 700 115 666 131 688 b 397 743 237 729 316 743 b 640 661 506 743 588 716 b 719 435 693 609 719 534 l 719 74 b 696 16 719 50 712 31 b 638 -7 680 1 661 -7 b 578 14 613 -7 594 0 b 556 64 563 28 556 44 l 556 92 b 317 -15 496 20 417 -15 m 258 838 b 213 810 246 819 231 810 b 176 824 199 810 187 814 b 161 856 166 833 161 844 b 167 888 161 864 163 875 b 223 983 182 930 201 962 b 308 1014 245 1003 273 1014 b 418 986 336 1014 373 1005 b 508 958 463 968 494 958 b 572 1003 535 958 556 973 b 618 1031 584 1021 600 1031 b 654 1017 632 1031 644 1026 b 669 985 664 1007 669 997 b 664 953 669 976 668 966 b 608 858 648 910 629 878 b 522 826 586 837 557 826 b 413 854 494 826 458 836 b 322 882 367 873 337 882 b 258 838 295 882 274 867 m 364 107 b 504 151 420 107 467 122 b 560 264 541 180 560 218 l 560 314 b 393 343 510 333 454 343 b 267 310 339 343 297 332 b 221 221 236 289 221 259 l 221 218 b 261 137 221 184 234 157 b 364 107 288 117 322 107 "},"ä":{"ha":815,"x_min":0,"x_max":0,"o":"m 317 -15 b 133 45 244 -15 183 5 b 57 211 82 85 57 141 l 57 214 b 139 390 57 291 84 349 b 360 450 194 430 267 450 b 557 419 427 450 493 440 l 557 438 b 510 556 557 489 541 529 b 375 597 479 584 434 597 b 213 568 316 597 262 588 b 186 564 203 565 194 564 b 136 584 167 564 150 571 b 115 633 122 597 115 614 b 161 700 115 666 131 688 b 397 743 237 729 316 743 b 640 661 506 743 588 716 b 719 435 693 609 719 534 l 719 74 b 696 16 719 50 712 31 b 638 -7 680 1 661 -7 b 578 14 613 -7 594 0 b 556 64 563 28 556 44 l 556 92 b 317 -15 496 20 417 -15 m 364 107 b 504 151 420 107 467 122 b 560 264 541 180 560 218 l 560 314 b 393 343 510 333 454 343 b 267 310 339 343 297 332 b 221 221 236 289 221 259 l 221 218 b 261 137 221 184 234 157 b 364 107 288 117 322 107 m 547 1000 b 611 976 572 1000 594 992 b 638 914 629 959 638 939 l 638 904 b 611 843 638 879 629 859 b 547 819 594 827 572 819 b 482 843 521 819 500 827 b 456 904 464 859 456 879 l 456 914 b 482 976 456 939 464 959 b 547 1000 500 992 521 1000 m 271 1000 b 335 976 296 1000 317 992 b 361 914 352 959 361 939 l 361 904 b 335 843 361 879 352 859 b 271 819 317 827 296 819 b 206 843 245 819 223 827 b 179 904 188 859 179 879 l 179 914 b 206 976 179 939 188 959 b 271 1000 223 992 245 1000 "},"å":{"ha":815,"x_min":0,"x_max":0,"o":"m 317 -15 b 133 45 244 -15 183 5 b 57 211 82 85 57 141 l 57 214 b 139 390 57 291 84 349 b 360 450 194 430 267 450 b 557 419 427 450 493 440 l 557 438 b 510 556 557 489 541 529 b 375 597 479 584 434 597 b 213 568 316 597 262 588 b 186 564 203 565 194 564 b 136 584 167 564 150 571 b 115 633 122 597 115 614 b 161 700 115 666 131 688 b 397 743 237 729 316 743 b 640 661 506 743 588 716 b 719 435 693 609 719 534 l 719 74 b 696 16 719 50 712 31 b 638 -7 680 1 661 -7 b 578 14 613 -7 594 0 b 556 64 563 28 556 44 l 556 92 b 317 -15 496 20 417 -15 m 408 824 b 298 869 367 824 330 839 b 250 975 266 899 250 934 l 250 978 b 298 1085 250 1019 266 1055 b 408 1129 330 1114 367 1129 b 519 1085 450 1129 487 1114 b 567 978 551 1055 567 1019 l 567 975 b 519 869 567 934 551 899 b 408 824 487 839 450 824 m 364 107 b 504 151 420 107 467 122 b 560 264 541 180 560 218 l 560 314 b 393 343 510 333 454 343 b 267 310 339 343 297 332 b 221 221 236 289 221 259 l 221 218 b 261 137 221 184 234 157 b 364 107 288 117 322 107 m 408 890 b 469 915 431 890 452 899 b 494 975 486 932 494 952 l 494 978 b 469 1038 494 1001 486 1021 b 408 1063 452 1054 431 1063 b 348 1038 385 1063 365 1054 b 322 978 331 1021 322 1001 l 322 975 b 348 915 322 952 331 932 b 408 890 365 899 385 890 "},"æ":{"ha":1322,"x_min":0,"x_max":0,"o":"m 1092 418 b 1035 557 1086 475 1067 521 b 906 611 1002 593 959 611 b 777 558 855 611 812 593 b 714 418 742 522 721 475 m 361 108 b 579 203 439 108 512 140 b 551 315 564 240 555 277 b 390 343 500 334 446 343 b 265 310 337 343 295 332 b 221 221 236 289 221 259 l 221 218 b 261 138 221 185 234 158 b 361 108 288 118 321 108 m 1188 81 b 924 -17 1115 16 1027 -17 b 640 108 806 -17 712 25 b 333 -15 541 26 439 -15 b 135 45 254 -15 188 5 b 57 211 83 85 57 141 l 57 214 b 138 390 57 291 84 349 b 357 450 192 430 265 450 b 551 419 423 450 488 440 l 551 438 b 506 556 551 489 536 529 b 372 597 475 584 431 597 b 213 568 317 597 263 588 b 186 564 203 565 194 564 b 136 584 167 564 150 571 b 115 633 122 597 115 614 b 161 700 115 666 131 688 b 394 743 232 729 310 743 b 653 624 521 743 607 703 b 910 749 717 707 802 749 b 1099 692 982 749 1045 730 b 1217 556 1153 655 1193 609 b 1254 388 1242 503 1254 447 b 1231 330 1254 364 1247 345 b 1175 307 1216 315 1197 307 l 717 307 b 788 170 726 249 750 203 b 926 121 825 137 872 121 b 1101 185 991 121 1050 142 b 1143 200 1113 195 1127 200 b 1192 181 1163 200 1179 194 b 1211 132 1205 168 1211 151 b 1188 81 1211 112 1203 94 "},"ç":{"ha":793,"x_min":0,"x_max":0,"o":"m 711 88 b 475 -15 644 24 566 -11 l 403 -182 b 349 -222 392 -209 374 -222 b 286 -202 330 -222 309 -216 b 251 -161 263 -189 251 -175 b 263 -129 251 -150 255 -139 l 347 -4 b 144 128 264 16 196 60 b 65 363 91 197 65 275 l 65 365 b 174 636 65 471 102 561 b 447 749 247 711 338 749 b 704 657 548 749 634 718 b 731 599 722 641 731 622 b 708 544 731 577 723 559 b 653 522 692 530 674 522 b 603 539 634 522 618 528 b 446 601 553 581 500 601 b 294 533 386 601 335 579 b 233 368 254 488 233 433 l 233 365 b 295 199 233 300 254 244 b 453 131 336 153 389 131 b 617 196 511 131 566 152 b 663 214 631 208 646 214 b 714 192 683 214 700 207 b 735 140 728 178 735 161 b 711 88 735 118 727 100 "},"è":{"ha":839,"x_min":0,"x_max":0,"o":"m 608 418 b 551 557 603 475 584 521 b 422 611 519 593 476 611 b 294 558 371 611 329 593 b 232 418 260 522 239 475 m 706 81 b 442 -17 633 16 545 -17 b 173 90 334 -17 245 19 b 65 364 101 160 65 252 l 65 367 b 167 638 65 473 99 563 b 424 749 234 712 320 749 b 617 692 498 749 562 730 b 735 556 671 655 711 609 b 772 388 760 503 772 447 b 749 330 772 364 765 345 b 693 307 734 315 715 307 l 233 307 b 304 170 243 249 266 203 b 444 121 342 137 389 121 b 618 185 508 121 566 142 b 661 200 631 195 645 200 b 708 181 680 200 695 194 b 728 132 721 168 728 151 b 706 81 728 113 720 95 m 425 819 b 328 857 386 819 354 832 l 233 946 b 210 988 218 960 210 974 b 242 1024 210 1000 221 1013 b 310 1042 264 1036 287 1042 b 376 1001 338 1042 360 1028 l 456 879 b 468 849 464 867 468 857 b 425 819 468 829 454 819 "},"é":{"ha":839,"x_min":0,"x_max":0,"o":"m 417 819 b 375 849 389 819 375 829 b 386 879 375 858 379 868 l 465 1001 b 532 1042 482 1028 504 1042 b 599 1024 555 1042 578 1036 b 632 988 621 1013 632 1000 b 608 946 632 974 624 960 l 515 857 b 417 819 488 832 456 819 m 608 418 b 551 557 603 475 584 521 b 422 611 519 593 476 611 b 294 558 371 611 329 593 b 232 418 260 522 239 475 m 706 81 b 442 -17 633 16 545 -17 b 173 90 334 -17 245 19 b 65 364 101 160 65 252 l 65 367 b 167 638 65 473 99 563 b 424 749 234 712 320 749 b 617 692 498 749 562 730 b 735 556 671 655 711 609 b 772 388 760 503 772 447 b 749 330 772 364 765 345 b 693 307 734 315 715 307 l 233 307 b 304 170 243 249 266 203 b 444 121 342 137 389 121 b 618 185 508 121 566 142 b 661 200 631 195 645 200 b 708 181 680 200 695 194 b 728 132 721 168 728 151 b 706 81 728 113 720 95 "},"ê":{"ha":839,"x_min":0,"x_max":0,"o":"m 347 857 b 244 819 318 832 283 819 b 207 847 219 819 207 829 b 224 881 207 855 213 866 l 315 996 b 396 1036 338 1023 364 1036 l 446 1036 b 526 996 478 1036 505 1023 l 618 881 b 635 847 629 866 635 855 b 594 819 635 829 621 819 b 492 857 556 819 522 832 l 419 919 m 608 418 b 551 557 603 475 584 521 b 422 611 519 593 476 611 b 294 558 371 611 329 593 b 232 418 260 522 239 475 m 706 81 b 442 -17 633 16 545 -17 b 173 90 334 -17 245 19 b 65 364 101 160 65 252 l 65 367 b 167 638 65 473 99 563 b 424 749 234 712 320 749 b 617 692 498 749 562 730 b 735 556 671 655 711 609 b 772 388 760 503 772 447 b 749 330 772 364 765 345 b 693 307 734 315 715 307 l 233 307 b 304 170 243 249 266 203 b 444 121 342 137 389 121 b 618 185 508 121 566 142 b 661 200 631 195 645 200 b 708 181 680 200 695 194 b 728 132 721 168 728 151 b 706 81 728 113 720 95 "},"ë":{"ha":839,"x_min":0,"x_max":0,"o":"m 560 1000 b 624 976 585 1000 606 992 b 650 914 641 959 650 939 l 650 904 b 624 843 650 879 641 859 b 560 819 606 827 585 819 b 494 843 534 819 512 827 b 468 904 477 859 468 879 l 468 914 b 494 976 468 939 477 959 b 560 1000 512 992 534 1000 m 283 1000 b 347 976 308 1000 330 992 b 374 914 365 959 374 939 l 374 904 b 347 843 374 879 365 859 b 283 819 330 827 308 819 b 218 843 257 819 236 827 b 192 904 200 859 192 879 l 192 914 b 218 976 192 939 200 959 b 283 1000 236 992 257 1000 m 608 418 b 551 557 603 475 584 521 b 422 611 519 593 476 611 b 294 558 371 611 329 593 b 232 418 260 522 239 475 m 706 81 b 442 -17 633 16 545 -17 b 173 90 334 -17 245 19 b 65 364 101 160 65 252 l 65 367 b 167 638 65 473 99 563 b 424 749 234 712 320 749 b 617 692 498 749 562 730 b 735 556 671 655 711 609 b 772 388 760 503 772 447 b 749 330 772 364 765 345 b 693 307 734 315 715 307 l 233 307 b 304 170 243 249 266 203 b 444 121 342 137 389 121 b 618 185 508 121 566 142 b 661 200 631 195 645 200 b 708 181 680 200 695 194 b 728 132 721 168 728 151 b 706 81 728 113 720 95 "},"ì":{"ha":397,"x_min":0,"x_max":0,"o":"m 115 657 b 140 717 115 681 123 701 b 199 742 156 734 175 742 b 258 717 222 742 242 733 b 283 657 275 700 283 680 l 283 76 b 259 17 283 53 275 34 b 199 -7 243 1 223 -7 b 140 17 175 -7 156 1 b 115 76 123 34 115 53 m 203 819 b 106 857 164 819 131 832 l 11 946 b -12 988 -5 960 -12 974 b 20 1024 -12 1000 -2 1013 b 88 1042 42 1036 64 1042 b 154 1001 115 1042 138 1028 l 233 879 b 246 849 242 867 246 857 b 203 819 246 829 231 819 "},"í":{"ha":397,"x_min":0,"x_max":0,"o":"m 194 819 b 153 849 167 819 153 829 b 164 879 153 858 156 868 l 243 1001 b 310 1042 260 1028 282 1042 b 377 1024 333 1042 355 1036 b 410 988 399 1013 410 1000 b 386 946 410 974 402 960 l 293 857 b 194 819 266 832 233 819 m 115 657 b 140 717 115 681 123 701 b 199 742 156 734 175 742 b 258 717 222 742 242 733 b 283 657 275 700 283 680 l 283 76 b 259 17 283 53 275 34 b 199 -7 243 1 223 -7 b 140 17 175 -7 156 1 b 115 76 123 34 115 53 "},"î":{"ha":397,"x_min":0,"x_max":0,"o":"m 125 857 b 22 819 95 832 61 819 b -15 847 -3 819 -15 829 b 1 881 -15 855 -10 866 l 93 996 b 174 1036 115 1023 142 1036 l 224 1036 b 304 996 256 1036 283 1023 l 396 881 b 413 847 407 866 413 855 b 372 819 413 829 399 819 b 269 857 334 819 300 832 l 197 919 m 115 657 b 140 717 115 681 123 701 b 199 742 156 734 175 742 b 258 717 222 742 242 733 b 283 657 275 700 283 680 l 283 76 b 259 17 283 53 275 34 b 199 -7 243 1 223 -7 b 140 17 175 -7 156 1 b 115 76 123 34 115 53 "},"ï":{"ha":397,"x_min":0,"x_max":0,"o":"m 338 1000 b 401 976 363 1000 384 992 b 428 914 419 959 428 939 l 428 904 b 401 843 428 879 419 859 b 338 819 384 827 363 819 b 272 843 312 819 290 827 b 246 904 255 859 246 879 l 246 914 b 272 976 246 939 255 959 b 338 1000 290 992 312 1000 m 61 1000 b 125 976 86 1000 107 992 b 151 914 143 959 151 939 l 151 904 b 125 843 151 879 143 859 b 61 819 107 827 86 819 b -4 843 35 819 13 827 b -31 904 -22 859 -31 879 l -31 914 b -4 976 -31 939 -22 959 b 61 1000 13 992 35 1000 m 115 657 b 140 717 115 681 123 701 b 199 742 156 734 175 742 b 258 717 222 742 242 733 b 283 657 275 700 283 680 l 283 76 b 259 17 283 53 275 34 b 199 -7 243 1 223 -7 b 140 17 175 -7 156 1 b 115 76 123 34 115 53 "},"ð":{"ha":892,"x_min":0,"x_max":0,"o":"m 436 817 l 285 750 b 261 746 278 747 270 746 b 224 761 246 746 234 751 b 208 799 213 771 208 784 b 246 849 208 823 221 839 l 372 904 b 358 949 363 917 358 932 b 381 1003 358 970 366 988 b 435 1025 395 1018 413 1025 b 501 988 462 1025 484 1013 l 517 965 l 638 1018 b 661 1024 649 1022 656 1024 b 699 1008 676 1024 688 1018 b 714 969 709 997 714 984 b 678 919 714 945 702 929 l 578 876 l 703 699 b 795 528 745 637 776 580 b 824 360 814 476 824 420 b 719 92 824 254 789 165 b 439 -17 649 20 556 -17 b 172 89 332 -17 244 19 b 65 346 101 159 65 245 b 158 583 65 443 96 522 b 388 675 219 644 296 675 b 581 618 453 675 518 656 m 658 343 b 597 491 658 401 638 451 b 440 551 556 531 504 551 b 288 492 377 551 327 532 b 231 342 250 453 231 403 b 292 190 231 282 251 232 b 446 126 332 147 384 126 b 599 189 509 126 560 147 b 658 343 639 231 658 282 "},"ñ":{"ha":861,"x_min":0,"x_max":0,"o":"m 106 657 b 130 717 106 681 114 701 b 189 742 146 734 166 742 b 249 717 213 742 233 733 b 274 657 266 700 274 680 l 274 621 b 503 749 333 706 409 749 b 694 673 584 749 648 723 b 764 468 741 622 764 554 l 764 76 b 740 17 764 53 756 34 b 681 -7 725 1 705 -7 b 620 17 656 -7 636 1 b 596 76 604 34 596 53 l 596 417 b 555 549 596 474 582 518 b 439 596 528 580 489 596 b 319 547 390 596 350 580 b 274 414 289 515 274 470 l 274 76 b 249 17 274 53 266 34 b 189 -7 233 1 213 -7 b 130 17 166 -7 146 1 b 106 76 114 34 106 53 m 282 838 b 236 810 270 819 255 810 b 200 824 222 810 210 814 b 185 856 190 833 185 844 b 190 888 185 864 187 875 b 247 983 206 930 225 962 b 332 1014 268 1003 297 1014 b 442 986 360 1014 396 1005 b 532 958 487 968 517 958 b 596 1003 559 958 580 973 b 642 1031 608 1021 623 1031 b 678 1017 656 1031 668 1026 b 693 985 688 1007 693 997 b 688 953 693 976 691 966 b 631 858 672 910 653 878 b 546 826 609 837 581 826 b 436 854 518 826 481 836 b 346 882 391 873 361 882 b 282 838 319 882 298 867 "},"ò":{"ha":913,"x_min":0,"x_max":0,"o":"m 454 -17 b 176 94 343 -17 250 20 b 65 363 102 167 65 257 l 65 365 b 178 637 65 472 103 562 b 457 749 253 711 346 749 b 735 638 568 749 661 712 b 847 368 810 563 847 474 l 847 365 b 735 95 847 260 810 170 b 454 -17 660 21 566 -17 m 457 131 b 618 198 524 131 577 153 b 679 363 659 243 679 298 l 679 365 b 615 533 679 431 658 487 b 454 601 573 578 519 601 b 294 534 388 601 335 579 b 233 368 254 489 233 434 l 233 365 b 297 199 233 300 255 245 b 457 131 340 153 393 131 m 460 819 b 363 857 421 819 388 832 l 268 946 b 244 988 252 960 244 974 b 277 1024 244 1000 255 1013 b 344 1042 299 1036 321 1042 b 411 1001 372 1042 394 1028 l 490 879 b 503 849 499 867 503 857 b 460 819 503 829 488 819 "},"ó":{"ha":913,"x_min":0,"x_max":0,"o":"m 451 819 b 410 849 424 819 410 829 b 421 879 410 858 413 868 l 500 1001 b 567 1042 517 1028 539 1042 b 634 1024 590 1042 612 1036 b 667 988 656 1013 667 1000 b 643 946 667 974 659 960 l 550 857 b 451 819 523 832 490 819 m 454 -17 b 176 94 343 -17 250 20 b 65 363 102 167 65 257 l 65 365 b 178 637 65 472 103 562 b 457 749 253 711 346 749 b 735 638 568 749 661 712 b 847 368 810 563 847 474 l 847 365 b 735 95 847 260 810 170 b 454 -17 660 21 566 -17 m 457 131 b 618 198 524 131 577 153 b 679 363 659 243 679 298 l 679 365 b 615 533 679 431 658 487 b 454 601 573 578 519 601 b 294 534 388 601 335 579 b 233 368 254 489 233 434 l 233 365 b 297 199 233 300 255 245 b 457 131 340 153 393 131 "},"ô":{"ha":913,"x_min":0,"x_max":0,"o":"m 382 857 b 279 819 352 832 318 819 b 242 847 254 819 242 829 b 258 881 242 855 247 866 l 350 996 b 431 1036 372 1023 399 1036 l 481 1036 b 561 996 513 1036 540 1023 l 653 881 b 669 847 664 866 669 855 b 629 819 669 829 656 819 b 526 857 591 819 557 832 l 454 919 m 454 -17 b 176 94 343 -17 250 20 b 65 363 102 167 65 257 l 65 365 b 178 637 65 472 103 562 b 457 749 253 711 346 749 b 735 638 568 749 661 712 b 847 368 810 563 847 474 l 847 365 b 735 95 847 260 810 170 b 454 -17 660 21 566 -17 m 457 131 b 618 198 524 131 577 153 b 679 363 659 243 679 298 l 679 365 b 615 533 679 431 658 487 b 454 601 573 578 519 601 b 294 534 388 601 335 579 b 233 368 254 489 233 434 l 233 365 b 297 199 233 300 255 245 b 457 131 340 153 393 131 "},"õ":{"ha":913,"x_min":0,"x_max":0,"o":"m 454 -17 b 176 94 343 -17 250 20 b 65 363 102 167 65 257 l 65 365 b 178 637 65 472 103 562 b 457 749 253 711 346 749 b 735 638 568 749 661 712 b 847 368 810 563 847 474 l 847 365 b 735 95 847 260 810 170 b 454 -17 660 21 566 -17 m 457 131 b 618 198 524 131 577 153 b 679 363 659 243 679 298 l 679 365 b 615 533 679 431 658 487 b 454 601 573 578 519 601 b 294 534 388 601 335 579 b 233 368 254 489 233 434 l 233 365 b 297 199 233 300 255 245 b 457 131 340 153 393 131 m 304 838 b 258 810 292 819 277 810 b 222 824 244 810 232 814 b 207 856 212 833 207 844 b 213 888 207 864 209 875 b 269 983 228 930 247 962 b 354 1014 291 1003 319 1014 b 464 986 382 1014 419 1005 b 554 958 509 968 539 958 b 618 1003 581 958 602 973 b 664 1031 630 1021 645 1031 b 700 1017 678 1031 690 1026 b 715 985 710 1007 715 997 b 710 953 715 976 713 966 b 653 858 694 910 675 878 b 568 826 632 837 603 826 b 458 854 540 826 504 836 b 368 882 413 873 383 882 b 304 838 341 882 320 867 "},"ö":{"ha":913,"x_min":0,"x_max":0,"o":"m 594 1000 b 658 976 619 1000 641 992 b 685 914 676 959 685 939 l 685 904 b 658 843 685 879 676 859 b 594 819 641 827 619 819 b 529 843 569 819 547 827 b 503 904 512 859 503 879 l 503 914 b 529 976 503 939 512 959 b 594 1000 547 992 569 1000 m 318 1000 b 382 976 343 1000 364 992 b 408 914 400 959 408 939 l 408 904 b 382 843 408 879 400 859 b 318 819 364 827 343 819 b 253 843 292 819 270 827 b 226 904 235 859 226 879 l 226 914 b 253 976 226 939 235 959 b 318 1000 270 992 292 1000 m 454 -17 b 176 94 343 -17 250 20 b 65 363 102 167 65 257 l 65 365 b 178 637 65 472 103 562 b 457 749 253 711 346 749 b 735 638 568 749 661 712 b 847 368 810 563 847 474 l 847 365 b 735 95 847 260 810 170 b 454 -17 660 21 566 -17 m 457 131 b 618 198 524 131 577 153 b 679 363 659 243 679 298 l 679 365 b 615 533 679 431 658 487 b 454 601 573 578 519 601 b 294 534 388 601 335 579 b 233 368 254 489 233 434 l 233 365 b 297 199 233 300 255 245 b 457 131 340 153 393 131 "},"÷":{"ha":881,"x_min":0,"x_max":0,"o":"m 160 417 b 108 438 139 417 122 424 b 88 489 94 453 88 469 b 108 540 88 508 94 525 b 160 561 122 554 139 561 l 721 561 b 772 540 741 561 758 554 b 793 489 786 525 793 508 b 772 438 793 469 786 453 b 721 417 758 424 741 417 m 440 874 b 508 847 466 874 489 865 b 536 782 527 828 536 807 l 536 775 b 508 709 536 749 527 727 b 440 682 490 691 467 682 b 372 709 413 682 391 691 b 344 775 354 727 344 749 l 344 782 b 373 847 344 807 354 828 b 440 874 392 865 414 874 m 440 296 b 508 269 467 296 490 287 b 536 203 527 251 536 229 l 536 196 b 508 131 536 170 527 148 b 440 104 490 113 467 104 b 372 131 413 104 391 113 b 344 196 354 148 344 170 l 344 203 b 372 269 344 229 354 251 b 440 296 391 287 413 296 "},"ø":{"ha":913,"x_min":0,"x_max":0,"o":"m 454 -17 b 229 50 371 -17 296 6 l 189 8 b 136 -17 172 -8 155 -17 b 98 -1 121 -17 109 -12 b 82 35 87 9 82 21 b 106 86 82 53 90 70 l 146 128 b 65 363 92 194 65 273 l 65 365 b 178 637 65 472 103 562 b 457 749 253 711 346 749 b 682 681 541 749 616 726 l 724 724 b 776 749 740 740 758 749 b 815 734 791 749 804 744 b 831 699 825 724 831 713 b 807 646 831 681 823 663 l 765 604 b 847 368 820 535 847 456 l 847 365 b 735 95 847 260 810 170 b 454 -17 660 21 566 -17 m 229 365 b 260 243 229 322 239 281 l 578 568 b 454 606 541 593 500 606 b 292 537 388 606 333 583 b 229 368 250 491 229 435 l 229 365 m 457 126 b 621 195 525 126 579 149 b 683 363 663 241 683 297 l 683 365 b 651 488 683 410 673 450 l 333 163 b 457 126 369 138 410 126 "},"ù":{"ha":861,"x_min":0,"x_max":0,"o":"m 757 76 b 732 17 757 53 749 34 b 672 -7 715 1 695 -7 b 613 17 649 -7 629 1 b 588 76 596 34 588 53 l 588 114 b 358 -15 529 28 453 -15 b 167 61 277 -15 213 10 b 97 267 120 112 97 181 l 97 657 b 122 717 97 680 105 700 b 181 742 138 733 157 742 b 241 717 205 742 225 733 b 265 657 257 700 265 680 l 265 317 b 306 185 265 260 279 216 b 422 139 334 154 372 139 b 542 187 471 139 511 155 b 588 319 572 219 588 263 l 588 657 b 612 717 588 680 596 700 b 672 742 628 733 648 742 b 732 717 695 742 715 733 b 757 657 749 700 757 680 m 429 819 b 332 857 390 819 358 832 l 238 946 b 214 988 222 960 214 974 b 247 1024 214 1000 225 1013 b 314 1042 268 1036 291 1042 b 381 1001 342 1042 364 1028 l 460 879 b 472 849 468 867 472 857 b 429 819 472 829 458 819 "},"ú":{"ha":861,"x_min":0,"x_max":0,"o":"m 421 819 b 379 849 393 819 379 829 b 390 879 379 858 383 868 l 469 1001 b 536 1042 486 1028 508 1042 b 603 1024 559 1042 582 1036 b 636 988 625 1013 636 1000 b 613 946 636 974 628 960 l 519 857 b 421 819 493 832 460 819 m 757 76 b 732 17 757 53 749 34 b 672 -7 715 1 695 -7 b 613 17 649 -7 629 1 b 588 76 596 34 588 53 l 588 114 b 358 -15 529 28 453 -15 b 167 61 277 -15 213 10 b 97 267 120 112 97 181 l 97 657 b 122 717 97 680 105 700 b 181 742 138 733 157 742 b 241 717 205 742 225 733 b 265 657 257 700 265 680 l 265 317 b 306 185 265 260 279 216 b 422 139 334 154 372 139 b 542 187 471 139 511 155 b 588 319 572 219 588 263 l 588 657 b 612 717 588 680 596 700 b 672 742 628 733 648 742 b 732 717 695 742 715 733 b 757 657 749 700 757 680 "},"û":{"ha":861,"x_min":0,"x_max":0,"o":"m 351 857 b 249 819 322 832 288 819 b 211 847 224 819 211 829 b 228 881 211 855 217 866 l 319 996 b 400 1036 342 1023 369 1036 l 450 1036 b 531 996 482 1036 509 1023 l 622 881 b 639 847 633 866 639 855 b 599 819 639 829 625 819 b 496 857 561 819 526 832 l 424 919 m 757 76 b 732 17 757 53 749 34 b 672 -7 715 1 695 -7 b 613 17 649 -7 629 1 b 588 76 596 34 588 53 l 588 114 b 358 -15 529 28 453 -15 b 167 61 277 -15 213 10 b 97 267 120 112 97 181 l 97 657 b 122 717 97 680 105 700 b 181 742 138 733 157 742 b 241 717 205 742 225 733 b 265 657 257 700 265 680 l 265 317 b 306 185 265 260 279 216 b 422 139 334 154 372 139 b 542 187 471 139 511 155 b 588 319 572 219 588 263 l 588 657 b 612 717 588 680 596 700 b 672 742 628 733 648 742 b 732 717 695 742 715 733 b 757 657 749 700 757 680 "},"ü":{"ha":861,"x_min":0,"x_max":0,"o":"m 564 1000 b 628 976 589 1000 610 992 b 654 914 645 959 654 939 l 654 904 b 628 843 654 879 645 859 b 564 819 610 827 589 819 b 499 843 538 819 516 827 b 472 904 481 859 472 879 l 472 914 b 499 976 472 939 481 959 b 564 1000 516 992 538 1000 m 288 1000 b 351 976 313 1000 334 992 b 378 914 369 959 378 939 l 378 904 b 351 843 378 879 369 859 b 288 819 334 827 313 819 b 222 843 262 819 240 827 b 196 904 205 859 196 879 l 196 914 b 222 976 196 939 205 959 b 288 1000 240 992 262 1000 m 757 76 b 732 17 757 53 749 34 b 672 -7 715 1 695 -7 b 613 17 649 -7 629 1 b 588 76 596 34 588 53 l 588 114 b 358 -15 529 28 453 -15 b 167 61 277 -15 213 10 b 97 267 120 112 97 181 l 97 657 b 122 717 97 680 105 700 b 181 742 138 733 157 742 b 241 717 205 742 225 733 b 265 657 257 700 265 680 l 265 317 b 306 185 265 260 279 216 b 422 139 334 154 372 139 b 542 187 471 139 511 155 b 588 319 572 219 588 263 l 588 657 b 612 717 588 680 596 700 b 672 742 628 733 648 742 b 732 717 695 742 715 733 b 757 657 749 700 757 680 "},"ý":{"ha":815,"x_min":0,"x_max":0,"o":"m 239 -226 b 122 -206 196 -226 157 -219 b 69 -136 87 -194 69 -170 b 90 -86 69 -116 76 -99 b 138 -67 103 -73 119 -67 b 168 -72 147 -67 157 -69 b 226 -82 191 -79 211 -82 b 287 -65 251 -82 272 -76 b 331 -4 302 -53 317 -33 l 336 11 l 64 619 b 54 660 57 634 54 648 b 78 718 54 683 62 702 b 138 742 94 734 113 742 b 219 678 175 742 203 720 l 417 190 l 600 678 b 681 742 617 720 644 742 b 738 719 703 742 722 734 b 761 663 753 703 761 685 b 754 622 761 650 759 636 l 486 -21 b 383 -180 455 -96 420 -149 b 239 -226 346 -211 298 -226 m 404 819 b 363 849 376 819 363 829 b 374 879 363 858 366 868 l 453 1001 b 519 1042 469 1028 492 1042 b 587 1024 543 1042 565 1036 b 619 988 609 1013 619 1000 b 596 946 619 974 612 960 l 503 857 b 404 819 476 832 443 819 "},"þ":{"ha":932,"x_min":0,"x_max":0,"o":"m 106 938 b 129 997 106 961 113 980 b 189 1021 145 1013 165 1021 b 249 997 213 1021 233 1013 b 274 938 266 980 274 961 l 274 611 b 524 749 338 703 422 749 b 763 646 615 749 695 714 b 864 368 830 577 864 485 l 864 365 b 763 88 864 250 830 157 b 524 -15 696 19 616 -15 b 274 114 422 -15 338 28 l 274 -146 b 249 -205 274 -169 266 -189 b 189 -229 233 -221 213 -229 b 130 -205 166 -229 146 -221 b 106 -146 114 -189 106 -169 m 483 131 b 633 195 543 131 592 152 b 693 365 673 238 693 295 l 693 368 b 632 538 693 438 673 494 b 483 603 591 581 542 603 b 333 537 425 603 375 581 b 269 368 291 493 269 437 l 269 365 b 333 197 269 297 291 241 b 483 131 375 153 425 131 "},"ÿ":{"ha":815,"x_min":0,"x_max":0,"o":"m 239 -226 b 122 -206 196 -226 157 -219 b 69 -136 87 -194 69 -170 b 90 -86 69 -116 76 -99 b 138 -67 103 -73 119 -67 b 168 -72 147 -67 157 -69 b 226 -82 191 -79 211 -82 b 287 -65 251 -82 272 -76 b 331 -4 302 -53 317 -33 l 336 11 l 64 619 b 54 660 57 634 54 648 b 78 718 54 683 62 702 b 138 742 94 734 113 742 b 219 678 175 742 203 720 l 417 190 l 600 678 b 681 742 617 720 644 742 b 738 719 703 742 722 734 b 761 663 753 703 761 685 b 754 622 761 650 759 636 l 486 -21 b 383 -180 455 -96 420 -149 b 239 -226 346 -211 298 -226 m 547 1000 b 611 976 572 1000 594 992 b 638 914 629 959 638 939 l 638 904 b 611 843 638 879 629 859 b 547 819 594 827 572 819 b 482 843 521 819 500 827 b 456 904 464 859 456 879 l 456 914 b 482 976 456 939 464 959 b 547 1000 500 992 521 1000 m 271 1000 b 335 976 296 1000 317 992 b 361 914 352 959 361 939 l 361 904 b 335 843 361 879 352 859 b 271 819 317 827 296 819 b 206 843 245 819 223 827 b 179 904 188 859 179 879 l 179 914 b 206 976 179 939 188 959 b 271 1000 223 992 245 1000 "},"Ā":{"ha":1074,"x_min":0,"x_max":0,"o":"m 58 72 b 69 111 58 83 62 96 l 431 917 b 533 986 452 963 486 986 l 542 986 b 643 917 588 986 622 963 l 1004 111 b 1014 75 1011 99 1014 87 b 991 17 1014 52 1006 32 b 933 -7 976 1 956 -7 b 850 53 894 -7 867 13 l 771 235 l 299 235 l 217 47 b 138 -7 202 11 175 -7 b 81 16 115 -7 97 1 b 58 72 66 31 58 50 m 706 386 l 535 779 l 364 386 m 350 1082 b 307 1100 333 1082 319 1088 b 289 1143 295 1112 289 1126 b 307 1186 289 1160 295 1174 b 350 1204 319 1198 333 1204 l 719 1204 b 763 1186 736 1204 750 1198 b 781 1143 775 1174 781 1160 b 763 1100 781 1126 775 1112 b 719 1082 750 1088 736 1082 "},"ā":{"ha":815,"x_min":0,"x_max":0,"o":"m 317 -15 b 133 45 244 -15 183 5 b 57 211 82 85 57 141 l 57 214 b 139 390 57 291 84 349 b 360 450 194 430 267 450 b 557 419 427 450 493 440 l 557 438 b 510 556 557 489 541 529 b 375 597 479 584 434 597 b 213 568 316 597 262 588 b 186 564 203 565 194 564 b 136 584 167 564 150 571 b 115 633 122 597 115 614 b 161 700 115 666 131 688 b 397 743 237 729 316 743 b 640 661 506 743 588 716 b 719 435 693 609 719 534 l 719 74 b 696 16 719 50 712 31 b 638 -7 680 1 661 -7 b 578 14 613 -7 594 0 b 556 64 563 28 556 44 l 556 92 b 317 -15 496 20 417 -15 m 364 107 b 504 151 420 107 467 122 b 560 264 541 180 560 218 l 560 314 b 393 343 510 333 454 343 b 267 310 339 343 297 332 b 221 221 236 289 221 259 l 221 218 b 261 137 221 184 234 157 b 364 107 288 117 322 107 m 224 842 b 181 860 207 842 193 848 b 163 903 169 872 163 886 b 181 946 163 919 169 934 b 224 964 193 958 207 964 l 593 964 b 636 946 610 964 624 958 b 654 903 648 934 654 919 b 636 860 654 886 648 872 b 593 842 624 848 610 842 "},"Ă":{"ha":1074,"x_min":0,"x_max":0,"o":"m 58 72 b 69 111 58 83 62 96 l 431 917 b 533 986 452 963 486 986 l 542 986 b 643 917 588 986 622 963 l 1004 111 b 1014 75 1011 99 1014 87 b 991 17 1014 52 1006 32 b 933 -7 976 1 956 -7 b 850 53 894 -7 867 13 l 771 235 l 299 235 l 217 47 b 138 -7 202 11 175 -7 b 81 16 115 -7 97 1 b 58 72 66 31 58 50 m 706 386 l 535 779 l 364 386 m 535 1064 b 322 1175 435 1064 364 1101 b 311 1218 315 1190 311 1204 b 328 1260 311 1235 317 1249 b 369 1278 339 1272 353 1278 b 422 1246 393 1278 410 1267 b 535 1182 446 1203 484 1182 b 647 1246 588 1182 625 1203 b 700 1278 659 1267 677 1278 b 742 1260 717 1278 731 1272 b 758 1218 753 1249 758 1235 b 747 1175 758 1204 755 1190 b 535 1064 706 1101 635 1064 "},"ă":{"ha":815,"x_min":0,"x_max":0,"o":"m 317 -15 b 133 45 244 -15 183 5 b 57 211 82 85 57 141 l 57 214 b 139 390 57 291 84 349 b 360 450 194 430 267 450 b 557 419 427 450 493 440 l 557 438 b 510 556 557 489 541 529 b 375 597 479 584 434 597 b 213 568 316 597 262 588 b 186 564 203 565 194 564 b 136 584 167 564 150 571 b 115 633 122 597 115 614 b 161 700 115 666 131 688 b 397 743 237 729 316 743 b 640 661 506 743 588 716 b 719 435 693 609 719 534 l 719 74 b 696 16 719 50 712 31 b 638 -7 680 1 661 -7 b 578 14 613 -7 594 0 b 556 64 563 28 556 44 l 556 92 b 317 -15 496 20 417 -15 m 364 107 b 504 151 420 107 467 122 b 560 264 541 180 560 218 l 560 314 b 393 343 510 333 454 343 b 267 310 339 343 297 332 b 221 221 236 289 221 259 l 221 218 b 261 137 221 184 234 157 b 364 107 288 117 322 107 m 408 824 b 196 935 308 824 238 861 b 185 978 188 950 185 964 b 201 1020 185 994 190 1009 b 243 1038 213 1032 226 1038 b 296 1006 266 1038 284 1027 b 408 942 320 963 357 942 b 521 1006 461 942 499 963 b 574 1038 533 1027 550 1038 b 615 1020 590 1038 604 1032 b 632 978 626 1009 632 994 b 621 935 632 964 628 950 b 408 824 579 861 508 824 "},"Ą":{"ha":1097,"x_min":0,"x_max":0,"o":"m 69 72 b 81 111 69 80 73 93 l 442 917 b 544 986 463 963 497 986 l 554 986 b 656 917 600 986 634 963 l 1018 108 b 1028 72 1025 94 1028 81 b 996 6 1028 50 1017 28 b 943 -87 961 -29 943 -60 b 1004 -144 943 -115 963 -134 b 1050 -187 1035 -152 1050 -166 b 994 -231 1050 -216 1031 -231 b 869 -201 945 -231 903 -221 b 817 -114 834 -182 817 -153 b 881 11 817 -75 838 -33 l 782 235 l 310 235 l 229 47 b 149 -7 213 11 187 -7 b 92 16 126 -7 108 1 b 69 72 77 31 69 50 m 717 386 l 546 779 l 375 386 "},"ą":{"ha":815,"x_min":0,"x_max":0,"o":"m 503 -118 b 576 15 503 -75 527 -31 b 556 90 563 28 556 53 l 556 92 b 317 -15 496 20 417 -15 b 133 45 244 -15 183 5 b 57 211 82 85 57 141 l 57 214 b 139 390 57 291 84 349 b 360 450 194 430 267 450 b 557 419 427 450 493 440 l 557 438 b 510 556 557 489 541 529 b 375 597 479 584 434 597 b 213 568 316 597 262 588 b 186 564 203 565 194 564 b 136 584 167 564 150 571 b 115 633 122 597 115 614 b 161 700 115 666 131 688 b 397 743 237 729 316 743 b 640 661 506 743 588 716 b 719 435 693 609 719 534 l 719 72 b 686 6 719 49 708 27 b 631 -89 649 -31 631 -62 b 690 -144 631 -116 650 -134 b 736 -187 721 -152 736 -166 b 681 -231 736 -216 718 -231 b 555 -202 631 -231 590 -221 b 503 -118 520 -183 503 -155 m 364 107 b 504 151 420 107 467 122 b 560 264 541 180 560 218 l 560 314 b 393 343 510 333 454 343 b 267 310 339 343 297 332 b 221 221 236 289 221 259 l 221 218 b 261 137 221 184 234 157 b 364 107 288 117 322 107 "},"Ć":{"ha":1025,"x_min":0,"x_max":0,"o":"m 563 1060 b 521 1089 535 1060 521 1069 b 532 1119 521 1098 525 1108 l 611 1242 b 678 1282 628 1269 650 1282 b 745 1265 701 1282 723 1276 b 778 1228 767 1253 778 1241 b 754 1186 778 1214 770 1200 l 661 1097 b 563 1060 634 1072 601 1060 m 576 -17 b 224 128 436 -17 318 31 b 82 483 129 224 82 343 l 82 486 b 224 843 82 627 129 746 b 583 989 318 940 438 989 b 917 879 710 989 821 952 b 950 811 939 863 950 840 b 926 752 950 788 942 768 b 865 728 909 736 889 728 b 814 744 846 728 829 733 b 582 832 742 803 664 832 b 353 733 490 832 414 799 b 261 489 292 666 261 585 l 261 486 b 353 242 261 390 292 308 b 582 142 414 175 490 142 b 825 235 671 142 752 173 b 876 254 840 248 857 254 b 933 231 898 254 916 246 b 957 175 949 215 957 196 b 929 114 957 151 948 131 b 576 -17 830 27 713 -17 "},"ć":{"ha":793,"x_min":0,"x_max":0,"o":"m 433 819 b 392 849 406 819 392 829 b 403 879 392 858 395 868 l 482 1001 b 549 1042 499 1028 521 1042 b 616 1024 572 1042 594 1036 b 649 988 638 1013 649 1000 b 625 946 649 974 641 960 l 532 857 b 433 819 505 832 472 819 m 444 -17 b 174 94 336 -17 246 20 b 65 363 101 167 65 257 l 65 365 b 174 636 65 471 102 561 b 447 749 247 711 338 749 b 704 657 548 749 634 718 b 731 599 722 641 731 622 b 708 544 731 577 723 559 b 653 522 692 530 674 522 b 603 539 634 522 618 528 b 446 601 553 581 500 601 b 294 533 386 601 335 579 b 233 368 254 488 233 433 l 233 365 b 295 199 233 300 254 244 b 453 131 336 153 389 131 b 617 196 511 131 566 152 b 663 214 631 208 646 214 b 714 192 683 214 700 207 b 735 140 728 178 735 161 b 711 88 735 118 727 100 b 444 -17 639 18 550 -17 "},"Ċ":{"ha":1025,"x_min":0,"x_max":0,"o":"m 576 -17 b 224 128 436 -17 318 31 b 82 483 129 224 82 343 l 82 486 b 224 843 82 627 129 746 b 583 989 318 940 438 989 b 917 879 710 989 821 952 b 950 811 939 863 950 840 b 926 752 950 788 942 768 b 865 728 909 736 889 728 b 814 744 846 728 829 733 b 582 832 742 803 664 832 b 353 733 490 832 414 799 b 261 489 292 666 261 585 l 261 486 b 353 242 261 390 292 308 b 582 142 414 175 490 142 b 825 235 671 142 752 173 b 876 254 840 248 857 254 b 933 231 898 254 916 246 b 957 175 949 215 957 196 b 929 114 957 151 948 131 b 576 -17 830 27 713 -17 m 661 1144 b 634 1083 661 1119 652 1099 b 567 1060 616 1068 594 1060 b 501 1083 541 1060 519 1068 b 474 1144 483 1099 474 1119 l 474 1154 b 501 1216 474 1179 483 1200 b 567 1240 519 1232 541 1240 b 633 1216 593 1240 615 1232 b 661 1154 652 1200 661 1179 "},"ċ":{"ha":793,"x_min":0,"x_max":0,"o":"m 444 -17 b 174 94 336 -17 246 20 b 65 363 101 167 65 257 l 65 365 b 174 636 65 471 102 561 b 447 749 247 711 338 749 b 704 657 548 749 634 718 b 731 599 722 641 731 622 b 708 544 731 577 723 559 b 653 522 692 530 674 522 b 603 539 634 522 618 528 b 446 601 553 581 500 601 b 294 533 386 601 335 579 b 233 368 254 488 233 433 l 233 365 b 295 199 233 300 254 244 b 453 131 336 153 389 131 b 617 196 511 131 566 152 b 663 214 631 208 646 214 b 714 192 683 214 700 207 b 735 140 728 178 735 161 b 711 88 735 118 727 100 b 444 -17 639 18 550 -17 m 532 904 b 505 843 532 879 523 859 b 438 819 487 827 464 819 b 372 843 412 819 390 827 b 344 904 353 859 344 879 l 344 914 b 372 976 344 939 353 959 b 438 1000 390 992 412 1000 b 504 976 463 1000 486 992 b 532 914 523 959 532 939 "},"Č":{"ha":1025,"x_min":0,"x_max":0,"o":"m 640 1240 b 743 1278 671 1265 705 1278 b 781 1250 768 1278 781 1269 b 764 1217 781 1243 775 1231 l 672 1101 b 592 1061 651 1075 624 1061 l 542 1061 b 461 1101 510 1061 483 1075 l 369 1217 b 353 1250 358 1231 353 1243 b 393 1278 353 1269 366 1278 b 496 1240 432 1278 466 1265 l 568 1178 m 576 -17 b 224 128 436 -17 318 31 b 82 483 129 224 82 343 l 82 486 b 224 843 82 627 129 746 b 583 989 318 940 438 989 b 917 879 710 989 821 952 b 950 811 939 863 950 840 b 926 752 950 788 942 768 b 865 728 909 736 889 728 b 814 744 846 728 829 733 b 582 832 742 803 664 832 b 353 733 490 832 414 799 b 261 489 292 666 261 585 l 261 486 b 353 242 261 390 292 308 b 582 142 414 175 490 142 b 825 235 671 142 752 173 b 876 254 840 248 857 254 b 933 231 898 254 916 246 b 957 175 949 215 957 196 b 929 114 957 151 948 131 b 576 -17 830 27 713 -17 "},"č":{"ha":793,"x_min":0,"x_max":0,"o":"m 511 1000 b 614 1038 542 1025 576 1038 b 651 1010 639 1038 651 1028 b 635 976 651 1002 646 991 l 543 861 b 463 821 522 834 495 821 l 413 821 b 332 861 381 821 354 834 l 240 976 b 224 1010 229 991 224 1002 b 264 1038 224 1028 237 1038 b 367 1000 303 1038 337 1025 l 439 938 m 444 -17 b 174 94 336 -17 246 20 b 65 363 101 167 65 257 l 65 365 b 174 636 65 471 102 561 b 447 749 247 711 338 749 b 704 657 548 749 634 718 b 731 599 722 641 731 622 b 708 544 731 577 723 559 b 653 522 692 530 674 522 b 603 539 634 522 618 528 b 446 601 553 581 500 601 b 294 533 386 601 335 579 b 233 368 254 488 233 433 l 233 365 b 295 199 233 300 254 244 b 453 131 336 153 389 131 b 617 196 511 131 566 152 b 663 214 631 208 646 214 b 714 192 683 214 700 207 b 735 140 728 178 735 161 b 711 88 735 118 727 100 b 444 -17 639 18 550 -17 "},"Ď":{"ha":1086,"x_min":0,"x_max":0,"o":"m 597 1226 b 700 1264 628 1251 662 1264 b 738 1236 725 1264 738 1255 b 721 1203 738 1229 732 1218 l 629 1088 b 549 1047 608 1061 581 1047 l 499 1047 b 418 1088 467 1047 440 1061 l 326 1203 b 310 1236 315 1218 310 1229 b 350 1264 310 1255 323 1264 b 453 1226 389 1264 423 1251 l 525 1164 m 125 886 b 150 947 125 910 133 931 b 211 972 167 964 187 972 l 488 972 b 859 834 638 972 762 926 b 1004 489 956 742 1004 627 l 1004 486 b 859 139 1004 347 956 231 b 488 0 762 46 638 0 l 211 0 b 150 25 187 0 167 8 b 125 86 133 42 125 62 m 488 156 b 732 247 588 156 670 186 b 825 483 794 308 825 387 l 825 486 b 732 724 825 582 794 662 b 488 817 670 786 588 817 l 296 817 l 296 156 "},"ď":{"ha":932,"x_min":0,"x_max":0,"o":"m 908 960 b 926 1003 909 977 915 992 b 969 1021 938 1015 952 1021 l 994 1021 b 1038 981 1023 1021 1038 1007 b 1032 949 1038 970 1036 960 l 981 781 b 940 746 973 757 960 746 b 913 757 929 746 920 750 b 904 788 906 764 903 775 m 826 76 b 802 17 826 53 818 34 b 743 -7 786 1 766 -7 b 683 17 719 -7 699 1 b 658 76 666 34 658 53 l 658 122 b 408 -15 594 31 510 -15 b 169 88 317 -15 237 19 b 68 365 102 157 68 250 l 68 368 b 169 646 68 485 102 577 b 408 749 236 714 316 749 b 658 619 509 749 593 706 l 658 938 b 683 997 658 961 666 980 b 742 1021 699 1013 719 1021 b 802 997 766 1021 786 1013 b 826 938 818 980 826 961 m 449 603 b 299 539 389 603 339 581 b 238 368 258 496 238 439 l 238 365 b 299 196 238 296 258 239 b 449 131 341 152 390 131 b 599 197 507 131 557 153 b 661 365 640 241 661 297 l 661 368 b 599 537 661 437 640 493 b 449 603 557 581 507 603 "},"Đ":{"ha":1128,"x_min":0,"x_max":0,"o":"m 167 565 l 167 886 b 192 947 167 910 175 931 b 253 972 208 964 229 972 l 529 972 b 901 834 680 972 804 926 b 1046 489 997 742 1046 627 l 1046 486 b 901 139 1046 347 997 231 b 529 0 804 46 680 0 l 253 0 b 192 25 229 0 208 8 b 167 86 175 42 167 62 l 167 413 l 131 413 b 78 435 110 413 93 420 b 56 489 63 450 56 468 b 77 543 56 510 63 528 b 131 565 91 558 109 565 m 336 565 l 513 565 b 566 543 534 565 552 558 b 588 489 580 528 588 510 b 565 435 588 468 580 450 b 513 413 550 420 533 413 l 336 413 l 336 156 l 529 156 b 774 247 630 156 712 186 b 867 483 836 308 867 387 l 867 486 b 774 724 867 582 836 662 b 529 817 712 786 630 817 l 336 817 "},"đ":{"ha":932,"x_min":0,"x_max":0,"o":"m 826 936 l 879 936 b 915 921 893 936 905 931 b 929 886 924 911 929 899 b 915 851 929 872 924 860 b 879 836 905 841 893 836 l 826 836 l 826 76 b 802 17 826 53 818 34 b 743 -7 786 1 766 -7 b 683 17 719 -7 699 1 b 658 76 666 34 658 53 l 658 122 b 408 -15 594 31 510 -15 b 169 88 317 -15 237 19 b 68 365 102 157 68 250 l 68 368 b 169 646 68 485 102 577 b 408 749 236 714 316 749 b 658 619 509 749 593 706 l 658 836 l 474 836 b 438 851 460 836 448 841 b 424 886 428 860 424 872 b 438 921 424 899 428 911 b 474 936 448 931 460 936 l 658 936 l 658 938 b 683 997 658 961 666 980 b 742 1021 699 1013 719 1021 b 802 997 766 1021 786 1013 b 826 938 818 980 826 961 m 449 603 b 299 539 389 603 339 581 b 238 368 258 496 238 439 l 238 365 b 299 196 238 296 258 239 b 449 131 341 152 390 131 b 599 197 507 131 557 153 b 661 365 640 241 661 297 l 661 368 b 599 537 661 437 640 493 b 449 603 557 581 507 603 "},"Ē":{"ha":931,"x_min":0,"x_max":0,"o":"m 211 0 b 150 25 187 0 167 8 b 125 86 133 42 125 62 l 125 886 b 150 947 125 910 133 931 b 211 972 167 964 187 972 l 776 972 b 831 950 798 972 816 965 b 853 896 845 935 853 917 b 831 842 853 875 845 856 b 776 819 816 827 798 819 l 296 819 l 296 567 l 714 567 b 768 544 735 567 753 559 b 790 489 783 528 790 510 b 768 436 790 469 783 451 b 714 414 753 421 735 414 l 296 414 l 296 153 l 783 153 b 837 131 804 153 822 145 b 860 76 852 116 860 98 b 838 22 860 55 852 37 b 783 0 823 7 805 0 l 211 0 m 303 1068 b 260 1086 286 1068 272 1074 b 242 1129 248 1098 242 1113 b 260 1172 242 1146 248 1160 b 303 1190 272 1184 286 1190 l 672 1190 b 715 1172 689 1190 703 1184 b 733 1129 727 1160 733 1146 b 715 1086 733 1113 727 1098 b 672 1068 703 1074 689 1068 "},"ē":{"ha":839,"x_min":0,"x_max":0,"o":"m 608 418 b 551 557 603 475 584 521 b 422 611 519 593 476 611 b 294 558 371 611 329 593 b 232 418 260 522 239 475 m 706 81 b 442 -17 633 16 545 -17 b 173 90 334 -17 245 19 b 65 364 101 160 65 252 l 65 367 b 167 638 65 473 99 563 b 424 749 234 712 320 749 b 617 692 498 749 562 730 b 735 556 671 655 711 609 b 772 388 760 503 772 447 b 749 330 772 364 765 345 b 693 307 734 315 715 307 l 233 307 b 304 170 243 249 266 203 b 444 121 342 137 389 121 b 618 185 508 121 566 142 b 661 200 631 195 645 200 b 708 181 680 200 695 194 b 728 132 721 168 728 151 b 706 81 728 113 720 95 m 236 842 b 193 860 219 842 205 848 b 175 903 181 872 175 886 b 193 946 175 919 181 934 b 236 964 205 958 219 964 l 606 964 b 649 946 622 964 637 958 b 667 903 661 934 667 919 b 649 860 667 886 661 872 b 606 842 637 848 622 842 "},"Ĕ":{"ha":931,"x_min":0,"x_max":0,"o":"m 211 0 b 150 25 187 0 167 8 b 125 86 133 42 125 62 l 125 886 b 150 947 125 910 133 931 b 211 972 167 964 187 972 l 776 972 b 831 950 798 972 816 965 b 853 896 845 935 853 917 b 831 842 853 875 845 856 b 776 819 816 827 798 819 l 296 819 l 296 567 l 714 567 b 768 544 735 567 753 559 b 790 489 783 528 790 510 b 768 436 790 469 783 451 b 714 414 753 421 735 414 l 296 414 l 296 153 l 783 153 b 837 131 804 153 822 145 b 860 76 852 116 860 98 b 838 22 860 55 852 37 b 783 0 823 7 805 0 l 211 0 m 488 1050 b 275 1161 388 1050 317 1087 b 264 1204 268 1176 264 1190 b 281 1247 264 1221 269 1235 b 322 1264 292 1258 306 1264 b 375 1232 345 1264 363 1253 b 488 1168 399 1189 437 1168 b 600 1232 540 1168 578 1189 b 653 1264 612 1253 630 1264 b 694 1247 669 1264 683 1258 b 711 1204 706 1235 711 1221 b 700 1161 711 1190 707 1176 b 488 1050 658 1087 588 1050 "},"ĕ":{"ha":839,"x_min":0,"x_max":0,"o":"m 608 418 b 551 557 603 475 584 521 b 422 611 519 593 476 611 b 294 558 371 611 329 593 b 232 418 260 522 239 475 m 706 81 b 442 -17 633 16 545 -17 b 173 90 334 -17 245 19 b 65 364 101 160 65 252 l 65 367 b 167 638 65 473 99 563 b 424 749 234 712 320 749 b 617 692 498 749 562 730 b 735 556 671 655 711 609 b 772 388 760 503 772 447 b 749 330 772 364 765 345 b 693 307 734 315 715 307 l 233 307 b 304 170 243 249 266 203 b 444 121 342 137 389 121 b 618 185 508 121 566 142 b 661 200 631 195 645 200 b 708 181 680 200 695 194 b 728 132 721 168 728 151 b 706 81 728 113 720 95 m 421 824 b 208 935 321 824 250 861 b 197 978 201 950 197 964 b 214 1020 197 994 203 1009 b 256 1038 225 1032 239 1038 b 308 1006 279 1038 296 1027 b 421 942 332 963 370 942 b 533 1006 474 942 511 963 b 586 1038 545 1027 563 1038 b 628 1020 603 1038 617 1032 b 644 978 639 1009 644 994 b 633 935 644 964 641 950 b 421 824 592 861 521 824 "},"Ė":{"ha":931,"x_min":0,"x_max":0,"o":"m 211 0 b 150 25 187 0 167 8 b 125 86 133 42 125 62 l 125 886 b 150 947 125 910 133 931 b 211 972 167 964 187 972 l 776 972 b 831 950 798 972 816 965 b 853 896 845 935 853 917 b 831 842 853 875 845 856 b 776 819 816 827 798 819 l 296 819 l 296 567 l 714 567 b 768 544 735 567 753 559 b 790 489 783 528 790 510 b 768 436 790 469 783 451 b 714 414 753 421 735 414 l 296 414 l 296 153 l 783 153 b 837 131 804 153 822 145 b 860 76 852 116 860 98 b 838 22 860 55 852 37 b 783 0 823 7 805 0 l 211 0 m 582 1131 b 555 1069 582 1106 573 1085 b 488 1046 537 1054 514 1046 b 422 1069 462 1046 440 1054 b 394 1131 403 1085 394 1106 l 394 1140 b 422 1202 394 1165 403 1186 b 488 1226 440 1218 462 1226 b 554 1202 513 1226 536 1218 b 582 1140 573 1186 582 1165 "},"ė":{"ha":839,"x_min":0,"x_max":0,"o":"m 608 418 b 551 557 603 475 584 521 b 422 611 519 593 476 611 b 294 558 371 611 329 593 b 232 418 260 522 239 475 m 706 81 b 442 -17 633 16 545 -17 b 173 90 334 -17 245 19 b 65 364 101 160 65 252 l 65 367 b 167 638 65 473 99 563 b 424 749 234 712 320 749 b 617 692 498 749 562 730 b 735 556 671 655 711 609 b 772 388 760 503 772 447 b 749 330 772 364 765 345 b 693 307 734 315 715 307 l 233 307 b 304 170 243 249 266 203 b 444 121 342 137 389 121 b 618 185 508 121 566 142 b 661 200 631 195 645 200 b 708 181 680 200 695 194 b 728 132 721 168 728 151 b 706 81 728 113 720 95 m 515 904 b 488 843 515 879 506 859 b 421 819 470 827 448 819 b 355 843 395 819 373 827 b 328 904 337 859 328 879 l 328 914 b 355 976 328 939 337 959 b 421 1000 373 992 395 1000 b 488 976 447 1000 469 992 b 515 914 506 959 515 939 "},"Ę":{"ha":931,"x_min":0,"x_max":0,"o":"m 211 0 b 150 25 187 0 167 8 b 125 86 133 42 125 62 l 125 886 b 150 947 125 910 133 931 b 211 972 167 964 187 972 l 776 972 b 831 950 798 972 816 965 b 853 896 845 935 853 917 b 831 842 853 875 845 856 b 776 819 816 827 798 819 l 296 819 l 296 567 l 714 567 b 768 544 735 567 753 559 b 790 489 783 528 790 510 b 768 436 790 469 783 451 b 714 414 753 421 735 414 l 296 414 l 296 153 l 782 153 b 838 132 804 153 823 146 b 860 82 852 118 860 101 b 851 42 860 65 857 52 b 817 4 845 33 833 20 b 758 -87 778 -29 758 -60 b 818 -144 758 -115 778 -134 b 865 -187 850 -151 865 -165 b 810 -231 865 -216 847 -231 b 683 -202 760 -231 717 -221 b 631 -114 648 -183 631 -154 b 688 0 631 -79 650 -41 l 211 0 "},"ę":{"ha":839,"x_min":0,"x_max":0,"o":"m 772 388 b 749 330 772 364 765 345 b 693 307 734 315 715 307 l 233 307 b 304 170 243 249 266 203 b 444 121 342 137 389 121 b 618 185 508 121 566 142 b 661 200 631 195 645 200 b 708 181 680 200 695 194 b 728 132 721 168 728 151 b 706 81 728 114 720 97 b 676 53 698 73 688 64 b 646 25 664 43 654 33 b 585 -81 605 -13 585 -48 b 599 -123 585 -100 590 -114 b 646 -144 609 -132 625 -139 b 692 -187 676 -152 692 -166 b 638 -231 692 -216 674 -231 b 508 -200 585 -231 542 -220 b 458 -111 475 -180 458 -150 b 506 -11 458 -81 474 -47 b 442 -17 478 -15 456 -17 b 173 90 334 -17 245 19 b 65 364 101 160 65 252 l 65 367 b 167 638 65 473 99 563 b 424 749 234 712 320 749 b 617 692 498 749 562 730 b 735 556 671 655 711 609 b 772 388 760 503 772 447 m 608 418 b 551 557 603 475 584 521 b 422 611 519 593 476 611 b 294 558 371 611 329 593 b 232 418 260 522 239 475 "},"Ě":{"ha":931,"x_min":0,"x_max":0,"o":"m 561 1226 b 664 1264 592 1251 626 1264 b 701 1236 689 1264 701 1255 b 685 1203 701 1229 696 1218 l 593 1088 b 513 1047 572 1061 545 1047 l 463 1047 b 382 1088 431 1047 404 1061 l 290 1203 b 274 1236 279 1218 274 1229 b 314 1264 274 1255 287 1264 b 417 1226 353 1264 387 1251 l 489 1164 m 211 0 b 150 25 187 0 167 8 b 125 86 133 42 125 62 l 125 886 b 150 947 125 910 133 931 b 211 972 167 964 187 972 l 776 972 b 831 950 798 972 816 965 b 853 896 845 935 853 917 b 831 842 853 875 845 856 b 776 819 816 827 798 819 l 296 819 l 296 567 l 714 567 b 768 544 735 567 753 559 b 790 489 783 528 790 510 b 768 436 790 469 783 451 b 714 414 753 421 735 414 l 296 414 l 296 153 l 783 153 b 837 131 804 153 822 145 b 860 76 852 116 860 98 b 838 22 860 55 852 37 b 783 0 823 7 805 0 l 211 0 "},"ě":{"ha":839,"x_min":0,"x_max":0,"o":"m 494 1000 b 597 1038 525 1025 559 1038 b 635 1010 622 1038 635 1028 b 618 976 635 1002 629 991 l 526 861 b 446 821 505 834 478 821 l 396 821 b 315 861 364 821 338 834 l 224 976 b 207 1010 213 991 207 1002 b 247 1038 207 1028 220 1038 b 350 1000 286 1038 320 1025 l 422 938 m 608 418 b 551 557 603 475 584 521 b 422 611 519 593 476 611 b 294 558 371 611 329 593 b 232 418 260 522 239 475 m 706 81 b 442 -17 633 16 545 -17 b 173 90 334 -17 245 19 b 65 364 101 160 65 252 l 65 367 b 167 638 65 473 99 563 b 424 749 234 712 320 749 b 617 692 498 749 562 730 b 735 556 671 655 711 609 b 772 388 760 503 772 447 b 749 330 772 364 765 345 b 693 307 734 315 715 307 l 233 307 b 304 170 243 249 266 203 b 444 121 342 137 389 121 b 618 185 508 121 566 142 b 661 200 631 195 645 200 b 708 181 680 200 695 194 b 728 132 721 168 728 151 b 706 81 728 113 720 95 "},"Ğ":{"ha":1089,"x_min":0,"x_max":0,"o":"m 586 -17 b 222 126 436 -17 315 31 b 82 483 128 221 82 340 l 82 486 b 224 842 82 625 129 744 b 583 989 319 940 439 989 b 915 890 713 989 824 956 b 950 821 938 873 950 850 b 925 761 950 798 942 778 b 865 736 908 744 888 736 b 813 756 849 736 831 743 b 576 832 743 806 664 832 b 352 731 488 832 413 798 b 261 489 291 664 261 583 l 261 486 b 353 237 261 385 292 302 b 592 139 414 172 494 139 b 826 213 682 139 761 163 l 826 394 l 635 394 b 581 416 613 394 595 402 b 558 468 566 430 558 448 b 581 521 558 488 566 506 b 635 543 595 536 613 543 l 906 543 b 967 518 930 543 950 535 b 992 457 983 501 992 481 l 992 197 b 932 89 992 150 972 114 b 586 -17 826 19 711 -17 m 572 1064 b 360 1175 472 1064 401 1101 b 349 1218 352 1190 349 1204 b 365 1260 349 1235 354 1249 b 407 1278 376 1272 390 1278 b 460 1246 430 1278 448 1267 b 572 1182 484 1203 521 1182 b 685 1246 625 1182 663 1203 b 738 1278 697 1267 714 1278 b 779 1260 754 1278 768 1272 b 796 1218 790 1249 796 1235 b 785 1175 796 1204 792 1190 b 572 1064 743 1101 672 1064 "},"ğ":{"ha":932,"x_min":0,"x_max":0,"o":"m 432 -225 b 149 -160 333 -225 238 -203 b 101 -93 117 -148 101 -125 b 122 -44 101 -75 108 -58 b 172 -24 136 -31 153 -24 b 203 -31 183 -24 194 -26 b 428 -89 272 -69 347 -89 b 600 -31 503 -89 560 -70 b 660 136 640 7 660 63 l 660 193 b 401 58 590 103 504 58 b 167 152 311 58 232 90 b 68 401 101 215 68 298 l 68 404 b 167 654 68 508 101 591 b 401 749 234 717 312 749 b 658 624 503 749 589 707 l 658 658 b 683 717 658 681 666 701 b 742 742 699 734 719 742 b 802 717 766 742 786 733 b 826 657 818 700 826 680 l 826 150 b 733 -126 826 28 795 -64 b 432 -225 668 -192 567 -225 m 446 201 b 598 258 505 201 556 220 b 661 403 640 296 661 344 l 661 406 b 598 550 661 464 640 512 b 446 607 556 588 505 607 b 297 551 387 607 337 588 b 238 406 257 513 238 465 l 238 403 b 298 258 238 344 258 295 b 446 201 338 220 388 201 m 453 824 b 240 935 353 824 282 861 b 229 978 233 950 229 964 b 246 1020 229 994 235 1009 b 288 1038 257 1032 271 1038 b 340 1006 311 1038 328 1027 b 453 942 364 963 402 942 b 565 1006 506 942 543 963 b 618 1038 577 1027 595 1038 b 660 1020 635 1038 649 1032 b 676 978 671 1009 676 994 b 665 935 676 964 673 950 b 453 824 624 861 553 824 "},"Ġ":{"ha":1089,"x_min":0,"x_max":0,"o":"m 586 -17 b 222 126 436 -17 315 31 b 82 483 128 221 82 340 l 82 486 b 224 842 82 625 129 744 b 583 989 319 940 439 989 b 915 890 713 989 824 956 b 950 821 938 873 950 850 b 925 761 950 798 942 778 b 865 736 908 744 888 736 b 813 756 849 736 831 743 b 576 832 743 806 664 832 b 352 731 488 832 413 798 b 261 489 291 664 261 583 l 261 486 b 353 237 261 385 292 302 b 592 139 414 172 494 139 b 826 213 682 139 761 163 l 826 394 l 635 394 b 581 416 613 394 595 402 b 558 468 566 430 558 448 b 581 521 558 488 566 506 b 635 543 595 536 613 543 l 906 543 b 967 518 930 543 950 535 b 992 457 983 501 992 481 l 992 197 b 932 89 992 150 972 114 b 586 -17 826 19 711 -17 m 667 1144 b 640 1083 667 1119 658 1099 b 572 1060 622 1068 599 1060 b 506 1083 546 1060 524 1068 b 479 1144 488 1099 479 1119 l 479 1154 b 506 1216 479 1179 488 1200 b 572 1240 524 1232 546 1240 b 639 1216 598 1240 620 1232 b 667 1154 657 1200 667 1179 "},"ġ":{"ha":932,"x_min":0,"x_max":0,"o":"m 432 -225 b 149 -160 333 -225 238 -203 b 101 -93 117 -148 101 -125 b 122 -44 101 -75 108 -58 b 172 -24 136 -31 153 -24 b 203 -31 183 -24 194 -26 b 428 -89 272 -69 347 -89 b 600 -31 503 -89 560 -70 b 660 136 640 7 660 63 l 660 193 b 401 58 590 103 504 58 b 167 152 311 58 232 90 b 68 401 101 215 68 298 l 68 404 b 167 654 68 508 101 591 b 401 749 234 717 312 749 b 658 624 503 749 589 707 l 658 658 b 683 717 658 681 666 701 b 742 742 699 734 719 742 b 802 717 766 742 786 733 b 826 657 818 700 826 680 l 826 150 b 733 -126 826 28 795 -64 b 432 -225 668 -192 567 -225 m 446 201 b 598 258 505 201 556 220 b 661 403 640 296 661 344 l 661 406 b 598 550 661 464 640 512 b 446 607 556 588 505 607 b 297 551 387 607 337 588 b 238 406 257 513 238 465 l 238 403 b 298 258 238 344 258 295 b 446 201 338 220 388 201 m 547 904 b 520 843 547 879 538 859 b 453 819 502 827 480 819 b 387 843 427 819 405 827 b 360 904 369 859 360 879 l 360 914 b 387 976 360 939 369 959 b 453 1000 405 992 427 1000 b 519 976 479 1000 501 992 b 547 914 538 959 547 939 "},"Ģ":{"ha":1089,"x_min":0,"x_max":0,"o":"m 560 -235 b 485 -161 510 -226 485 -202 l 485 -158 b 508 -106 485 -137 493 -119 b 569 -85 524 -92 544 -85 b 634 -111 596 -85 618 -94 b 658 -182 650 -129 658 -152 l 658 -186 b 599 -336 658 -252 638 -302 b 479 -382 565 -367 525 -382 b 443 -353 455 -382 443 -372 b 472 -324 443 -338 453 -328 b 560 -235 532 -311 562 -281 m 586 -17 b 222 126 436 -17 315 31 b 82 483 128 221 82 340 l 82 486 b 224 842 82 625 129 744 b 583 989 319 940 439 989 b 915 890 713 989 824 956 b 950 821 938 873 950 850 b 925 761 950 798 942 778 b 865 736 908 744 888 736 b 813 756 849 736 831 743 b 576 832 743 806 664 832 b 352 731 488 832 413 798 b 261 489 291 664 261 583 l 261 486 b 353 237 261 385 292 302 b 592 139 414 172 494 139 b 826 213 682 139 761 163 l 826 394 l 635 394 b 581 416 613 394 595 402 b 558 468 566 430 558 448 b 581 521 558 488 566 506 b 635 543 595 536 613 543 l 906 543 b 967 518 930 543 950 535 b 992 457 983 501 992 481 l 992 197 b 932 89 992 150 972 114 b 586 -17 826 19 711 -17 "},"ģ":{"ha":932,"x_min":0,"x_max":0,"o":"m 463 968 b 538 894 513 960 538 935 l 538 892 b 514 839 538 870 530 853 b 453 818 498 825 478 818 b 388 844 426 818 404 827 b 364 915 372 862 364 886 l 364 919 b 424 1069 364 985 384 1035 b 543 1115 457 1100 497 1115 b 579 1086 567 1115 579 1106 b 550 1057 579 1071 569 1062 b 463 968 490 1044 461 1014 m 432 -225 b 149 -160 333 -225 238 -203 b 101 -93 117 -148 101 -125 b 122 -44 101 -75 108 -58 b 172 -24 136 -31 153 -24 b 203 -31 183 -24 194 -26 b 428 -89 272 -69 347 -89 b 600 -31 503 -89 560 -70 b 660 136 640 7 660 63 l 660 193 b 401 58 590 103 504 58 b 167 152 311 58 232 90 b 68 401 101 215 68 298 l 68 404 b 167 654 68 508 101 591 b 401 749 234 717 312 749 b 658 624 503 749 589 707 l 658 658 b 683 717 658 681 666 701 b 742 742 699 734 719 742 b 802 717 766 742 786 733 b 826 657 818 700 826 680 l 826 150 b 733 -126 826 28 795 -64 b 432 -225 668 -192 567 -225 m 446 201 b 598 258 505 201 556 220 b 661 403 640 296 661 344 l 661 406 b 598 550 661 464 640 512 b 446 607 556 588 505 607 b 297 551 387 607 337 588 b 238 406 257 513 238 465 l 238 403 b 298 258 238 344 258 295 b 446 201 338 220 388 201 "},"Ħ":{"ha":1081,"x_min":0,"x_max":0,"o":"m 138 710 l 92 710 b 49 728 75 710 61 716 b 31 769 37 740 31 754 b 49 813 31 786 37 800 b 92 831 61 825 75 831 l 138 831 l 138 894 b 163 955 138 919 146 939 b 224 979 179 971 200 979 b 283 955 247 979 267 971 b 308 894 300 939 308 919 l 308 831 l 772 831 l 772 894 b 797 955 772 919 781 939 b 857 979 814 971 834 979 b 918 955 881 979 901 971 b 943 894 935 939 943 919 l 943 831 l 988 831 b 1031 813 1004 831 1019 825 b 1049 769 1043 800 1049 786 b 1031 728 1049 754 1043 740 b 988 710 1019 716 1004 710 l 943 710 l 943 78 b 918 17 943 54 935 34 b 857 -7 901 1 881 -7 b 797 17 834 -7 814 1 b 772 78 781 34 772 54 l 772 410 l 308 410 l 308 78 b 283 17 308 54 300 34 b 224 -7 267 1 247 -7 b 163 17 200 -7 179 1 b 138 78 146 34 138 54 m 772 568 l 772 710 l 308 710 l 308 568 "},"ħ":{"ha":861,"x_min":0,"x_max":0,"o":"m 106 836 l 53 836 b 17 851 39 836 27 841 b 3 886 8 860 3 872 b 17 921 3 899 8 911 b 53 936 27 931 39 936 l 106 936 l 106 938 b 130 997 106 961 114 980 b 189 1021 146 1013 166 1021 b 249 997 212 1021 232 1013 b 274 938 265 980 274 961 l 274 936 l 458 936 b 494 921 472 936 484 931 b 508 886 503 911 508 899 b 494 851 508 872 503 860 b 458 836 484 841 472 836 l 274 836 l 274 621 b 503 749 333 706 409 749 b 694 673 584 749 648 723 b 764 468 741 622 764 554 l 764 76 b 740 17 764 53 756 34 b 681 -7 725 1 705 -7 b 620 17 656 -7 636 1 b 596 76 604 34 596 53 l 596 417 b 555 549 596 474 582 518 b 439 596 528 580 489 596 b 319 547 390 596 350 580 b 274 414 289 515 274 470 l 274 76 b 249 17 274 53 266 34 b 189 -7 233 1 213 -7 b 130 17 166 -7 146 1 b 106 76 114 34 106 53 "},"Ī":{"ha":440,"x_min":0,"x_max":0,"o":"m 135 894 b 160 955 135 919 143 939 b 221 979 176 971 197 979 b 281 955 244 979 264 971 b 306 894 297 939 306 919 l 306 78 b 281 17 306 54 297 34 b 221 -7 264 1 244 -7 b 160 17 197 -7 176 1 b 135 78 143 34 135 54 m 36 1068 b -7 1086 19 1068 5 1074 b -25 1129 -19 1098 -25 1113 b -7 1172 -25 1146 -19 1160 b 36 1190 5 1184 19 1190 l 406 1190 b 449 1172 422 1190 437 1184 b 467 1129 461 1160 467 1146 b 449 1086 467 1113 461 1098 b 406 1068 437 1074 422 1068 "},"ī":{"ha":397,"x_min":0,"x_max":0,"o":"m 115 657 b 140 717 115 681 123 701 b 199 742 156 734 175 742 b 258 717 222 742 242 733 b 283 657 275 700 283 680 l 283 76 b 259 17 283 53 275 34 b 199 -7 243 1 223 -7 b 140 17 175 -7 156 1 b 115 76 123 34 115 53 m 14 842 b -29 860 -3 842 -17 848 b -47 903 -41 872 -47 886 b -29 946 -47 919 -41 934 b 14 964 -17 958 -3 964 l 383 964 b 426 946 400 964 414 958 b 444 903 438 934 444 919 b 426 860 444 886 438 872 b 383 842 414 848 400 842 "},"Ĭ":{"ha":440,"x_min":0,"x_max":0,"o":"m 135 894 b 160 955 135 919 143 939 b 221 979 176 971 197 979 b 281 955 244 979 264 971 b 306 894 297 939 306 919 l 306 78 b 281 17 306 54 297 34 b 221 -7 264 1 244 -7 b 160 17 197 -7 176 1 b 135 78 143 34 135 54 m 221 1050 b 8 1161 121 1050 50 1087 b -3 1204 1 1176 -3 1190 b 14 1247 -3 1221 3 1235 b 56 1264 25 1258 39 1264 b 108 1232 79 1264 96 1253 b 221 1168 132 1189 170 1168 b 333 1232 274 1168 311 1189 b 386 1264 345 1253 363 1264 b 428 1247 403 1264 417 1258 b 444 1204 439 1235 444 1221 b 433 1161 444 1190 441 1176 b 221 1050 392 1087 321 1050 "},"ĭ":{"ha":397,"x_min":0,"x_max":0,"o":"m 115 657 b 140 717 115 681 123 701 b 199 742 156 734 175 742 b 258 717 222 742 242 733 b 283 657 275 700 283 680 l 283 76 b 259 17 283 53 275 34 b 199 -7 243 1 223 -7 b 140 17 175 -7 156 1 b 115 76 123 34 115 53 m 199 824 b -14 935 99 824 28 861 b -25 978 -21 950 -25 964 b -8 1020 -25 994 -19 1009 b 33 1038 3 1032 17 1038 b 86 1006 56 1038 74 1027 b 199 942 110 963 148 942 b 311 1006 251 942 289 963 b 364 1038 323 1027 341 1038 b 406 1020 381 1038 394 1032 b 422 978 417 1009 422 994 b 411 935 422 964 419 950 b 199 824 369 861 299 824 "},"Į":{"ha":440,"x_min":0,"x_max":0,"o":"m 93 -114 b 160 15 93 -75 115 -32 b 135 72 143 30 135 49 l 135 894 b 160 955 135 919 143 939 b 221 979 176 971 197 979 b 281 955 244 979 264 971 b 306 894 297 939 306 919 l 306 76 b 274 7 306 51 295 28 b 219 -87 238 -30 219 -62 b 281 -144 219 -115 240 -134 b 328 -187 312 -151 328 -165 b 272 -231 328 -216 309 -231 b 145 -201 222 -231 180 -221 b 93 -114 110 -182 93 -153 "},"į":{"ha":397,"x_min":0,"x_max":0,"o":"m 283 72 b 250 6 283 49 272 27 b 194 -89 213 -31 194 -62 b 254 -144 194 -116 214 -134 b 300 -187 285 -152 300 -166 b 244 -231 300 -216 281 -231 b 119 -202 195 -231 153 -221 b 67 -118 84 -183 67 -155 b 140 15 67 -74 91 -29 b 115 71 124 30 115 49 l 115 657 b 140 717 115 681 123 701 b 199 742 156 734 175 742 b 258 717 222 742 242 733 b 283 657 275 700 283 680 m 103 931 b 130 990 103 956 112 975 b 199 1013 148 1005 171 1013 b 267 990 226 1013 249 1005 b 294 931 285 975 294 956 l 294 922 b 267 862 294 897 285 877 b 199 839 249 847 226 839 b 130 862 171 839 148 847 b 103 922 112 877 103 897 "},"İ":{"ha":440,"x_min":0,"x_max":0,"o":"m 135 894 b 160 955 135 919 143 939 b 221 979 176 971 197 979 b 281 955 244 979 264 971 b 306 894 297 939 306 919 l 306 78 b 281 17 306 54 297 34 b 221 -7 264 1 244 -7 b 160 17 197 -7 176 1 b 135 78 143 34 135 54 m 315 1131 b 288 1069 315 1106 306 1085 b 221 1046 270 1054 248 1046 b 155 1069 195 1046 173 1054 b 128 1131 137 1085 128 1106 l 128 1140 b 155 1202 128 1165 137 1186 b 221 1226 173 1218 195 1226 b 288 1202 247 1226 269 1218 b 315 1140 306 1186 315 1165 "},"ı":{"ha":397,"x_min":0,"x_max":0,"o":"m 115 657 b 140 717 115 681 123 701 b 199 742 156 734 175 742 b 258 717 222 742 242 733 b 283 657 275 700 283 680 l 283 76 b 259 17 283 53 275 34 b 199 -7 243 1 223 -7 b 140 17 175 -7 156 1 b 115 76 123 34 115 53 "},"Ķ":{"ha":990,"x_min":0,"x_max":0,"o":"m 494 -224 b 419 -150 444 -215 419 -191 l 419 -147 b 443 -94 419 -126 427 -108 b 504 -74 459 -81 479 -74 b 569 -100 531 -74 553 -82 b 593 -171 585 -118 593 -141 l 593 -175 b 533 -325 593 -241 573 -291 b 414 -371 500 -356 460 -371 b 378 -342 390 -371 378 -361 b 407 -312 378 -327 388 -317 b 494 -224 467 -300 496 -270 m 125 894 b 150 955 125 919 133 939 b 211 979 167 971 187 979 b 272 955 235 979 255 971 b 296 894 288 939 296 919 l 296 483 l 757 947 b 828 979 776 969 800 979 b 885 956 851 979 870 971 b 907 900 900 940 907 921 b 876 836 907 876 897 855 l 574 544 l 901 138 b 925 76 917 117 925 97 b 900 17 925 53 917 34 b 839 -7 883 1 863 -7 b 767 33 811 -7 787 6 l 454 432 l 296 279 l 296 78 b 272 17 296 54 288 34 b 211 -7 255 1 235 -7 b 150 17 187 -7 167 1 b 125 78 133 34 125 54 "},"ķ":{"ha":806,"x_min":0,"x_max":0,"o":"m 410 -231 b 335 -157 360 -222 335 -198 l 335 -154 b 358 -101 335 -133 343 -115 b 419 -81 374 -87 394 -81 b 484 -107 446 -81 468 -89 b 508 -178 500 -125 508 -148 l 508 -182 b 449 -332 508 -248 488 -298 b 329 -378 415 -362 375 -378 b 293 -349 305 -378 293 -368 b 322 -319 293 -333 303 -323 b 410 -231 382 -306 412 -277 m 106 938 b 130 997 106 961 114 980 b 189 1021 146 1013 166 1021 b 249 997 212 1021 232 1013 b 274 938 265 980 274 961 l 274 396 l 589 706 b 661 742 613 730 637 742 b 714 719 682 742 700 734 b 735 665 728 705 735 687 b 697 594 735 641 722 618 l 503 415 l 725 125 b 747 69 740 105 747 86 b 724 15 747 47 740 29 b 668 -7 709 0 690 -7 b 594 31 638 -7 614 6 l 385 310 l 274 204 l 274 76 b 249 17 274 53 266 34 b 189 -7 233 1 213 -7 b 130 17 166 -7 146 1 b 106 76 114 34 106 53 "},"Ĺ":{"ha":860,"x_min":0,"x_max":0,"o":"m 235 1046 b 193 1075 207 1046 193 1056 b 204 1106 193 1084 197 1094 l 283 1228 b 350 1268 300 1255 322 1268 b 417 1251 373 1268 396 1262 b 450 1214 439 1239 450 1227 b 426 1172 450 1200 442 1186 l 333 1083 b 235 1046 306 1058 274 1046 m 125 894 b 150 955 125 919 133 939 b 211 979 167 971 187 979 b 272 955 235 979 255 971 b 296 894 288 939 296 919 l 296 156 l 736 156 b 791 133 757 156 776 148 b 814 78 806 117 814 99 b 791 23 814 56 806 38 b 736 0 776 8 757 0 l 211 0 b 150 25 187 0 167 8 b 125 86 133 42 125 62 "},"ĺ":{"ha":397,"x_min":0,"x_max":0,"o":"m 196 1069 b 154 1099 168 1069 154 1079 b 165 1129 154 1108 158 1118 l 244 1251 b 311 1292 261 1278 283 1292 b 378 1274 334 1292 357 1286 b 411 1238 400 1263 411 1250 b 388 1196 411 1224 403 1210 l 294 1107 b 196 1069 268 1082 235 1069 m 115 938 b 140 997 115 961 123 980 b 199 1021 156 1013 175 1021 b 258 997 222 1021 242 1013 b 283 938 275 980 283 961 l 283 76 b 259 17 283 53 275 34 b 199 -7 243 1 223 -7 b 140 17 175 -7 156 1 b 115 76 123 34 115 53 "},"Ļ":{"ha":860,"x_min":0,"x_max":0,"o":"m 451 -231 b 376 -157 401 -222 376 -198 l 376 -154 b 400 -101 376 -133 384 -115 b 461 -81 416 -87 436 -81 b 526 -107 488 -81 509 -89 b 550 -178 542 -125 550 -148 l 550 -182 b 490 -332 550 -248 530 -298 b 371 -378 457 -362 417 -378 b 335 -349 347 -378 335 -368 b 364 -319 335 -333 344 -323 b 451 -231 424 -306 453 -277 m 125 894 b 150 955 125 919 133 939 b 211 979 167 971 187 979 b 272 955 235 979 255 971 b 296 894 288 939 296 919 l 296 156 l 736 156 b 791 133 757 156 776 148 b 814 78 806 117 814 99 b 791 23 814 56 806 38 b 736 0 776 8 757 0 l 211 0 b 150 25 187 0 167 8 b 125 86 133 42 125 62 "},"ļ":{"ha":397,"x_min":0,"x_max":0,"o":"m 188 -231 b 113 -157 138 -222 113 -198 l 113 -154 b 136 -101 113 -133 120 -115 b 197 -81 152 -87 172 -81 b 262 -107 224 -81 246 -89 b 286 -178 278 -125 286 -148 l 286 -182 b 226 -332 286 -248 266 -298 b 107 -378 193 -362 153 -378 b 71 -349 83 -378 71 -368 b 100 -319 71 -333 81 -323 b 188 -231 160 -306 189 -277 m 115 938 b 140 997 115 961 123 980 b 199 1021 156 1013 175 1021 b 258 997 222 1021 242 1013 b 283 938 275 980 283 961 l 283 76 b 259 17 283 53 275 34 b 199 -7 243 1 223 -7 b 140 17 175 -7 156 1 b 115 76 123 34 115 53 "},"Ľ":{"ha":860,"x_min":0,"x_max":0,"o":"m 417 914 b 435 958 418 931 424 946 b 478 975 446 969 460 975 l 503 975 b 546 935 531 975 546 962 b 540 903 546 925 544 914 l 489 735 b 449 700 481 712 468 700 b 422 711 438 700 428 704 b 413 742 415 719 412 729 m 125 894 b 150 955 125 919 133 939 b 211 979 167 971 187 979 b 272 955 235 979 255 971 b 296 894 288 939 296 919 l 296 156 l 736 156 b 791 133 757 156 776 148 b 814 78 806 117 814 99 b 791 23 814 56 806 38 b 736 0 776 8 757 0 l 211 0 b 150 25 187 0 167 8 b 125 86 133 42 125 62 "},"ľ":{"ha":397,"x_min":0,"x_max":0,"o":"m 365 960 b 383 1003 366 977 372 992 b 426 1021 394 1015 409 1021 l 451 1021 b 494 981 480 1021 494 1007 b 489 949 494 970 493 960 l 438 781 b 397 746 430 757 417 746 b 370 757 386 746 377 750 b 361 788 363 764 360 775 m 115 938 b 140 997 115 961 123 980 b 199 1021 156 1013 175 1021 b 258 997 222 1021 242 1013 b 283 938 275 980 283 961 l 283 76 b 259 17 283 53 275 34 b 199 -7 243 1 223 -7 b 140 17 175 -7 156 1 b 115 76 123 34 115 53 "},"Ŀ":{"ha":860,"x_min":0,"x_max":0,"o":"m 125 894 b 150 955 125 919 133 939 b 211 979 167 971 187 979 b 272 955 235 979 255 971 b 296 894 288 939 296 919 l 296 156 l 736 156 b 791 133 757 156 776 148 b 814 78 806 117 814 99 b 791 23 814 56 806 38 b 736 0 776 8 757 0 l 211 0 b 150 25 187 0 167 8 b 125 86 133 42 125 62 m 754 519 b 727 458 754 494 745 474 b 660 435 709 443 687 435 b 594 458 634 435 612 443 b 567 519 576 474 567 494 l 567 529 b 594 591 567 554 576 575 b 660 615 612 607 634 615 b 726 591 686 615 708 607 b 754 529 745 575 754 554 "},"ŀ":{"ha":510,"x_min":0,"x_max":0,"o":"m 531 513 b 509 458 531 491 523 473 b 454 436 495 444 476 436 b 399 458 432 436 414 444 b 378 513 385 473 378 491 l 378 528 b 399 582 378 549 385 567 b 454 604 414 597 432 604 b 509 582 476 604 495 597 b 531 528 523 567 531 549 m 115 938 b 140 997 115 961 123 980 b 199 1021 156 1013 175 1021 b 258 997 222 1021 242 1013 b 283 938 275 980 283 961 l 283 76 b 259 17 283 53 275 34 b 199 -7 243 1 223 -7 b 140 17 175 -7 156 1 b 115 76 123 34 115 53 "},"Ł":{"ha":901,"x_min":0,"x_max":0,"o":"m 336 438 l 336 156 l 778 156 b 833 133 799 156 817 148 b 856 78 848 117 856 99 b 833 23 856 56 848 38 b 778 0 817 8 799 0 l 253 0 b 192 25 229 0 208 8 b 167 86 175 42 167 62 l 167 386 l 158 383 b 148 382 156 383 152 383 b 138 380 144 381 140 380 b 131 379 135 379 132 379 b 77 402 109 379 91 387 b 56 457 63 417 56 436 b 110 529 56 494 74 518 l 167 546 l 167 894 b 192 955 167 919 175 939 b 251 979 208 971 228 979 b 311 955 275 979 294 971 b 336 894 328 939 336 919 l 336 597 l 521 653 b 549 657 530 656 539 657 b 601 635 569 657 587 650 b 624 581 616 620 624 602 b 569 508 624 543 606 519 "},"ł":{"ha":481,"x_min":0,"x_max":0,"o":"m 324 461 l 324 76 b 299 17 324 53 316 34 b 240 -7 283 1 263 -7 b 181 17 217 -7 197 1 b 157 76 165 34 157 53 l 157 411 l 144 408 b 117 404 135 406 126 404 b 63 426 95 404 78 412 b 42 481 49 441 42 459 b 96 553 42 518 60 542 b 157 571 113 558 134 564 l 157 938 b 181 997 157 961 165 980 b 240 1021 197 1013 217 1021 b 299 997 263 1021 283 1013 b 324 938 316 980 324 961 l 324 621 l 336 625 b 364 629 345 628 355 629 b 417 607 385 629 403 622 b 439 553 432 592 439 574 b 385 481 439 514 421 490 "},"Ń":{"ha":1097,"x_min":0,"x_max":0,"o":"m 543 1046 b 501 1075 515 1046 501 1056 b 513 1106 501 1084 505 1094 l 592 1228 b 658 1268 608 1255 631 1268 b 726 1251 681 1268 704 1262 b 758 1214 747 1239 758 1227 b 735 1172 758 1200 750 1186 l 642 1083 b 543 1046 615 1058 582 1046 m 125 892 b 150 953 125 916 133 936 b 211 978 167 969 187 978 l 229 978 b 318 928 262 978 291 961 l 804 299 l 804 896 b 828 955 804 919 812 939 b 888 979 845 971 864 979 b 947 955 911 979 931 971 b 972 896 964 939 972 919 l 972 79 b 948 19 972 55 964 35 b 889 -6 932 3 912 -6 l 882 -6 b 793 46 850 -6 820 12 l 293 693 l 293 76 b 269 17 293 53 285 34 b 210 -7 253 1 233 -7 b 150 17 187 -7 167 1 b 125 76 133 34 125 53 "},"ń":{"ha":861,"x_min":0,"x_max":0,"o":"m 429 819 b 388 849 401 819 388 829 b 399 879 388 858 391 868 l 478 1001 b 544 1042 494 1028 517 1042 b 612 1024 568 1042 590 1036 b 644 988 634 1013 644 1000 b 621 946 644 974 637 960 l 528 857 b 429 819 501 832 468 819 m 106 657 b 130 717 106 681 114 701 b 189 742 146 734 166 742 b 249 717 213 742 233 733 b 274 657 266 700 274 680 l 274 621 b 503 749 333 706 409 749 b 694 673 584 749 648 723 b 764 468 741 622 764 554 l 764 76 b 740 17 764 53 756 34 b 681 -7 725 1 705 -7 b 620 17 656 -7 636 1 b 596 76 604 34 596 53 l 596 417 b 555 549 596 474 582 518 b 439 596 528 580 489 596 b 319 547 390 596 350 580 b 274 414 289 515 274 470 l 274 76 b 249 17 274 53 266 34 b 189 -7 233 1 213 -7 b 130 17 166 -7 146 1 b 106 76 114 34 106 53 "},"Ņ":{"ha":1097,"x_min":0,"x_max":0,"o":"m 536 -224 b 461 -150 486 -215 461 -191 l 461 -147 b 485 -94 461 -126 469 -108 b 546 -74 500 -81 521 -74 b 610 -100 573 -74 594 -82 b 635 -171 627 -118 635 -141 l 635 -175 b 575 -325 635 -241 615 -291 b 456 -371 542 -356 502 -371 b 419 -342 431 -371 419 -361 b 449 -312 419 -327 429 -317 b 536 -224 509 -300 538 -270 m 125 892 b 150 953 125 916 133 936 b 211 978 167 969 187 978 l 229 978 b 318 928 262 978 291 961 l 804 299 l 804 896 b 828 955 804 919 812 939 b 888 979 845 971 864 979 b 947 955 911 979 931 971 b 972 896 964 939 972 919 l 972 79 b 948 19 972 55 964 35 b 889 -6 932 3 912 -6 l 882 -6 b 793 46 850 -6 820 12 l 293 693 l 293 76 b 269 17 293 53 285 34 b 210 -7 253 1 233 -7 b 150 17 187 -7 167 1 b 125 76 133 34 125 53 "},"ņ":{"ha":861,"x_min":0,"x_max":0,"o":"m 422 -231 b 347 -157 372 -222 347 -198 l 347 -154 b 371 -101 347 -133 355 -115 b 432 -81 387 -87 407 -81 b 497 -107 459 -81 480 -89 b 521 -178 513 -125 521 -148 l 521 -182 b 461 -332 521 -248 501 -298 b 342 -378 428 -362 388 -378 b 306 -349 318 -378 306 -368 b 335 -319 306 -333 315 -323 b 422 -231 395 -306 424 -277 m 106 657 b 130 717 106 681 114 701 b 189 742 146 734 166 742 b 249 717 213 742 233 733 b 274 657 266 700 274 680 l 274 621 b 503 749 333 706 409 749 b 694 673 584 749 648 723 b 764 468 741 622 764 554 l 764 76 b 740 17 764 53 756 34 b 681 -7 725 1 705 -7 b 620 17 656 -7 636 1 b 596 76 604 34 596 53 l 596 417 b 555 549 596 474 582 518 b 439 596 528 580 489 596 b 319 547 390 596 350 580 b 274 414 289 515 274 470 l 274 76 b 249 17 274 53 266 34 b 189 -7 233 1 213 -7 b 130 17 166 -7 146 1 b 106 76 114 34 106 53 "},"Ň":{"ha":1097,"x_min":0,"x_max":0,"o":"m 622 1226 b 725 1264 653 1251 687 1264 b 763 1236 750 1264 763 1255 b 746 1203 763 1229 757 1218 l 654 1088 b 574 1047 633 1061 606 1047 l 524 1047 b 443 1088 492 1047 465 1061 l 351 1203 b 335 1236 340 1218 335 1229 b 375 1264 335 1255 348 1264 b 478 1226 414 1264 448 1251 l 550 1164 m 125 892 b 150 953 125 916 133 936 b 211 978 167 969 187 978 l 229 978 b 318 928 262 978 291 961 l 804 299 l 804 896 b 828 955 804 919 812 939 b 888 979 845 971 864 979 b 947 955 911 979 931 971 b 972 896 964 939 972 919 l 972 79 b 948 19 972 55 964 35 b 889 -6 932 3 912 -6 l 882 -6 b 793 46 850 -6 820 12 l 293 693 l 293 76 b 269 17 293 53 285 34 b 210 -7 253 1 233 -7 b 150 17 187 -7 167 1 b 125 76 133 34 125 53 "},"ň":{"ha":861,"x_min":0,"x_max":0,"o":"m 507 1000 b 610 1038 538 1025 572 1038 b 647 1010 635 1038 647 1028 b 631 976 647 1002 642 991 l 539 861 b 458 821 518 834 491 821 l 408 821 b 328 861 377 821 350 834 l 236 976 b 219 1010 225 991 219 1002 b 260 1038 219 1028 233 1038 b 363 1000 299 1038 333 1025 l 435 938 m 106 657 b 130 717 106 681 114 701 b 189 742 146 734 166 742 b 249 717 213 742 233 733 b 274 657 266 700 274 680 l 274 621 b 503 749 333 706 409 749 b 694 673 584 749 648 723 b 764 468 741 622 764 554 l 764 76 b 740 17 764 53 756 34 b 681 -7 725 1 705 -7 b 620 17 656 -7 636 1 b 596 76 604 34 596 53 l 596 417 b 555 549 596 474 582 518 b 439 596 528 580 489 596 b 319 547 390 596 350 580 b 274 414 289 515 274 470 l 274 76 b 249 17 274 53 266 34 b 189 -7 233 1 213 -7 b 130 17 166 -7 146 1 b 106 76 114 34 106 53 "},"Ō":{"ha":1181,"x_min":0,"x_max":0,"o":"m 406 1082 b 363 1100 389 1082 375 1088 b 344 1143 350 1112 344 1126 b 363 1186 344 1160 350 1174 b 406 1204 375 1198 389 1204 l 775 1204 b 818 1186 792 1204 806 1198 b 836 1143 830 1174 836 1160 b 818 1100 836 1126 830 1112 b 775 1082 806 1088 792 1082 m 589 -17 b 225 129 442 -17 320 32 b 82 483 130 226 82 344 l 82 486 b 226 842 82 625 130 744 b 592 989 323 940 444 989 b 956 843 739 989 860 940 b 1099 489 1051 746 1099 628 l 1099 486 b 954 131 1099 347 1050 229 b 589 -17 858 32 736 -17 m 592 142 b 827 240 687 142 766 175 b 919 483 889 306 919 387 l 919 486 b 826 731 919 582 888 664 b 589 832 763 798 684 832 b 353 733 494 832 415 799 b 261 489 292 666 261 585 l 261 486 b 355 242 261 390 292 308 b 592 142 417 175 496 142 "},"ō":{"ha":913,"x_min":0,"x_max":0,"o":"m 271 842 b 228 860 254 842 240 848 b 210 903 216 872 210 886 b 228 946 210 919 216 934 b 271 964 240 958 254 964 l 640 964 b 683 946 657 964 671 958 b 701 903 695 934 701 919 b 683 860 701 886 695 872 b 640 842 671 848 657 842 m 454 -17 b 176 94 343 -17 250 20 b 65 363 102 167 65 257 l 65 365 b 178 637 65 472 103 562 b 457 749 253 711 346 749 b 735 638 568 749 661 712 b 847 368 810 563 847 474 l 847 365 b 735 95 847 260 810 170 b 454 -17 660 21 566 -17 m 457 131 b 618 198 524 131 577 153 b 679 363 659 243 679 298 l 679 365 b 615 533 679 431 658 487 b 454 601 573 578 519 601 b 294 534 388 601 335 579 b 233 368 254 489 233 434 l 233 365 b 297 199 233 300 255 245 b 457 131 340 153 393 131 "},"Ŏ":{"ha":1181,"x_min":0,"x_max":0,"o":"m 589 -17 b 225 129 442 -17 320 32 b 82 483 130 226 82 344 l 82 486 b 226 842 82 625 130 744 b 592 989 323 940 444 989 b 956 843 739 989 860 940 b 1099 489 1051 746 1099 628 l 1099 486 b 954 131 1099 347 1050 229 b 589 -17 858 32 736 -17 m 592 142 b 827 240 687 142 766 175 b 919 483 889 306 919 387 l 919 486 b 826 731 919 582 888 664 b 589 832 763 798 684 832 b 353 733 494 832 415 799 b 261 489 292 666 261 585 l 261 486 b 355 242 261 390 292 308 b 592 142 417 175 496 142 m 590 1064 b 378 1175 490 1064 419 1101 b 367 1218 370 1190 367 1204 b 383 1260 367 1235 372 1249 b 425 1278 394 1272 408 1278 b 478 1246 448 1278 466 1267 b 590 1182 502 1203 539 1182 b 703 1246 643 1182 681 1203 b 756 1278 715 1267 732 1278 b 797 1260 772 1278 786 1272 b 814 1218 808 1249 814 1235 b 803 1175 814 1204 810 1190 b 590 1064 761 1101 690 1064 "},"ŏ":{"ha":913,"x_min":0,"x_max":0,"o":"m 454 -17 b 176 94 343 -17 250 20 b 65 363 102 167 65 257 l 65 365 b 178 637 65 472 103 562 b 457 749 253 711 346 749 b 735 638 568 749 661 712 b 847 368 810 563 847 474 l 847 365 b 735 95 847 260 810 170 b 454 -17 660 21 566 -17 m 457 131 b 618 198 524 131 577 153 b 679 363 659 243 679 298 l 679 365 b 615 533 679 431 658 487 b 454 601 573 578 519 601 b 294 534 388 601 335 579 b 233 368 254 489 233 434 l 233 365 b 297 199 233 300 255 245 b 457 131 340 153 393 131 m 456 824 b 243 935 356 824 285 861 b 232 978 236 950 232 964 b 249 1020 232 994 238 1009 b 290 1038 260 1032 274 1038 b 343 1006 313 1038 331 1027 b 456 942 367 963 405 942 b 568 1006 508 942 546 963 b 621 1038 580 1027 598 1038 b 663 1020 638 1038 651 1032 b 679 978 674 1009 679 994 b 668 935 679 964 675 950 b 456 824 626 861 556 824 "},"Ő":{"ha":1181,"x_min":0,"x_max":0,"o":"m 699 1060 b 658 1089 672 1060 658 1069 b 669 1119 658 1098 662 1108 l 750 1242 b 814 1282 766 1269 787 1282 b 879 1265 836 1282 858 1276 b 911 1229 900 1254 911 1242 b 888 1186 911 1216 903 1202 l 794 1097 b 699 1060 768 1072 736 1060 m 444 1060 b 404 1089 418 1060 404 1069 b 415 1119 404 1098 408 1108 l 496 1242 b 560 1282 512 1269 533 1282 b 625 1265 582 1282 604 1276 b 657 1229 646 1254 657 1242 b 633 1186 657 1216 649 1202 l 540 1097 b 444 1060 514 1072 482 1060 m 589 -17 b 225 129 442 -17 320 32 b 82 483 130 226 82 344 l 82 486 b 226 842 82 625 130 744 b 592 989 323 940 444 989 b 956 843 739 989 860 940 b 1099 489 1051 746 1099 628 l 1099 486 b 954 131 1099 347 1050 229 b 589 -17 858 32 736 -17 m 592 142 b 827 240 687 142 766 175 b 919 483 889 306 919 387 l 919 486 b 826 731 919 582 888 664 b 589 832 763 798 684 832 b 353 733 494 832 415 799 b 261 489 292 666 261 585 l 261 486 b 355 242 261 390 292 308 b 592 142 417 175 496 142 "},"ő":{"ha":913,"x_min":0,"x_max":0,"o":"m 565 819 b 525 849 538 819 525 829 b 536 879 525 858 529 868 l 617 1001 b 681 1042 632 1028 654 1042 b 746 1025 703 1042 725 1036 b 778 989 767 1014 778 1002 b 754 946 778 976 770 962 l 661 857 b 565 819 634 832 602 819 m 311 819 b 271 849 284 819 271 829 b 282 879 271 858 275 868 l 363 1001 b 426 1042 378 1028 400 1042 b 492 1025 449 1042 470 1036 b 524 989 513 1014 524 1002 b 500 946 524 976 516 962 l 407 857 b 311 819 381 832 349 819 m 454 -17 b 176 94 343 -17 250 20 b 65 363 102 167 65 257 l 65 365 b 178 637 65 472 103 562 b 457 749 253 711 346 749 b 735 638 568 749 661 712 b 847 368 810 563 847 474 l 847 365 b 735 95 847 260 810 170 b 454 -17 660 21 566 -17 m 457 131 b 618 198 524 131 577 153 b 679 363 659 243 679 298 l 679 365 b 615 533 679 431 658 487 b 454 601 573 578 519 601 b 294 534 388 601 335 579 b 233 368 254 489 233 434 l 233 365 b 297 199 233 300 255 245 b 457 131 340 153 393 131 "},"Œ":{"ha":1525,"x_min":0,"x_max":0,"o":"m 599 0 b 226 138 447 0 323 46 b 82 483 130 229 82 344 l 82 486 b 227 833 82 625 130 741 b 599 972 324 926 448 972 l 1371 972 b 1426 950 1392 972 1410 965 b 1449 896 1441 935 1449 917 b 1426 842 1449 875 1441 856 b 1371 819 1410 827 1392 819 l 921 819 l 921 567 l 1308 567 b 1363 544 1330 567 1348 559 b 1386 489 1378 528 1386 510 b 1363 436 1386 469 1378 451 b 1308 414 1348 421 1330 414 l 921 414 l 921 153 l 1378 153 b 1433 131 1399 153 1417 145 b 1456 76 1448 116 1456 98 b 1433 22 1456 55 1448 37 b 1378 0 1417 7 1399 0 l 599 0 m 750 156 l 750 817 l 599 817 b 354 725 498 817 416 786 b 261 489 292 664 261 585 l 261 486 b 354 249 261 390 292 311 b 599 156 416 187 498 156 "},"œ":{"ha":1444,"x_min":0,"x_max":0,"o":"m 1214 418 b 1156 558 1207 475 1188 522 b 1028 611 1124 593 1081 611 b 899 558 977 611 934 593 b 836 418 865 522 844 475 m 453 131 b 610 198 518 131 570 153 b 669 363 650 243 669 298 l 669 365 b 607 533 669 431 649 487 b 450 601 565 578 513 601 b 294 533 386 601 334 579 b 233 368 253 488 233 433 l 233 365 b 296 199 233 300 254 245 b 453 131 338 153 390 131 m 1310 81 b 1047 -17 1238 16 1150 -17 b 874 24 984 -17 926 -3 b 744 138 821 52 778 89 b 617 25 712 90 670 53 b 446 -17 565 -3 508 -17 b 176 94 340 -17 250 20 b 65 363 102 169 65 258 l 65 365 b 178 636 65 471 103 561 b 453 749 253 711 344 749 b 622 708 514 749 570 735 b 746 597 673 681 714 644 b 867 708 777 644 818 681 b 1029 749 916 735 970 749 b 1284 638 1138 749 1222 712 b 1376 388 1346 565 1376 481 b 1353 330 1376 364 1369 345 b 1297 307 1338 315 1319 307 l 838 307 b 909 170 847 249 871 203 b 1049 121 947 137 994 121 b 1222 185 1113 121 1170 142 b 1265 200 1235 195 1250 200 b 1313 181 1285 200 1301 194 b 1332 132 1326 168 1332 151 b 1310 81 1332 111 1325 94 "},"Ŕ":{"ha":1004,"x_min":0,"x_max":0,"o":"m 125 886 b 150 947 125 910 133 931 b 211 972 167 964 187 972 l 558 972 b 839 875 679 972 772 940 b 919 665 893 819 919 750 l 919 663 b 860 477 919 588 900 526 b 699 372 821 428 767 394 l 885 138 b 913 72 903 114 913 93 b 888 15 913 49 904 30 b 831 -7 871 0 852 -7 b 747 38 797 -7 769 8 l 511 339 l 296 339 l 296 78 b 272 17 296 54 288 34 b 211 -7 255 1 235 -7 b 150 17 187 -7 167 1 b 125 78 133 34 125 54 m 546 490 b 692 535 607 490 656 505 b 746 653 728 564 746 604 l 746 656 b 693 775 746 707 728 747 b 544 817 658 803 608 817 l 296 817 l 296 490 m 507 1046 b 465 1075 479 1046 465 1056 b 476 1106 465 1084 469 1094 l 556 1228 b 622 1268 572 1255 594 1268 b 690 1251 645 1268 668 1262 b 722 1214 711 1239 722 1227 b 699 1172 722 1200 714 1186 l 606 1083 b 507 1046 579 1058 546 1046 "},"ŕ":{"ha":574,"x_min":0,"x_max":0,"o":"m 306 819 b 264 849 278 819 264 829 b 275 879 264 858 268 868 l 354 1001 b 421 1042 371 1028 393 1042 b 488 1024 444 1042 466 1036 b 521 988 510 1013 521 1000 b 497 946 521 974 513 960 l 404 857 b 306 819 377 832 344 819 m 106 657 b 130 717 106 681 114 701 b 189 742 146 734 166 742 b 249 717 213 742 233 733 b 274 657 266 700 274 680 l 274 582 b 354 698 294 629 321 668 b 458 743 388 728 422 743 b 519 720 484 743 505 735 b 542 660 534 705 542 685 b 523 606 542 638 535 621 b 475 579 510 592 494 583 b 328 491 413 568 364 539 b 274 293 292 443 274 377 l 274 76 b 249 17 274 53 265 34 b 189 -7 232 1 212 -7 b 130 17 166 -7 146 1 b 106 76 114 34 106 53 "},"Ŗ":{"ha":1004,"x_min":0,"x_max":0,"o":"m 125 886 b 150 947 125 910 133 931 b 211 972 167 964 187 972 l 558 972 b 839 875 679 972 772 940 b 919 665 893 819 919 750 l 919 663 b 860 477 919 588 900 526 b 699 372 821 428 767 394 l 885 138 b 913 72 903 114 913 93 b 888 15 913 49 904 30 b 831 -7 871 0 852 -7 b 747 38 797 -7 769 8 l 511 339 l 296 339 l 296 78 b 272 17 296 54 288 34 b 211 -7 255 1 235 -7 b 150 17 187 -7 167 1 b 125 78 133 34 125 54 m 546 490 b 692 535 607 490 656 505 b 746 653 728 564 746 604 l 746 656 b 693 775 746 707 728 747 b 544 817 658 803 608 817 l 296 817 l 296 490 m 500 -224 b 425 -150 450 -215 425 -191 l 425 -147 b 449 -94 425 -126 433 -108 b 510 -74 464 -81 485 -74 b 574 -100 537 -74 558 -82 b 599 -171 591 -118 599 -141 l 599 -175 b 539 -325 599 -241 579 -291 b 419 -371 506 -356 466 -371 b 383 -342 395 -371 383 -361 b 413 -312 383 -327 393 -317 b 500 -224 473 -300 502 -270 "},"ŗ":{"ha":574,"x_min":0,"x_max":0,"o":"m 188 -231 b 113 -157 138 -222 113 -198 l 113 -154 b 136 -101 113 -133 120 -115 b 197 -81 152 -87 172 -81 b 262 -107 224 -81 246 -89 b 286 -178 278 -125 286 -148 l 286 -182 b 226 -332 286 -248 266 -298 b 107 -378 193 -362 153 -378 b 71 -349 83 -378 71 -368 b 100 -319 71 -333 81 -323 b 188 -231 160 -306 189 -277 m 106 657 b 130 717 106 681 114 701 b 189 742 146 734 166 742 b 249 717 213 742 233 733 b 274 657 266 700 274 680 l 274 582 b 354 698 294 629 321 668 b 458 743 388 728 422 743 b 519 720 484 743 505 735 b 542 660 534 705 542 685 b 523 606 542 638 535 621 b 475 579 510 592 494 583 b 328 491 413 568 364 539 b 274 293 292 443 274 377 l 274 76 b 249 17 274 53 265 34 b 189 -7 232 1 212 -7 b 130 17 166 -7 146 1 b 106 76 114 34 106 53 "},"Ř":{"ha":1004,"x_min":0,"x_max":0,"o":"m 125 886 b 150 947 125 910 133 931 b 211 972 167 964 187 972 l 558 972 b 839 875 679 972 772 940 b 919 665 893 819 919 750 l 919 663 b 860 477 919 588 900 526 b 699 372 821 428 767 394 l 885 138 b 913 72 903 114 913 93 b 888 15 913 49 904 30 b 831 -7 871 0 852 -7 b 747 38 797 -7 769 8 l 511 339 l 296 339 l 296 78 b 272 17 296 54 288 34 b 211 -7 255 1 235 -7 b 150 17 187 -7 167 1 b 125 78 133 34 125 54 m 546 490 b 692 535 607 490 656 505 b 746 653 728 564 746 604 l 746 656 b 693 775 746 707 728 747 b 544 817 658 803 608 817 l 296 817 l 296 490 m 585 1226 b 688 1264 615 1251 650 1264 b 725 1236 713 1264 725 1255 b 708 1203 725 1229 719 1218 l 617 1088 b 536 1047 595 1061 569 1047 l 486 1047 b 406 1088 455 1047 428 1061 l 314 1203 b 297 1236 303 1218 297 1229 b 338 1264 297 1255 311 1264 b 440 1226 376 1264 411 1251 l 513 1164 "},"ř":{"ha":574,"x_min":0,"x_max":0,"o":"m 385 1000 b 488 1038 415 1025 450 1038 b 525 1010 513 1038 525 1028 b 508 976 525 1002 519 991 l 417 861 b 336 821 395 834 369 821 l 286 821 b 206 861 255 821 228 834 l 114 976 b 97 1010 103 991 97 1002 b 138 1038 97 1028 111 1038 b 240 1000 176 1038 211 1025 l 313 938 m 106 657 b 130 717 106 681 114 701 b 189 742 146 734 166 742 b 249 717 213 742 233 733 b 274 657 266 700 274 680 l 274 582 b 354 698 294 629 321 668 b 458 743 388 728 422 743 b 519 720 484 743 505 735 b 542 660 534 705 542 685 b 523 606 542 638 535 621 b 475 579 510 592 494 583 b 328 491 413 568 364 539 b 274 293 292 443 274 377 l 274 76 b 249 17 274 53 265 34 b 189 -7 232 1 212 -7 b 130 17 166 -7 146 1 b 106 76 114 34 106 53 "},"Ś":{"ha":889,"x_min":0,"x_max":0,"o":"m 447 1060 b 406 1089 419 1060 406 1069 b 417 1119 406 1098 409 1108 l 496 1242 b 563 1282 513 1269 535 1282 b 630 1265 586 1282 608 1276 b 663 1228 652 1253 663 1241 b 639 1186 663 1214 655 1200 l 546 1097 b 447 1060 519 1072 486 1060 m 465 -14 b 100 108 331 -14 209 27 b 67 174 78 124 67 146 b 90 230 67 196 75 215 b 147 253 106 245 125 253 b 197 238 167 253 183 248 b 469 138 281 171 372 138 b 595 172 522 138 564 149 b 642 260 626 194 642 224 l 642 263 b 597 349 642 299 627 327 b 422 411 568 370 509 391 b 283 453 367 425 320 439 b 183 507 246 467 213 485 b 119 588 154 529 132 556 b 99 701 105 620 99 658 l 99 704 b 192 908 99 788 130 855 b 431 986 254 960 333 986 b 739 896 545 986 648 956 b 776 828 764 882 776 859 b 753 772 776 806 769 787 b 696 749 737 756 718 749 b 651 761 680 749 665 753 b 428 835 575 810 501 835 b 313 802 380 835 341 824 b 269 719 284 780 269 753 l 269 717 b 316 628 269 679 285 649 b 501 564 347 608 409 586 b 738 460 609 538 688 503 b 813 279 788 417 813 357 l 813 276 b 717 64 813 187 781 116 b 465 -14 653 12 569 -14 "},"ś":{"ha":696,"x_min":0,"x_max":0,"o":"m 347 819 b 306 849 319 819 306 829 b 317 879 306 858 309 868 l 396 1001 b 463 1042 413 1028 435 1042 b 530 1024 486 1042 508 1036 b 563 988 552 1013 563 1000 b 539 946 563 974 555 960 l 446 857 b 347 819 419 832 386 819 m 357 -14 b 78 74 256 -14 163 15 b 46 132 56 85 46 104 b 65 180 46 150 52 166 b 114 200 78 193 94 200 b 150 190 127 200 139 197 b 361 119 220 143 291 119 b 445 141 397 119 425 127 b 475 199 465 155 475 175 l 475 201 b 328 299 475 237 426 269 b 311 304 320 301 315 303 b 228 332 278 313 250 323 b 157 370 206 341 182 354 b 101 432 132 386 113 407 b 82 519 88 457 82 486 l 82 522 b 156 685 82 590 107 644 b 343 746 206 725 268 746 b 574 686 422 746 499 726 b 614 622 600 672 614 651 b 594 574 614 603 607 587 b 544 554 580 561 564 554 b 511 563 533 554 522 557 b 339 613 446 596 389 613 b 264 592 307 613 282 606 b 236 540 245 579 236 562 l 236 538 b 274 483 236 514 249 496 b 388 438 299 469 337 454 b 401 433 394 436 399 434 b 483 403 434 423 461 413 b 553 364 506 394 529 381 b 610 303 578 347 597 327 b 629 219 623 279 629 251 l 629 217 b 553 46 629 143 604 86 b 357 -14 502 6 437 -14 "},"Ş":{"ha":889,"x_min":0,"x_max":0,"o":"m 813 276 b 733 78 813 195 786 129 b 519 -11 679 28 608 -2 l 446 -182 b 392 -222 435 -209 417 -222 b 329 -202 373 -222 352 -216 b 294 -161 306 -189 294 -175 b 306 -129 294 -150 298 -139 l 388 -8 b 100 108 281 5 185 44 b 67 174 78 124 67 146 b 90 230 67 196 75 215 b 147 253 106 245 125 253 b 197 238 167 253 183 248 b 469 138 281 171 372 138 b 595 172 522 138 564 149 b 642 260 626 194 642 224 l 642 263 b 597 349 642 299 627 327 b 422 411 568 370 509 391 b 283 453 367 425 320 439 b 183 507 246 467 213 485 b 119 588 154 529 132 556 b 99 701 105 620 99 658 l 99 704 b 192 908 99 788 130 855 b 431 986 254 960 333 986 b 739 896 545 986 648 956 b 776 828 764 882 776 859 b 753 772 776 806 769 787 b 696 749 737 756 718 749 b 651 761 680 749 665 753 b 428 835 575 810 501 835 b 313 802 380 835 341 824 b 269 719 284 780 269 753 l 269 717 b 316 628 269 679 285 649 b 501 564 347 608 409 586 b 738 460 609 538 688 503 b 813 279 788 417 813 357 l 813 276 "},"ş":{"ha":696,"x_min":0,"x_max":0,"o":"m 629 217 b 568 60 629 151 609 99 b 407 -11 527 21 474 -3 l 333 -182 b 279 -222 322 -209 304 -222 b 217 -202 261 -222 240 -216 b 182 -161 194 -189 182 -175 b 193 -129 182 -150 186 -139 l 276 -7 b 78 74 206 4 140 31 b 46 132 56 85 46 104 b 65 180 46 150 52 166 b 114 200 78 193 94 200 b 150 190 127 200 139 197 b 361 119 220 143 291 119 b 445 141 397 119 425 127 b 475 199 465 155 475 175 l 475 201 b 328 299 475 237 426 269 b 311 304 320 301 315 303 b 228 332 278 313 250 323 b 157 370 206 341 182 354 b 101 432 132 386 113 407 b 82 519 88 457 82 486 l 82 522 b 156 685 82 590 107 644 b 343 746 206 725 268 746 b 574 686 422 746 499 726 b 614 622 600 672 614 651 b 594 574 614 603 607 587 b 544 554 580 561 564 554 b 511 563 533 554 522 557 b 339 613 446 596 389 613 b 264 592 307 613 282 606 b 236 540 245 579 236 562 l 236 538 b 274 483 236 514 249 496 b 388 438 299 469 337 454 b 401 433 394 436 399 434 b 483 403 434 423 461 413 b 553 364 506 394 529 381 b 610 303 578 347 597 327 b 629 219 623 279 629 251 l 629 217 "},"Š":{"ha":889,"x_min":0,"x_max":0,"o":"m 525 1240 b 628 1278 556 1265 590 1278 b 665 1250 653 1278 665 1269 b 649 1217 665 1243 660 1231 l 557 1101 b 476 1061 536 1075 509 1061 l 426 1061 b 346 1101 395 1061 368 1075 l 254 1217 b 238 1250 243 1231 238 1243 b 278 1278 238 1269 251 1278 b 381 1240 317 1278 351 1265 l 453 1178 m 465 -14 b 100 108 331 -14 209 27 b 67 174 78 124 67 146 b 90 230 67 196 75 215 b 147 253 106 245 125 253 b 197 238 167 253 183 248 b 469 138 281 171 372 138 b 595 172 522 138 564 149 b 642 260 626 194 642 224 l 642 263 b 597 349 642 299 627 327 b 422 411 568 370 509 391 b 283 453 367 425 320 439 b 183 507 246 467 213 485 b 119 588 154 529 132 556 b 99 701 105 620 99 658 l 99 704 b 192 908 99 788 130 855 b 431 986 254 960 333 986 b 739 896 545 986 648 956 b 776 828 764 882 776 859 b 753 772 776 806 769 787 b 696 749 737 756 718 749 b 651 761 680 749 665 753 b 428 835 575 810 501 835 b 313 802 380 835 341 824 b 269 719 284 780 269 753 l 269 717 b 316 628 269 679 285 649 b 501 564 347 608 409 586 b 738 460 609 538 688 503 b 813 279 788 417 813 357 l 813 276 b 717 64 813 187 781 116 b 465 -14 653 12 569 -14 "},"š":{"ha":696,"x_min":0,"x_max":0,"o":"m 425 1000 b 528 1038 456 1025 490 1038 b 565 1010 553 1038 565 1028 b 549 976 565 1002 560 991 l 457 861 b 376 821 436 834 409 821 l 326 821 b 246 861 295 821 268 834 l 154 976 b 138 1010 143 991 138 1002 b 178 1038 138 1028 151 1038 b 281 1000 217 1038 251 1025 l 353 938 m 357 -14 b 78 74 256 -14 163 15 b 46 132 56 85 46 104 b 65 180 46 150 52 166 b 114 200 78 193 94 200 b 150 190 127 200 139 197 b 361 119 220 143 291 119 b 445 141 397 119 425 127 b 475 199 465 155 475 175 l 475 201 b 328 299 475 237 426 269 b 311 304 320 301 315 303 b 228 332 278 313 250 323 b 157 370 206 341 182 354 b 101 432 132 386 113 407 b 82 519 88 457 82 486 l 82 522 b 156 685 82 590 107 644 b 343 746 206 725 268 746 b 574 686 422 746 499 726 b 614 622 600 672 614 651 b 594 574 614 603 607 587 b 544 554 580 561 564 554 b 511 563 533 554 522 557 b 339 613 446 596 389 613 b 264 592 307 613 282 606 b 236 540 245 579 236 562 l 236 538 b 274 483 236 514 249 496 b 388 438 299 469 337 454 b 401 433 394 436 399 434 b 483 403 434 423 461 413 b 553 364 506 394 529 381 b 610 303 578 347 597 327 b 629 219 623 279 629 251 l 629 217 b 553 46 629 143 604 86 b 357 -14 502 6 437 -14 "},"Ţ":{"ha":900,"x_min":0,"x_max":0,"o":"m 438 -231 b 363 -157 388 -222 363 -198 l 363 -154 b 386 -101 363 -133 370 -115 b 447 -81 402 -87 422 -81 b 512 -107 474 -81 496 -89 b 536 -178 528 -125 536 -148 l 536 -182 b 476 -332 536 -248 516 -298 b 357 -378 443 -362 403 -378 b 321 -349 333 -378 321 -368 b 350 -319 321 -333 331 -323 b 438 -231 410 -306 439 -277 m 364 814 l 128 814 b 72 838 106 814 87 822 b 49 893 56 853 49 872 b 72 949 49 914 56 933 b 128 972 87 964 106 972 l 774 972 b 828 949 795 972 813 964 b 851 893 844 933 851 914 b 828 838 851 872 844 853 b 774 814 813 822 795 814 l 536 814 l 536 78 b 511 18 536 55 528 35 b 450 -7 494 1 474 -7 b 389 18 426 -7 406 1 b 364 78 372 35 364 55 "},"ţ":{"ha":571,"x_min":0,"x_max":0,"o":"m 299 -231 b 224 -157 249 -222 224 -198 l 224 -154 b 247 -101 224 -133 231 -115 b 308 -81 263 -87 283 -81 b 373 -107 335 -81 357 -89 b 397 -178 389 -125 397 -148 l 397 -182 b 338 -332 397 -248 377 -298 b 218 -378 304 -362 264 -378 b 182 -349 194 -378 182 -368 b 211 -319 182 -333 192 -323 b 299 -231 271 -306 300 -277 m 351 -12 b 140 203 211 -12 140 59 l 140 589 l 113 589 b 61 610 92 589 75 596 b 40 661 47 624 40 641 b 61 713 40 681 47 699 b 113 733 75 726 92 733 l 140 733 l 140 858 b 165 917 140 881 149 901 b 225 942 182 934 202 942 b 284 917 248 942 268 934 b 308 858 300 901 308 881 l 308 733 l 440 733 b 492 713 461 733 478 726 b 514 661 507 699 514 681 b 492 610 514 641 507 624 b 440 589 478 596 461 589 l 308 589 l 308 229 b 399 138 308 168 338 138 b 424 140 406 138 415 138 b 440 142 434 141 439 142 b 490 122 460 142 476 135 b 511 72 504 108 511 92 b 467 7 511 41 496 19 b 351 -12 430 -6 391 -12 "},"Ť":{"ha":900,"x_min":0,"x_max":0,"o":"m 524 1226 b 626 1264 554 1251 588 1264 b 664 1236 651 1264 664 1255 b 647 1203 664 1229 658 1218 l 556 1088 b 475 1047 534 1061 507 1047 l 425 1047 b 344 1088 394 1047 367 1061 l 253 1203 b 236 1236 242 1218 236 1229 b 276 1264 236 1255 250 1264 b 379 1226 315 1264 350 1251 l 451 1164 m 364 814 l 128 814 b 72 838 106 814 87 822 b 49 893 56 853 49 872 b 72 949 49 914 56 933 b 128 972 87 964 106 972 l 774 972 b 828 949 795 972 813 964 b 851 893 844 933 851 914 b 828 838 851 872 844 853 b 774 814 813 822 795 814 l 536 814 l 536 78 b 511 18 536 55 528 35 b 450 -7 494 1 474 -7 b 389 18 426 -7 406 1 b 364 78 372 35 364 55 "},"ť":{"ha":571,"x_min":0,"x_max":0,"o":"m 428 1022 b 446 1066 429 1040 435 1054 b 489 1083 457 1078 471 1083 l 514 1083 b 557 1043 543 1083 557 1070 b 551 1011 557 1033 555 1022 l 500 843 b 460 808 493 820 479 808 b 433 819 449 808 440 812 b 424 850 426 827 423 837 m 351 -12 b 140 203 211 -12 140 59 l 140 589 l 113 589 b 61 610 92 589 75 596 b 40 661 47 624 40 641 b 61 713 40 681 47 699 b 113 733 75 726 92 733 l 140 733 l 140 858 b 165 917 140 881 149 901 b 225 942 182 934 202 942 b 284 917 248 942 268 934 b 308 858 300 901 308 881 l 308 733 l 440 733 b 492 713 461 733 478 726 b 514 661 507 699 514 681 b 492 610 514 641 507 624 b 440 589 478 596 461 589 l 308 589 l 308 229 b 399 138 308 168 338 138 b 424 140 406 138 415 138 b 440 142 434 141 439 142 b 490 122 460 142 476 135 b 511 72 504 108 511 92 b 467 7 511 41 496 19 b 351 -12 430 -6 391 -12 "},"Ū":{"ha":1051,"x_min":0,"x_max":0,"o":"m 524 -15 b 220 94 395 -15 294 21 b 110 413 147 168 110 274 l 110 894 b 135 955 110 919 118 939 b 196 979 151 971 172 979 b 256 955 219 979 239 971 b 281 894 272 939 281 919 l 281 419 b 345 215 281 331 302 262 b 526 143 388 167 449 143 b 706 212 603 143 663 166 b 771 413 749 258 771 325 l 771 894 b 796 955 771 919 779 939 b 857 979 813 971 833 979 b 917 955 880 979 900 971 b 942 894 933 939 942 919 l 942 421 b 831 97 942 279 905 171 b 524 -15 756 22 654 -15 m 340 1068 b 297 1086 324 1068 309 1074 b 279 1129 285 1098 279 1113 b 297 1172 279 1146 285 1160 b 340 1190 309 1184 324 1190 l 710 1190 b 753 1172 726 1190 741 1184 b 771 1129 765 1160 771 1146 b 753 1086 771 1113 765 1098 b 710 1068 741 1074 726 1068 "},"ū":{"ha":861,"x_min":0,"x_max":0,"o":"m 757 76 b 732 17 757 53 749 34 b 672 -7 715 1 695 -7 b 613 17 649 -7 629 1 b 588 76 596 34 588 53 l 588 114 b 358 -15 529 28 453 -15 b 167 61 277 -15 213 10 b 97 267 120 112 97 181 l 97 657 b 122 717 97 680 105 700 b 181 742 138 733 157 742 b 241 717 205 742 225 733 b 265 657 257 700 265 680 l 265 317 b 306 185 265 260 279 216 b 422 139 334 154 372 139 b 542 187 471 139 511 155 b 588 319 572 219 588 263 l 588 657 b 612 717 588 680 596 700 b 672 742 628 733 648 742 b 732 717 695 742 715 733 b 757 657 749 700 757 680 m 240 842 b 197 860 224 842 209 848 b 179 903 185 872 179 886 b 197 946 179 919 185 934 b 240 964 209 958 224 964 l 610 964 b 653 946 626 964 641 958 b 671 903 665 934 671 919 b 653 860 671 886 665 872 b 610 842 641 848 626 842 "},"Ŭ":{"ha":1051,"x_min":0,"x_max":0,"o":"m 524 -15 b 220 94 395 -15 294 21 b 110 413 147 168 110 274 l 110 894 b 135 955 110 919 118 939 b 196 979 151 971 172 979 b 256 955 219 979 239 971 b 281 894 272 939 281 919 l 281 419 b 345 215 281 331 302 262 b 526 143 388 167 449 143 b 706 212 603 143 663 166 b 771 413 749 258 771 325 l 771 894 b 796 955 771 919 779 939 b 857 979 813 971 833 979 b 917 955 880 979 900 971 b 942 894 933 939 942 919 l 942 421 b 831 97 942 279 905 171 b 524 -15 756 22 654 -15 m 525 1044 b 313 1156 425 1044 354 1081 b 301 1199 305 1170 301 1185 b 318 1241 301 1215 307 1229 b 360 1258 329 1253 343 1258 b 413 1226 383 1258 400 1248 b 525 1163 437 1184 474 1163 b 638 1226 578 1163 615 1184 b 690 1258 650 1248 667 1258 b 732 1241 707 1258 721 1253 b 749 1199 743 1229 749 1215 b 738 1156 749 1185 745 1170 b 525 1044 696 1081 625 1044 "},"ŭ":{"ha":861,"x_min":0,"x_max":0,"o":"m 757 76 b 732 17 757 53 749 34 b 672 -7 715 1 695 -7 b 613 17 649 -7 629 1 b 588 76 596 34 588 53 l 588 114 b 358 -15 529 28 453 -15 b 167 61 277 -15 213 10 b 97 267 120 112 97 181 l 97 657 b 122 717 97 680 105 700 b 181 742 138 733 157 742 b 241 717 205 742 225 733 b 265 657 257 700 265 680 l 265 317 b 306 185 265 260 279 216 b 422 139 334 154 372 139 b 542 187 471 139 511 155 b 588 319 572 219 588 263 l 588 657 b 612 717 588 680 596 700 b 672 742 628 733 648 742 b 732 717 695 742 715 733 b 757 657 749 700 757 680 m 425 824 b 213 935 325 824 254 861 b 201 978 205 950 201 964 b 218 1020 201 994 207 1009 b 260 1038 229 1032 243 1038 b 313 1006 283 1038 300 1027 b 425 942 337 963 374 942 b 538 1006 478 942 515 963 b 590 1038 550 1027 567 1038 b 632 1020 607 1038 621 1032 b 649 978 643 1009 649 994 b 638 935 649 964 645 950 b 425 824 596 861 525 824 "},"Ů":{"ha":1051,"x_min":0,"x_max":0,"o":"m 525 1031 b 415 1076 483 1031 447 1046 b 367 1182 383 1106 367 1141 l 367 1185 b 415 1292 367 1226 383 1262 b 525 1336 447 1321 483 1336 b 635 1292 567 1336 603 1321 b 683 1185 667 1262 683 1226 l 683 1182 b 635 1076 683 1141 667 1106 b 525 1031 603 1046 567 1031 m 525 1097 b 585 1122 548 1097 568 1106 b 611 1182 603 1139 611 1159 l 611 1185 b 585 1244 611 1208 603 1228 b 525 1269 568 1261 548 1269 b 465 1244 502 1269 482 1261 b 439 1185 447 1228 439 1208 l 439 1182 b 465 1122 439 1159 447 1139 b 525 1097 482 1106 502 1097 m 524 -15 b 220 94 395 -15 294 21 b 110 413 147 168 110 274 l 110 894 b 135 955 110 919 118 939 b 196 979 151 971 172 979 b 256 955 219 979 239 971 b 281 894 272 939 281 919 l 281 419 b 345 215 281 331 302 262 b 526 143 388 167 449 143 b 706 212 603 143 663 166 b 771 413 749 258 771 325 l 771 894 b 796 955 771 919 779 939 b 857 979 813 971 833 979 b 917 955 880 979 900 971 b 942 894 933 939 942 919 l 942 421 b 831 97 942 279 905 171 b 524 -15 756 22 654 -15 "},"ů":{"ha":861,"x_min":0,"x_max":0,"o":"m 425 822 b 315 867 383 822 347 837 b 267 974 283 897 267 933 l 267 976 b 315 1083 267 1018 283 1054 b 425 1128 347 1113 383 1128 b 535 1083 467 1128 503 1113 b 583 976 567 1054 583 1018 l 583 974 b 535 867 583 933 567 897 b 425 822 503 837 467 822 m 425 889 b 485 914 448 889 468 897 b 511 974 503 931 511 950 l 511 976 b 485 1036 511 1000 503 1019 b 425 1061 468 1053 448 1061 b 365 1036 402 1061 382 1053 b 339 976 347 1019 339 1000 l 339 974 b 365 914 339 950 347 931 b 425 889 382 897 402 889 m 757 76 b 732 17 757 53 749 34 b 672 -7 715 1 695 -7 b 613 17 649 -7 629 1 b 588 76 596 34 588 53 l 588 114 b 358 -15 529 28 453 -15 b 167 61 277 -15 213 10 b 97 267 120 112 97 181 l 97 657 b 122 717 97 680 105 700 b 181 742 138 733 157 742 b 241 717 205 742 225 733 b 265 657 257 700 265 680 l 265 317 b 306 185 265 260 279 216 b 422 139 334 154 372 139 b 542 187 471 139 511 155 b 588 319 572 219 588 263 l 588 657 b 612 717 588 680 596 700 b 672 742 628 733 648 742 b 732 717 695 742 715 733 b 757 657 749 700 757 680 "},"Ű":{"ha":1051,"x_min":0,"x_max":0,"o":"m 524 -15 b 220 94 395 -15 294 21 b 110 413 147 168 110 274 l 110 894 b 135 955 110 919 118 939 b 196 979 151 971 172 979 b 256 955 219 979 239 971 b 281 894 272 939 281 919 l 281 419 b 345 215 281 331 302 262 b 526 143 388 167 449 143 b 706 212 603 143 663 166 b 771 413 749 258 771 325 l 771 894 b 796 955 771 919 779 939 b 857 979 813 971 833 979 b 917 955 880 979 900 971 b 942 894 933 939 942 919 l 942 421 b 831 97 942 279 905 171 b 524 -15 756 22 654 -15 m 635 1046 b 594 1075 608 1046 594 1056 b 606 1106 594 1084 598 1094 l 686 1228 b 750 1268 702 1255 723 1268 b 815 1251 772 1268 794 1263 b 847 1215 837 1240 847 1228 b 824 1172 847 1202 839 1188 l 731 1083 b 635 1046 704 1058 672 1046 m 381 1046 b 340 1075 354 1046 340 1056 b 351 1106 340 1084 344 1094 l 432 1228 b 496 1268 448 1255 469 1268 b 561 1251 518 1268 540 1263 b 593 1215 582 1240 593 1228 b 569 1172 593 1202 585 1188 l 476 1083 b 381 1046 450 1058 419 1046 "},"ű":{"ha":861,"x_min":0,"x_max":0,"o":"m 757 76 b 732 17 757 53 749 34 b 672 -7 715 1 695 -7 b 613 17 649 -7 629 1 b 588 76 596 34 588 53 l 588 114 b 358 -15 529 28 453 -15 b 167 61 277 -15 213 10 b 97 267 120 112 97 181 l 97 657 b 122 717 97 680 105 700 b 181 742 138 733 157 742 b 241 717 205 742 225 733 b 265 657 257 700 265 680 l 265 317 b 306 185 265 260 279 216 b 422 139 334 154 372 139 b 542 187 471 139 511 155 b 588 319 572 219 588 263 l 588 657 b 612 717 588 680 596 700 b 672 742 628 733 648 742 b 732 717 695 742 715 733 b 757 657 749 700 757 680 m 535 819 b 494 849 508 819 494 829 b 506 879 494 858 498 868 l 586 1001 b 650 1042 602 1028 623 1042 b 715 1025 672 1042 694 1036 b 747 989 737 1014 747 1002 b 724 946 747 976 739 962 l 631 857 b 535 819 604 832 572 819 m 281 819 b 240 849 254 819 240 829 b 251 879 240 858 244 868 l 332 1001 b 396 1042 348 1028 369 1042 b 461 1025 418 1042 440 1036 b 493 989 482 1014 493 1002 b 469 946 493 976 485 962 l 376 857 b 281 819 350 832 319 819 "},"Ų":{"ha":1051,"x_min":0,"x_max":0,"o":"m 408 -114 b 454 -11 408 -81 424 -46 b 201 117 346 2 261 44 b 110 413 140 189 110 288 l 110 894 b 135 955 110 919 118 939 b 196 979 151 971 172 979 b 256 955 219 979 239 971 b 281 894 272 939 281 919 l 281 419 b 345 215 281 331 302 262 b 526 143 388 167 449 143 b 706 212 603 143 663 166 b 771 413 749 258 771 325 l 771 894 b 796 955 771 919 779 939 b 857 979 813 971 833 979 b 917 955 880 979 900 971 b 942 894 933 939 942 919 l 942 421 b 843 110 942 288 909 184 b 569 -12 777 37 686 -4 b 536 -87 547 -37 536 -62 b 597 -144 536 -115 556 -134 b 643 -187 628 -152 643 -166 b 588 -231 643 -216 625 -231 b 461 -201 538 -231 496 -221 b 408 -114 426 -182 408 -153 "},"ų":{"ha":861,"x_min":0,"x_max":0,"o":"m 757 72 b 724 6 757 49 746 27 b 668 -89 687 -31 668 -62 b 728 -144 668 -116 688 -134 b 774 -187 758 -152 774 -166 b 718 -231 774 -216 755 -231 b 592 -202 669 -231 627 -221 b 540 -118 558 -183 540 -155 b 614 15 540 -74 565 -29 b 595 56 606 22 600 35 b 588 108 590 76 588 94 l 588 114 b 358 -15 529 28 453 -15 b 167 61 277 -15 213 10 b 97 267 120 112 97 181 l 97 657 b 122 717 97 680 105 700 b 181 742 138 733 157 742 b 241 717 205 742 225 733 b 265 657 257 700 265 680 l 265 317 b 306 185 265 260 279 216 b 422 139 334 154 372 139 b 542 187 471 139 511 155 b 588 319 572 219 588 263 l 588 657 b 612 717 588 680 596 700 b 672 742 628 733 648 742 b 732 717 695 742 715 733 b 757 657 749 700 757 680 "},"Ŵ":{"ha":1526,"x_min":0,"x_max":0,"o":"m 689 1083 b 586 1046 659 1058 625 1046 b 549 1074 561 1046 549 1055 b 565 1107 549 1081 554 1092 l 657 1222 b 738 1263 679 1249 706 1263 l 788 1263 b 868 1222 820 1263 847 1249 l 960 1107 b 976 1074 971 1092 976 1081 b 936 1046 976 1055 963 1046 b 833 1083 898 1046 864 1058 l 761 1146 m 65 863 b 58 896 61 874 58 885 b 84 955 58 919 67 939 b 146 979 101 971 122 979 b 199 962 166 979 184 973 b 231 917 215 950 225 935 l 454 249 l 674 914 b 760 982 689 959 718 982 l 772 982 b 858 914 816 982 844 959 l 1078 249 l 1301 918 b 1385 979 1316 959 1344 979 b 1444 956 1408 979 1428 971 b 1469 897 1461 940 1469 920 b 1461 863 1469 887 1467 875 l 1174 57 b 1085 -14 1157 10 1127 -14 l 1068 -14 b 981 57 1026 -14 997 10 l 764 692 l 547 57 b 458 -14 531 10 501 -14 l 442 -14 b 353 57 400 -14 370 10 "},"ŵ":{"ha":1185,"x_min":0,"x_max":0,"o":"m 517 857 b 414 819 487 832 453 819 b 376 847 389 819 376 829 b 393 881 376 855 382 866 l 485 996 b 565 1036 507 1023 534 1036 l 615 1036 b 696 996 648 1036 675 1023 l 788 881 b 804 847 799 866 804 855 b 764 819 804 829 791 819 b 661 857 726 819 692 832 l 589 919 m 351 -12 b 258 63 306 -12 275 13 l 61 621 b 53 664 56 636 53 650 b 76 719 53 685 60 703 b 135 742 91 734 111 742 b 217 675 175 742 203 719 l 358 231 l 501 675 b 588 742 515 719 544 742 l 597 742 b 683 675 641 742 669 719 l 828 231 l 971 676 b 1053 742 984 720 1011 742 b 1109 719 1075 742 1094 734 b 1132 664 1124 703 1132 685 b 1125 626 1132 653 1130 640 l 925 63 b 832 -12 907 13 876 -12 l 826 -12 b 735 60 780 -12 750 12 l 592 496 l 447 60 b 357 -12 432 12 402 -12 l 351 -12 "}}}
